<svg xmlns="http://www.w3.org/2000/svg" viewBox="0 0 810 810" version="1.0">
    <defs>
        <clipPath id="a">
            <path d="M272.16 243H537v324H272.16Zm0 0"/>
        </clipPath>
    </defs>
    <g clip-path="url(#a)">
        <path d="M509.027 301.594a138.173 138.173 0 0 1 3.645 6.785 155.512 155.512 0 0 0-4.777-6.078l1.132-.707m-87.562-58.114Zm104.164 95.403c.492 1.11.96 2.222 1.426 3.344-.395-.122-.79-.239-1.172-.356-.293-.926-.598-1.86-.903-2.773.215-.07.434-.149.649-.215Zm-115.934-95.375c-.164.316-.343.633-.507.937-.66-.039-1.32-.082-1.989-.11.828-.284 1.664-.562 2.496-.827Zm50.832 15.14a123.752 123.752 0 0 0-4.347-2.253c1.465.726 2.91 1.476 4.347 2.253Zm60.196 223.735c-.649.46-1.305.914-1.965 1.355a161.289 161.289 0 0 1-2.625 8.52 171.47 171.47 0 0 1-3.832 3.234 157.844 157.844 0 0 1-6.5 9.73c-.02-1.19-.059-2.382-.106-3.57a135.872 135.872 0 0 0 2.418-3.504 219.744 219.744 0 0 0-2.203-3.48c2.86-5.125 5.86-10.406 7.793-15.977l3.07 1.301c.45-.523.903-1.043 1.356-1.566.422.426.836.836 1.246 1.25.258-.63.523-1.258.77-1.887-.344-.61-.68-1.223-1.032-1.832.262-.992.508-1.984.754-2.98 1.309-.325 2.606-.668 3.914-1.012-.926 3.5-1.937 6.973-3.058 10.418Zm-6.387-.18c.746-.047 1.504-.086 2.25-.137-.758.051-1.504.098-2.25.137Zm-49.809-219.777c.383.883.758 1.77 1.11 2.664-.45-.402-2.496-2.055-2.703-2.34-.168-.227-1.692-1.406-2.016-1.684.426.149 2.215.875 2.48.907.098.02.954.37 1.13.453ZM343.945 553.328c-1.129-.894-6.468-5.723-6.988-5.988-.254-.137-2.644-2.559-3.035-2.95.773.235 3.781.934 4.246 1.18.027.02.254.067.312.078 1.633.688 3.274 1.336 4.934 1.957 2.262 1.801 4.594 3.493 6.992 5.106-1.27-.285-2.527-.602-3.777-.934.168.493.344.973.523 1.465-1.062.04-2.132.078-3.207.086Zm92.785 5.735c.391-1.18.766-2.368 1.11-3.579 1.238.149 2.476.274 3.715.383a110.9 110.9 0 0 0 8.484-5.21c.856-.18 1.7-.348 2.547-.544.344 1.18.695 2.36 1.031 3.543a114.49 114.49 0 0 1-16.887 5.407Zm-66.687 3.433a109.152 109.152 0 0 0 3.797-2.113c1.59.402 3.21.765 4.836 1.101.41 1.22.855 2.43 1.316 3.63-1.406-.481-2.8-.993-4.18-1.536a109.555 109.555 0 0 1-5.769-1.082Zm13.773 3.66c-.058-.46-.117-.926-.18-1.379.778.121 1.555.227 2.34.336-.714.356-1.433.707-2.16 1.043Zm-66.812-35.922c-.246-.254-.484-.52-.727-.777.243-.383.5-.766.754-1.14-.676-.551-1.355-1.114-2.023-1.672.027-.829.078-1.653.117-2.47.7.481 1.406.954 2.113 1.415.317 1.36.649 2.695 1.004 4.035-.414.207-.828.402-1.238.61ZM436.71 561.16a93.601 93.601 0 0 1-3.336-.355c.672-.325 1.348-.649 2.016-.985.425.453.867.899 1.32 1.34Zm-32.766 3.934c.383.11.778.215 1.153.316a125.02 125.02 0 0 1-10.332-.492h-.008c-.297.539-.582 1.09-.867 1.633-1.18-.207-2.348-.426-3.528-.66.215-.973.43-1.95.649-2.91.558-.02 3.625-.247 3.883-.2.539.11 5.75-.531 6.671-.648 1.555.77 3.13 1.496 4.72 2.195-.247.45-.493.902-.747 1.356-.52-.188-1.05-.395-1.594-.59Zm-79.668-28.633c.598.422 1.22.855 1.828 1.27-.62-.415-1.23-.848-1.828-1.27Zm-14.32-18.68c-.531.403-1.062.809-1.594 1.211.254-1.12.52-2.234.805-3.344a134.227 134.227 0 0 0 3.254 3.739c-.207.816-.414 1.62-.61 2.437a133.38 133.38 0 0 1-2.289-2.41c.149-.55.286-1.09.434-1.633Zm-19.18-30.05Zm-14.422-135.786c.79-.297 1.567-.582 2.352-.86-.5 1.93-.965 3.868-1.375 5.817-.55-.03-1.102-.05-1.652-.078.207-1.625.422-3.258.675-4.879Zm17.891 143.075c.512.316 1.035.64 1.555.957-.278.136-.563.293-.848.441-.234-.473-.469-.934-.707-1.398Zm-11.617-28.997Zm7.793 20.176a190.694 190.694 0 0 1-3.863-9.531 176.54 176.54 0 0 0 3.09 3.305 126.366 126.366 0 0 0 2.257 2.968c-.488-.007-.972-.027-1.465-.039-.007 1.094-.02 2.196-.02 3.297Zm-11.559-33.887c.766.344 1.524.68 2.29 1.004-.766-.324-1.532-.668-2.29-1.003Zm-3.175-17.351c.71-.54 1.425-1.09 2.132-1.633-.648.215-1.285.442-1.933.66-.13-.836-.258-1.683-.383-2.527l1.402.383c.387-.375.79-.75 1.18-1.114-.54-.656-1.09-1.316-1.629-1.984 1.059 1.227 2.14 2.45 3.223 3.656.226 1.45.46 2.883.718 4.32-.218.766-.425 1.536-.628 2.313a303.637 303.637 0 0 1-3.727-1.91c-.117-.719-.246-1.438-.356-2.164Zm-3.508-31.133c.5-.785 1.004-1.562 1.515-2.34-.504.778-1.015 1.563-1.515 2.34Zm.039-7.887ZM302.887 509.5a181.02 181.02 0 0 1 1.593-4.34c.797 2.117 1.653 4.211 2.547 6.29a167.117 167.117 0 0 1-3.027-2.657c-.375.234-.75.473-1.113.707Zm-22.047-50.668.531-2.004c.836.176 1.68.352 2.516.52-.246 1.23-.473 2.449-.688 3.68-.148-.907-.297-1.81-.422-2.716.047.196.106.383.157.579l-2.094-.059Zm-7.422-45.57c-.207-1.063-.395-2.133-.59-3.196l1.121 1.18c-.176.668-.344 1.336-.531 2.016Zm90.855 145.664c-.726-.59-1.453-1.2-2.171-1.809a91.778 91.778 0 0 0 2.171 1.809Zm-46.53-31.801a124.559 124.559 0 0 0 4.94 4.191c.383-.394.77-.777 1.16-1.18.462 1.239.954 2.45 1.446 3.669a130.02 130.02 0 0 1-7.547-6.68Zm-18.052-24.066c-.02-.032-.086-.16-.097-.18-.149-.156-.817-1.414-.973-1.7.5-.284 1.004-.57 1.504-.847-.098-.824-.195-1.66-.285-2.488-.48.039-.961.09-1.445.129a169.473 169.473 0 0 1-5.77-14.313c3.086 5.863 6.781 11.32 8.484 17.832-.324.344-.699.809-1.043 1.113-.109.098-.285.344-.375.454ZM281.54 342.047Zm.55-1.348c.688-.492 1.384-.96 2.095-1.426-.711.473-1.407.946-2.094 1.426Zm149.677 218.828c.046-.355.078-.687.105-1.035-.324-.254-.648-.52-.973-.773 1.36.304 2.715.59 4.07.836a94.223 94.223 0 0 1-3.202.972ZM275.356 423.09c.57.027 1.148.066 1.718.098-.57-.032-1.148-.07-1.719-.098Zm1.996-58.496c.363.453.726.914 1.097 1.355a119.207 119.207 0 0 0-.922 3.266c-.246-1.317-.48-2.637-.68-3.965-.136.75-.265 1.488-.39 2.234.285-.972.578-1.937.895-2.89Zm14.132-40.692a83.883 83.883 0 0 1 1.633-2.57 137.866 137.866 0 0 0-1.289 4.023c-.125-.492-.234-.972-.344-1.453Zm-5.367 146.461c.356-.66.707-1.328 1.074-1.988.325.64.657 1.27.993 1.898-.7.028-1.387.059-2.067.09Zm-7.262-28.968c.332-.59.676-1.18 1.02-1.762.129.078.258.156.383.238-.461.5-.934 1.012-1.403 1.524Zm-2.93-43.547c-.038 3.011-.01 6.03.048 9.039a302.96 302.96 0 0 1-.047-9.04Zm-1.554-17.282c.668-.226 1.348-.453 2.016-.668-.176 1.16-.336 2.313-.473 3.473-.52-.933-1.043-1.86-1.543-2.805Zm30.484-73.074a137.02 137.02 0 0 1 3.735-3.203c-.219.883-.422 1.777-.63 2.672a68.682 68.682 0 0 0-3.105.531Zm-29.992 87.75Zm.875 12.992Zm67.246-131.254c.157.551.305 1.114.45 1.665-.856.925-1.7 1.859-2.543 2.793-.551.167-5.73 1.78-5.743 1.78-.039-.011-1.09.196-1.226.216.125.336.234.668.351.996a56.718 56.718 0 0 0-1.582-.11c.207-.414.414-.836.618-1.25.246-.168 1.035-.62 1.191-.777 1.2-1.129 6.734-4.277 8.484-5.313Zm-67.441 101.266c.352-.492.715-.973 1.078-1.465-.363.492-.726.98-1.078 1.465Zm33.734-74.695c.403-.434.805-.856 1.22-1.29.323.313.648.618.964.934-.738.098-1.457.227-2.184.356Zm6.477-6.492c.473.168.945.332 1.418.511.02-.484.027-.965.047-1.445.992.273 1.984.559 2.969.855-1.032.649-2.075 1.297-3.086 1.977.136.313.273.617.414.934-.473.453-.954.906-1.418 1.367a199.531 199.531 0 0 0-2.036-1.664c.543-.856 1.114-1.7 1.692-2.535Zm188.828 200.558Zm-22.352 28.25Zm-160.117-234.07.973-.387a58.011 58.011 0 0 0-.344 1.594c-.215-.39-.422-.805-.629-1.207Zm9.977-7.84c-.383.54-.754 1.09-1.13 1.64.376-.558.747-1.1 1.13-1.64Zm17.144-11.125c.727-.168 1.446-.324 2.164-.484a391.425 391.425 0 0 0-3.226 3.039c.344-.856.707-1.7 1.062-2.555Zm126.262 258.535ZM288.957 335.34c-.305.62-.61 1.238-.902 1.86.293-.63.597-1.25.902-1.86Zm151.191-75.953Zm25.766 280.496c-.383.277-.777.55-1.16.828.137-.64.266-1.27.383-1.918.265.371.511.727.777 1.09Zm-3.5 2.43a13.852 13.852 0 0 0-.601-.372c.609-.53 1.23-1.082 1.828-1.625-.403.668-.813 1.34-1.227 1.996Zm-1.05.316Zm-10.61 6.176c-2.004.789-4.04 1.523-6.094 2.195a116.45 116.45 0 0 0 6.094-2.195Zm-11.606 4.78a110.5 110.5 0 0 0 2.317-1.937 86.785 86.785 0 0 1-2.317 1.938Zm-6.578 1.919Zm-47.496-296.711c-.156.062-.316.121-.472.18.136.402.296.804.441 1.21.16-.062.316-.109.473-.167-.149-.414-.293-.817-.442-1.223Zm-64.55 262.059a99.177 99.177 0 0 0 2.78 2.086 224.205 224.205 0 0 1-2.78-2.086Zm137.82 20.988a33.41 33.41 0 0 0-.383-1.317c.512-.058 1.023-.117 1.535-.187l-1.152 1.504Zm-10.676 5.57c-.559-.09-1.129-.18-1.691-.277.57.097 1.132.176 1.691.277Zm20.555-14.648c.582-.188 1.16-.364 1.73-.551-.57.187-1.148.363-1.73.55Zm-28.645 17.144ZM300.242 488.5Zm-16.426-125.922a81.101 81.101 0 0 0 0 0Zm103.145-99.21c-.727.14-1.465.265-2.191.413.726-.148 1.464-.273 2.19-.414Zm-97.215 183.257c.137 1.082.305 2.156.473 3.238a119.822 119.822 0 0 1-.473-3.238Zm-4.61-20.32c.216-.137.423-.285.63-.434.629.652 1.257 1.29 1.894 1.93-.492.375-.973.746-1.465 1.12-.351-.874-.715-1.741-1.058-2.616Zm-2.046-35.684c0 1.375.02 2.754.039 4.129-.027-1.375-.04-2.754-.04-4.129Zm.687-4.516c-.226.649-.46 1.297-.675 1.946l.675-1.946Zm1.918-20.98Zm24.34-45.828c.215.992.43 1.996.668 3a95.187 95.187 0 0 0-5.437 2.98c-.313.563-1.032 2.067-1.356 2.47-.02.03-.07.136-.09.175.325.71.66 1.41.993 2.105-.727.141-1.442.278-2.172.426 0 .598.02 1.2.03 1.797a129.2 129.2 0 0 0-2.132-.902c.332-.563 2.504-3.887 2.574-4.114.117-.414 3.067-4.445 3.551-5.093 1.11-.973 2.23-1.918 3.371-2.844Zm29.664-30.629c-.137.137-.304.273-.441.414-.582.598-1.16 1.297-1.719 1.938.344-.395 1.531-1.606 1.719-1.938a7.95 7.95 0 0 1 .441-.414Zm-48.812 61.379c.441-.55.883-1.094 1.336-1.633-.453.54-.907 1.082-1.336 1.633Zm58.289-67.145Zm8.75-3.945c.687-.117 1.375-.223 2.05-.332.712.473 1.419.953 2.118 1.438.61-.426 1.226-.848 1.836-1.27-1.336 1.82-2.672 3.637-3.98 5.477-.63.226-1.25.453-1.868.69.176-.491.344-.976.512-1.456-.914.254-1.84.52-2.742.797.668.37 1.343.758 2.003 1.14-1.148.395-2.3.797-3.449 1.22.227-.384.45-.766.676-1.15-.863.137-1.738.286-2.605.442-.325.817-.63 1.633-.934 2.457a166.18 166.18 0 0 0-2.848 1.8c-1.132.08-2.261.188-3.39.298.422.37.824.738 1.238 1.11-.887.589-2.93 2.175-3.707 2.546-.266.129-1.024.73-1.309.938.168-.286.828-1.27.914-1.497.079-.195 3.473-4.082 3.903-4.574a195.087 195.087 0 0 1 11.285-7.258c.078-.957.187-1.89.297-2.816Zm-58.813 192.406c.59.965 1.18 1.938 1.79 2.895-.61-.957-1.2-1.918-1.79-2.895Zm85.418-198.61c.375.216.739.442 1.114.657-.415.168-.829.324-1.23.485.038-.387.077-.77.116-1.141Zm-87.363 145.731c.57.032 1.129.059 1.7.09.05.395.089.778.128 1.172-.61-.426-1.219-.836-1.828-1.262Zm98.992-144.64c.485.285.945.59 1.406.914.188-.285.375-.57.551-.856.149.317.297.63.434.946a31.23 31.23 0 0 1-.7 2.3c-.39-.46-.804-.925-1.218-1.367a63.66 63.66 0 0 0-.473-1.937Zm4.207.07a7.41 7.41 0 0 1-.668.914c.238-.297.473-.59.668-.914ZM355.18 525.652Zm44.863-246.78c.61.726 1.18 1.476 1.71 2.25a21.192 21.192 0 0 1-.823 3.042c.332.106.648.234.972.383.13.422.254.855.395 1.289a18.3 18.3 0 0 1-.914.98 43.269 43.269 0 0 0-1.871-2.191c-.262-.953-.52-1.918-.785-2.863a26.63 26.63 0 0 0 1.316-2.89Zm-3.215 1.741c.317-.11.621-.207.945-.316.137.422.278.848.414 1.258-.226.207-.453.406-.68.601-.226-.523-.46-1.035-.679-1.543ZM320.355 454.84Zm111.34-158.363a64.03 64.03 0 0 0-3.422-3.028c.61-.031 1.22-.039 1.84-.05.844.44 1.68.906 2.516 1.378-.324.559-.629 1.13-.934 1.7Zm-69.043 218.246c.578-.157 1.16-.305 1.73-.473-.581.168-1.16.324-1.73.473Zm60.11 7.062c-.246-.492-.492-.972-.739-1.465.461.086.914.188 1.375.266-.214.402-.43.805-.636 1.2Zm21.722-11.715c-.402.012-.804.012-1.21.012-.43-.348-.864-.7-1.297-1.055.445-.316.894-.64 1.34-.953.382.668.773 1.336 1.167 1.996Zm-3.234 2.215c.355-.355.7-.71 1.05-1.062-.35.363-.695.714-1.05 1.062Zm-115.559-48.23c.512-.793 1.036-1.57 1.555-2.348a117.548 117.548 0 0 0 2.36 4.102 130.955 130.955 0 0 1-3.915-1.754ZM420.52 292.16c-.383.492-.747.992-1.13 1.492.688.602 1.364 1.211 2.012 1.84-3.98 1.25-8.273-.765-12.777.09 1.484-.52 2.988-1.004 4.492-1.457.375-.39.766-.785 1.14-1.18a90.153 90.153 0 0 1 6.263-.785Zm-17.29-1.418c-.05.582-.12 1.16-.187 1.742.066-.582.137-1.16.187-1.742Zm-77.636 170.313c.699-.676 1.394-1.368 2.094-2.035.277.394.55.796.824 1.19-.973.286-1.946.56-2.918.845Zm-.375-4.22c.492.435.976.868 1.465 1.302-.48-.426-.973-.856-1.465-1.301Zm-1.07-108.187c.906-.011 1.8-.011 2.695 0a73.427 73.427 0 0 0-.531 3.032 62.147 62.147 0 0 0-2.555-.07c.105-.985.242-1.97.39-2.962Zm-7.126 76.329c.106-.817.227-1.633.344-2.438.434-.059.856-.121 1.29-.18-.11.809-.208 1.625-.317 2.43-.442.05-.875.121-1.317.188Zm87.266-133.891c-.047.355-.105.71-.176 1.062.07-.351.117-.699.176-1.062Zm-85.98 137.68c.324-.059.64-.11.957-.16-.141.562-.266 1.12-.407 1.683-.183-.5-.363-1.012-.55-1.523Zm53.043 86.949c.007-.727.007-1.453.039-2.184-.375.07-.746.14-1.121.207.601-.687 1.199-1.386 1.78-2.093.45-1.239.915-2.47 1.376-3.707a132.353 132.353 0 0 0-.973 3.902c.41.828.844 1.644 1.297 2.45.227-.513.453-1.013.68-1.524-.102.933-.188 1.859-.258 2.793a51.8 51.8 0 0 1-2.82.156Zm-54.426-96.64Zm10.566-74.009c.235-.02 2.399-.214 2.418-.222.02-.012.453-.063.512-.07-.012.09-.02.292-.05.374-.028.125-.048.774-.048.954.164.007 1.64.117 1.66.109.028-.012.551.008.63.02-.169-.043-.778-.141-.887-.188-.649-.285-3.372-.797-4.235-.977Zm36.113 165.989a95.23 95.23 0 0 1 .336-2.98c.383.109.766.214 1.149.312l-1.485 2.668ZM318.793 364.69c.293-.156.578-.304.855-.46.59.343 1.18.675 1.758 1.019-.816.387-1.613.797-2.406 1.21-.082-.589-.14-1.179-.207-1.769Zm5.937-6.628c-.875.351-1.742.718-2.605 1.109.55-1.996 1.18-3.961 1.895-5.902a80.286 80.286 0 0 0 1.789 4.023c-.372.258-.735.504-1.079.77Zm102.446-61.497c.5.641 1 1.297 1.484 1.965-.77-.293-1.543-.57-2.32-.836.273-.382.558-.754.836-1.129Zm35.238 191.649-1.465-.828c.051-.04.453-.403.461-.41.04-.012.7-.622.79-.7.038.332.097 1.149.175 1.426.02.059.027.414.04.512ZM333.172 342.578c-.746.445-1.485.918-2.211 1.387.414-1.406.867-2.8 1.355-4.188.68.196 1.36.403 2.028.61-.485.254-.946.531-1.406.804.066.454.156.914.234 1.387Zm91.426 174.399c-.215-.395-.442-.79-.657-1.18-.925.086-1.84.164-2.761.215a66.489 66.489 0 0 0 3.617-2.992c.312.816.637 1.632.953 2.449-.383.504-.77 1.015-1.152 1.508Zm-72.317-16.438a84.98 84.98 0 0 1-.129-3.453c.375.394.75.789 1.121 1.16.914-.785 1.82-1.582 2.723-2.379.77-.031 1.535-.078 2.3-.137.286.598.59 1.188.895 1.79-1.148.609-2.308 1.199-3.468 1.761-.02.895-.032 1.79-.02 2.676-.453.047-.906.098-1.355.137a71.796 71.796 0 0 1-.797-2.164c-.414.207-.836.414-1.27.61ZM320.79 368.871a76.254 76.254 0 0 0-1.988 2.734 88.45 88.45 0 0 1 1.988-2.734Zm110.14-69.422c-.011.227-.019.461-.03.688-.305-.246-.61-.504-.915-.746.305.02.621.039.946.058Zm11.009 207.524c.44-.446.886-.895 1.316-1.36-.43.453-.875.907-1.317 1.36Zm-13.958 7.918a109.8 109.8 0 0 0 .364-3.02 60.051 60.051 0 0 1-.364 3.02Zm-67.628-9.02a58.244 58.244 0 0 0 2.242-.777c-.278.48-.551.965-.828 1.445-.47-.215-.942-.441-1.414-.668Zm-11.707-11.242c.582-.492 1.171-.996 1.75-1.488a41.616 41.616 0 0 0-.383 1.566c-.473-.02-.926-.05-1.367-.078Zm56.335-200.285c.118.293.254.61.383.914a12.722 12.722 0 0 0-.668-.492c.106-.149.196-.286.285-.422Zm-74.656 166.91c1-.129 2.004-.258 2.996-.395.078.532.157 1.055.246 1.575-.207-.235-.421-.48-.628-.727-.532.461-1.063.922-1.583 1.375-.343-.61-.699-1.219-1.03-1.828Zm16.059-133.45a380.123 380.123 0 0 0 2.91 3.544c-.324-.13-.656-.266-.98-.395a99.491 99.491 0 0 0-.7 2.93c.578.375 1.14.75 1.711 1.12-.531.524-1.062 1.044-1.582 1.575-.492-.265-.984-.531-1.484-.797.066-1.219.176-2.43.293-3.636.414-.239.824-.485 1.25-.711-.668-.579-1.34-1.168-2.008-1.75.2-.641.394-1.258.59-1.88Zm6.176-4.925c.086.629.183 1.246.273 1.879-.09-.621-.176-1.25-.273-1.88Zm-22.098 136.89c.383-1.468.797-2.921 1.219-4.367a122.575 122.575 0 0 0 1.875 4.2c-1.032.058-2.063.117-3.094.168Zm-7.531-95.933c.453-.012.906-.031 1.355-.031.238.699.485 1.398.73 2.086-.296.218-.6.433-.894.648-.433-.441-.867-.883-1.3-1.328.03-.461.062-.922.109-1.375Zm29.285-37.242Zm-25.578 30.394c1.07.563 2.152 1.114 3.234 1.672a64.633 64.633 0 0 0-2.508 3.492c-.383-.234-.765-.46-1.148-.695a77.194 77.194 0 0 1-.777-3.355c.394-.375.796-.75 1.199-1.114Zm50.05 156.063a69.072 69.072 0 0 1-2.269-1.336 115.36 115.36 0 0 0 1.984-2.363c.305.867.641 1.722.985 2.566-.227.375-.453.758-.7 1.133Zm-12.542-6.836c-.086-.738-.165-1.477-.235-2.215.246-.215.492-.441.727-.656.168.511.718 1.797.797 2.21.02.071.148.376.187.466-.078.02-.5.058-.55.066-.079.031-.778.11-.926.129Zm-1.856-2.164c.461.078.941.168 1.414.226a22.161 22.161 0 0 1-1.414-.226Zm-38.976-81.602c.464.117.914.227 1.378.344-.18.297-.355.59-.523.894-.285-.41-.57-.824-.856-1.238Zm-1.817-30.777c.324.926.656 1.84.992 2.754-.336-.914-.68-1.828-.992-2.754Zm14.774-48.926c.136-.187.285-.383.421-.558.266.207.543.41.817.617-.195.257-.395.511-.578.777-.227-.285-.446-.559-.66-.836Zm-.317 5.707c-.039.047-.137.227-.176.254-.148.148-.597.914-.738 1.14.09-.148.719-1.07.738-1.14.012-.02.157-.227.176-.254Zm-4.96 99.137c.273-.973.558-1.945.855-2.91.617.965 1.257 1.918 1.894 2.863-.914.027-1.836.039-2.75.047Zm21.593-117.414c.48-.137.965-.266 1.445-.395-.148-.285-.285-.558-.433-.844a99.947 99.947 0 0 1 2.93-.718c.265.195.542.394.808.61-.258.765-.504 1.534-.75 2.312.531-.297 1.062-.582 1.594-.868.207.118.402.247.61.364-.208.57-.403 1.152-.603 1.734.395.254.79.5 1.18.766a109.98 109.98 0 0 0-1.965 1.652c-.675-1.012-1.355-2.027-2.023-3.039-.59.215-1.18.441-1.77.668a284.9 284.9 0 0 1-1.023-2.242Zm7.047-6.04a75.763 75.763 0 0 1 3.097-.253c.383.402.786.816 1.172 1.226-.964.426-1.918.848-2.882 1.301-.454-.77-.922-1.515-1.387-2.273Zm-2.406 3.52c.234-.183.472-.383.707-.57.09.492.187.984.277 1.488-.328-.304-.66-.61-.984-.918Zm-20.082 22.574c-.07.512-.13 1.036-.188 1.547.059-.511.129-1.035.188-1.547Zm38.55-33.382c.493.226.973.453 1.457.687-.59.453-1.172.918-1.761 1.367.097-.675.207-1.367.304-2.054Zm21.047-9.766c.48.41.942.836 1.406 1.258-.453-.422-.925-.836-1.406-1.258Zm6.613-2.086c.04 1.14.079 2.27.11 3.414-.305-.7-.598-1.398-.914-2.098.285-.433.55-.875.804-1.316Zm58.95 44.086c-.922-2.41-1.914-4.8-3.008-7.152a125.811 125.811 0 0 1 3.008 7.152Zm-65.996-41.105c-.247 1.062-.5 2.125-.747 3.187.254-1.062.5-2.125.747-3.187Zm74.824 86.046Zm.617 11.282c-.02.285-.164 1.593-.137 1.77.149.956-1.05 10.85-1.16 12.995a115.19 115.19 0 0 0-.098-5.57c.079-.785.422-7.348.454-7.387.007-.02.007-1.09.007-1.207.305-.207.622-.394.934-.601Zm-3.223 18.59c.149-.57.297-1.149.442-1.72.336.028.668.06 1.015.079-.484.558-.964 1.11-1.457 1.64Zm-78.597 79.742Zm78.59-77.086c.066-.578.136-1.172.203-1.75-.067.578-.137 1.172-.203 1.75Zm-.473 5.676Zm-.117.668c-.278.828-.563 1.652-.856 2.468a96.185 96.185 0 0 0-.465-2.715c.446.09.875.168 1.32.247Zm-1.567 5.695c-.008-.371-.008-.758-.027-1.13.008.372.02.747.027 1.13Zm-2.996 3.648a75.21 75.21 0 0 0 1.848-3.02c.336-.007.668-.007.992-.019a79.943 79.943 0 0 1-2.84 3.04Zm1.809 2.293a101.356 101.356 0 0 1-2.89 3.602c.48-1.418.925-2.844 1.335-4.29.524.227 1.043.462 1.555.688Zm-5.153 13.114c.524-1.989.977-3.985 1.387-6a101.852 101.852 0 0 1-1.387 6Zm-93.156-126.907Zm101.524 69.137c-.317.375-.63.738-.946 1.113.317-.375.63-.73.946-1.113Zm-.13 3.09c-.55-.04-1.1-.078-1.66-.117.415-.375.837-.75 1.247-1.125.148.414.277.816.414 1.242Zm-.835-5.992c.031.246.05.484.078.73-.125-.07-.246-.14-.371-.207-.305.207-.621.402-.934.61-.031-.422-.078-.856-.117-1.29.441.059.895.11 1.344.157Zm-.156 20.324Zm-11.454 45.453c-.027-.71-.058-1.41-.097-2.117.039.707.078 1.406.097 2.117Zm11.375-43.754c-.02.363-.05.719-.07 1.082.02-.363.05-.726.07-1.082Zm-14.175 47.48a28.521 28.521 0 0 0-.903-.511c.285-.227.551-.453.836-.68.028.395.047.79.067 1.192Zm-43.957-154.331c-.09.394-.196.796-.305 1.19.098-.394.207-.796.305-1.19Zm38.296 162.445c-.218-.086-.44-.176-.66-.254.297-.402.582-.809.875-1.219-.078.492-.136.98-.215 1.473ZM408.41 312.727c-.031.816-.07 1.632-.11 2.449-.331-.235-.655-.461-1.003-.68.387-.578.758-1.168 1.113-1.77Zm55.555 123.109c-.352-.008-.695-.008-1.05-.027.179-.817.343-1.633.503-2.45.195.825.371 1.653.547 2.477Zm-1.817 4.73Zm-1.78 6.051Zm-12.071 24.945c-.195.473-.402.922-.617 1.395.207-.473.414-.922.617-1.394Zm-7.902 8.981c.375-.258.746-.512 1.12-.777-.374.254-.745.511-1.12.777Zm-1.227 2.289c-.711.266-1.426.512-2.145.75a43.617 43.617 0 0 0 2.145-.75Zm20.531-35.371c-.363.465-.746.918-1.12 1.371.374-.453.757-.918 1.12-1.371Zm-1.12 2.246c-.657.254-1.325.512-1.993.758.39-.434.793-.867 1.187-1.3.07.097.137.218.196.323.207.07.406.149.61.219Zm-82.423 42.61c.77.226 1.535.44 2.301.64-.766-.187-1.531-.414-2.3-.64Zm-2.84-2.774c.317.105.622.215.926.324-.305-.117-.61-.219-.926-.324Zm50.036 2.644c.324-.175.648-.363.96-.539-.324.176-.636.364-.96.54Zm-21.696 6.415c.64-.344 1.258-.707 1.88-1.094a42.78 42.78 0 0 1-1.88 1.094Zm-8.894-1.465c.246.148.5.273.754.422-.254-.149-.508-.274-.754-.422Zm23.414-1.438Zm-2.32.746c.578-.175 1.16-.351 1.738-.539-.59.188-1.168.375-1.739.54Zm-64.817-43.562c-.137-.375-.277-.746-.414-1.121.54-.196 1.082-.383 1.621-.582.2.265.395.543.59.808-.598.293-1.2.598-1.797.895Zm63.566 43.613.887-.234c-.297.078-.59.164-.887.234Zm-3.027.305Zm-69.543-107.547c.027-.356.246-2.59.215-2.734-.008-.051.11-.918.129-1.043-.012.105-.117 1.03-.129 1.03-.02.052-.195 2.47-.215 2.747Zm5.426-21.555Zm2.723-5.683c.168.394.343.785.511 1.18a76.898 76.898 0 0 0-.511-1.18Zm9.003-8.793c.149.66.293 1.316.473 1.976-.18-.66-.336-1.316-.473-1.976Zm51.067-31.38c.203.266.41.544.617.829-.234.078-.48.168-.726.254.039-.363.078-.719.109-1.082Zm-9.8 7.528c.843.707 1.679 1.426 2.495 2.152-.668-.207-1.347-.382-2.015-.57-.168-.52-.325-1.05-.48-1.582Zm6.948-1.476c.118.293.235.59.352.886-.184.067-.363.137-.531.203-.203-.156-.422-.304-.63-.449.266-.207.544-.426.81-.64Zm-3.343 1.69c.336-.136.66-.276.984-.413.066.344.148.687.215 1.035a17.284 17.284 0 0 0-1.2-.621Zm123.02 6.65a193.214 193.214 0 0 0-3.384-5.419c.11-.628.207-1.27.305-1.898a178.427 178.427 0 0 0-4.57-7.379 168.834 168.834 0 0 0-3.586-9.64c.855.671 1.699 1.359 2.543 2.046 3.433 7.29 5.949 14.754 8.691 22.29Zm-63.915 212.05a288.22 288.22 0 0 0-.98-2.941 143.05 143.05 0 0 0 5.511-2.035 136.342 136.342 0 0 0 5.418-5.207 125.473 125.473 0 0 0 7.59-7.395 137.56 137.56 0 0 0 4.934-3.441 142.353 142.353 0 0 0 5.09-5.45 140.884 140.884 0 0 0 3.039-2.492c-1.368.258-2.735.485-4.11.692a147.92 147.92 0 0 0 6.172-8.61.53.53 0 0 0 .078-.125c.07.086.246.364.305.41.238.22 1.23 1.82 1.484 2.207.102-.246.22-.613.336-.828.176-.336.395-1.03.531-1.418 1.368-.351 2.711-.714 4.06-1.101a141.77 141.77 0 0 0 4.128-4.395c-.176.68-.355 1.367-.54 2.035-.472.817-4.632 7.457-4.66 7.536-.01.058-.972 1.445-1.09 1.613-.218-.442-.433-.895-.66-1.328-.472.816-.952 1.633-1.433 2.437-.906.082-1.808.14-2.715.207.602.317 1.192.63 1.79.946-.274.699-.56 1.406-.856 2.105-1.14.48-2.29.934-3.441 1.375 1.503 5.246-7.852 7.606-10.625 12.266-.293-.325-.598-.657-.883-.98-.356.323-.719.648-1.082.96a124.245 124.245 0 0 1-3.578 6.485c-1.918-.051-3.825-.13-5.723-.266.187.844.363 1.691.531 2.547a134.42 134.42 0 0 1-5.07 2.273c-.258.973-.531 1.946-.817 2.91a98.865 98.865 0 0 1-3.863-.718 94.88 94.88 0 0 1-.394 2.992c-1.817.039-3.637.039-5.454-.012a116.3 116.3 0 0 0 4.7-4.21c.765.327 1.523.651 2.277.956Zm-2.398-281.148a83.244 83.244 0 0 0-3.567-.098 100.193 100.193 0 0 0-5.8-3.937c3.578 1.644 6.792 3.336 10.195 5.312l.039.031c13.023 2.125 20.328 18.72 30.492 24.973a120.654 120.654 0 0 0-5.781-7.918c-.48-.031-.953-.059-1.426-.078-4.965-5.586-10.191-10.95-15.148-16.547.562-.824 1.132-1.66 1.703-2.488 7.293 4.457 12.011 12.082 18.586 17.636.601 1.133 1.18 2.282 1.742 3.446-.258.383-.512.765-.77 1.14.817.246 1.645.52 2.45.786a125.949 125.949 0 0 1 4.699 5.222 29.615 29.615 0 0 0-.946-.597c.454 2.023 3.332 7.757 4.79 9 1.265 1.082 4.855 7.27 5.523 8.988 4.926 8.883 11.195 21.039 11.777 31.281-.465.027-.918.066-1.379.098.098.304.207.617.305.933.512-.168 1.023-.324 1.535-.492 3.824 7.809 4.934 18.582 6.063 27.188-.422.175-.832.363-1.258.55.789.602 1.562 1.23 2.34 1.848 1.976 10.793 2.21 19.793 2.054 30.68.239.937-.332 10.152-.422 11.863.215.914.422 1.82.618 2.734-.364.75-.715 1.516-1.09 2.262-.047 3.336-.207 6.68-.461 10.004a54.35 54.35 0 0 1-1.102 1.219c.395.492.785.984 1.168 1.488-2.437 7.309-2.23 21.738-8.234 26.617.473.332.941.676 1.414 1.02-.047.562-.11 1.133-.168 1.695a166.378 166.378 0 0 1-4.539 7.277c.305.11.598.215.902.336a140.793 140.793 0 0 1-2.879 3.04c-.148-.524-.296-1.036-.453-1.555.395 1.406.766 2.812 1.121 4.238a166.383 166.383 0 0 1-4.168 9.356c-.52.332-1.043.667-1.562.992a164.083 164.083 0 0 1-3.676 7.722c-3.39 4.918-6.683 11.332-10.902 15.473.11-.7.219-1.406.316-2.105-.867-.493-1.722-.997-2.578-1.497-.078.356-.48 1.938-.48 2.145 0 .008-.028.11-.04.137.137.078.856.465.926.53.078.08.961.571 1.13.669-.02.012-.15.07-.15.07-.066.09-4.128 1.95-4.577 2.156-.18.422-.356.844-.532 1.266.903.465 1.797.918 2.692 1.36a136.673 136.673 0 0 1-6.723 7.218 118.85 118.85 0 0 1-4.523 2.254c.082.707.148 1.414.207 2.133a122.975 122.975 0 0 1-5.043 4.625c-.403-.809-.805-1.613-1.219-2.43a117.48 117.48 0 0 1-6.82 5.942c.66-.07 1.316-.149 1.976-.239.344.286.696.563 1.051.848-1.535.215-3.066.402-4.621.559-.008.562-.027 1.12-.047 1.683-.465.324-.926.649-1.387.973a92.313 92.313 0 0 1-4.03-.5 107.683 107.683 0 0 1-7.313 8.183c-.07-.582-.137-1.16-.215-1.75-.13.008-.63.04-.711.067-.707.226-5.188.394-6.23.422a90.271 90.271 0 0 1-1.86 3.336 86.092 86.092 0 0 1-3.172-.461c-.05.5-.101.992-.16 1.492a102.938 102.938 0 0 1-10.527 3.453c-.067-.668-.125-1.336-.207-2.016a43.401 43.401 0 0 1-1.383-1.296c-.66.175-1.309.332-1.957.492.246.59.5 1.18.758 1.77a96.623 96.623 0 0 1-2.547 3 90.443 90.443 0 0 1-4-.298c-.11-.648-.22-1.296-.336-1.945-.117.688-.235 1.387-.364 2.074a98.397 98.397 0 0 1-7.656 1.996c-.324-.765-.629-1.535-.933-2.3a75.628 75.628 0 0 1-2.684 1.504 51.29 51.29 0 0 0-.07-1.329 68.503 68.503 0 0 0 3.027-1.523c-.156-.316-.312-.629-.46-.945a70.274 70.274 0 0 1-2.184-2.125 108.898 108.898 0 0 1-3.196 6.414c-.144-.442-.293-.883-.422-1.328-.824.02-1.652.02-2.464.02-.13.542-.278 1.081-.415 1.632a92.854 92.854 0 0 1-2.949-.066c.403-.434.805-.856 1.211-1.301-.387-.235-.75-.48-1.12-.727-.485.559-.954 1.11-1.446 1.66a14.696 14.696 0 0 0-.797-.164c-.07 0-.875-.187-1.004-.226-.883.246-1.77.492-2.652.718.894-.226 1.77-.472 2.652-.718a108.366 108.366 0 0 1-6.8-1.742c-.317.628-.641 1.25-.966 1.867a99.348 99.348 0 0 1-2.949-4.188c3.254.57 6.527.985 9.813 1.239-1.387-.305-2.782-.641-4.16-.993-.403-.629-.817-1.25-1.208-1.89-.765.57-1.554 1.133-2.332 1.683a95.219 95.219 0 0 1-2.27-3.09 133.57 133.57 0 0 1-4.038 5.98 102.704 102.704 0 0 1-14.078-3.706c-.098.55-.196 1.11-.285 1.672-1.18-.188-2.368-.395-3.547-.621-.5-1.043-.985-2.094-1.453-3.157a100.468 100.468 0 0 1-11.81-6.02c.364-.155.731-.316 1.095-.472-.02-.68-.04-1.355-.051-2.027a106.292 106.292 0 0 1-3.352-1.64c-.64.37-1.277.745-1.925 1.109-.137-.125-.934-.875-1.004-.914-.196-.098-1.996-1.88-2.29-2.172.657-1.29 1.329-2.578 1.997-3.867-.828.62-1.672 1.218-2.52 1.82a349.7 349.7 0 0 1-1.59-1.219 364.943 364.943 0 0 0-2.093 3.785 121.447 121.447 0 0 1-1.024-4.191c-6.371-5.82-13.93-12.922-17.91-20.653.219-.601.434-1.203.66-1.8-1.05-.297-2.105-.621-3.144-.946-1.36-.57-2.704-1.16-4.032-1.78.5-.462 1.012-.915 1.512-1.368a147.316 147.316 0 0 1-3.781-5.203c-.297-.57-1.035-2.184-1.34-2.586-.57-.758-2.27-4.899-2.762-6.04.809.333 1.621.657 2.438.966.789-1.27 1.594-2.54 2.418-3.79.207.602.414 1.2.629 1.79-.391.011-.786.011-1.18.03.906.954 1.82 1.9 2.762 2.833-.313-.758-.63-1.504-.934-2.262.348-.297.691-.61 1.043-.914a159.697 159.697 0 0 1-3.785-2.914c.426-.914.836-1.816 1.27-2.734.394.316.796.613 1.187.906.75-1.457 1.516-2.91 2.312-4.356-1.355.254-2.703.5-4.058.735a342.377 342.377 0 0 0-6.156 4.793c-.48-.711-.954-1.426-1.414-2.145.59-.601 1.187-1.18 1.789-1.77-.875-.316-1.75-.632-2.614-.956.008-1.051.047-2.106.086-3.156a168.558 168.558 0 0 1-2.976-4.614 146.45 146.45 0 0 0 5.433 4.535c.239-.02.465-.03.7-.05.382-.247.757-.493 1.14-.747.11-.847.227-1.703.352-2.546-.145-.934-.274-1.871-.41-2.813-.454.067-.907.137-1.36.203-.223-.597-.46-1.199-.687-1.797-.43.079-.875.164-1.305.246a181.277 181.277 0 0 1-3.137-1.585c-.601 1.23-1.191 2.46-1.77 3.699-.55-.817-1.09-1.645-1.62-2.469-.414.156-.829.293-1.239.441-.187-.863-.375-1.73-.55-2.597.597-.324 1.199-.637 1.789-.953.253-1.297.53-2.586.816-3.875a191.616 191.616 0 0 1-2.605-4.926c1.07.176 2.14.344 3.222.512.344.695.688 1.386 1.043 2.082.227-1.473.48-2.93.746-4.395a170.831 170.831 0 0 1-1.484-4.035 208.59 208.59 0 0 1-.02-4.14 218 218 0 0 0 .524 8.46 80.972 80.972 0 0 1-1.102-1.484c-.836.234-1.672.469-2.496.695-.387.719-.77 1.438-1.152 2.164a181.77 181.77 0 0 1-1.692-4.976c.434-.11.856-.227 1.29-.332-.356-1.34-.688-2.676-1.024-4.016 1.102-.066 2.203-.148 3.305-.227.578-.441 1.16-.894 1.73-1.328-.394-.695-.789-1.406-1.18-2.113-.53.117-1.062.246-1.582.363-.347.48-.68.965-1.015 1.446a199.789 199.789 0 0 1-2.301-5.852c-.852-.215-1.7-.453-2.555-.68.207-3.511.485-7.043.836-10.543.688-.523 1.387-1.03 2.086-1.554-.55-.11-1.12-.227-1.683-.344a224.368 224.368 0 0 1-3.625-6.934c-.266-.386-.543-.77-.809-1.16.504-.57 1.016-1.144 1.523-1.715a324.877 324.877 0 0 1-2.378-7.218c.464.175.914.343 1.378.523a249.735 249.735 0 0 1-1.18-7.762c-.097-1.898-.179-3.797-.238-5.707.75 2.922 1.555 5.844 2.418 8.735.79.355 1.575.71 2.372 1.062-.059.61-.11 1.223-.157 1.832 1.051-.691 2.114-1.367 3.172-2.039-.469-.37-.941-.734-1.402-1.11.363-1.386.726-2.753 1.11-4.132a247.781 247.781 0 0 1-5.477-3.777c.777.277 1.543.562 2.32.828-.04-1.024-.066-2.055-.098-3.078-.785-.524-1.554-1.036-2.328-1.567.184-2.308.39-4.633.63-6.933.745.09 1.503.187 2.257.277a234.567 234.567 0 0 0 5.348 5.262c.343-.414.68-.828 1.023-1.239-.785-.296-1.563-.593-2.348-.898.106-.5.215-1.012.332-1.523a265.552 265.552 0 0 1-4.597-4.782c-.395-.086-1.594-.449-1.899-.472-.258-.02-1.71-.48-2.086-.59.149-1.227.317-2.45.504-3.668-.414-.617-.828-1.23-1.23-1.848a97.01 97.01 0 0 0-2.153 2.8c-.05-1.632-.058-3.245-.039-4.886.532.422 1.063.856 1.614 1.27a107.994 107.994 0 0 1 2.562-10.192c.395.305.797.602 1.192.907.46-.856.945-1.711 1.433-2.559a93.471 93.471 0 0 1 4.504-5.195c-.258-.39-.512-.785-.766-1.18-.75.246-1.496.504-2.234.77.04-.563.09-1.114.14-1.672.727.195 1.446.382 2.18.57a108.743 108.743 0 0 1 2.922-14.727c-.64-.136-1.27-.293-1.91-.433a138.49 138.49 0 0 1-1.394-2.742 105.823 105.823 0 0 1 3.46-4.918 103.842 103.842 0 0 0-2.308 3.972c.45.078.894.157 1.355.235.707-1.551 1.454-3.086 2.243-4.61 1.601-.73 3.23-1.41 4.882-2.039a108.5 108.5 0 0 0-3.968 7.774c.164.402.324.816.488 1.226a80.565 80.565 0 0 1 3.578-2.043c1.867-4.281 3.953-8.047 6.234-12.101.067-.274 2.32-4.012 2.664-4.614 1.641-1.16 3.32-2.27 5.032-3.332a119.563 119.563 0 0 1 2.98-4.043 477.782 477.782 0 0 1-3.648-4.445c1.316-1.289 2.664-2.55 4.031-3.777a154.813 154.813 0 0 0 2.074 7.937 136.048 136.048 0 0 1 3.067-8.933 147.97 147.97 0 0 1-.512-3.207c.598-.57 1.2-1.13 1.816-1.692.532-.027 1.082-.058 1.625-.078-.09 1.113-.18 2.223-.246 3.344-.512.484-1.023.965-1.523 1.45a121.459 121.459 0 0 1 6.21-3.427 154.002 154.002 0 0 0-4.187-1.593c.442-1.297.926-2.586 1.395-3.883.297.332.582.676.867 1.011 1.367-.886 2.742-1.73 4.148-2.566.473-.816.942-1.633 1.426-2.441.195.406.402.808.598 1.222 1.191-.367 2.39-.73 3.59-1.062a171.463 171.463 0 0 0-.258 3.98c-.758.86-1.512 1.723-2.25 2.598 1.582-.875 3.195-1.711 4.816-2.527-.422-.09-.844-.168-1.27-.247a122.71 122.71 0 0 1 4.024-2.105c.195-.156.875-.656.992-.805.578-.68 4.914-3.62 5.938-4.34 1.09.602 2.172 1.231 3.254 1.86.37-.637.765-1.27 1.136-1.899-.527-.578-1.058-1.148-1.582-1.718a175.28 175.28 0 0 1 7.442-3.926 232.085 232.085 0 0 1 3.265-2.922c.403.777.817 1.555 1.227 2.332-.727.766-1.465 1.535-2.191 2.313a159.211 159.211 0 0 1 8.394-3.614 167.872 167.872 0 0 0-2.898-1.886c1.465-.965 2.937-1.93 4.433-2.864.688.168 1.383.336 2.075.512-.07.383-.13.77-.207 1.152.187.168.37.332.558.493 1.05-1.082 2.125-2.157 3.176-3.227.933.066 1.86.156 2.781.254-.371-.086-.746-.188-1.129-.266.227-1.289.442-2.586.668-3.875a232.89 232.89 0 0 0-8.937 4.36c-.676-.907-1.364-1.801-2.051-2.696.766-.511 1.543-1.004 2.308-1.515-.492-.258-.992-.524-1.496-.778.485-.336.965-.648 1.438-.972a276.95 276.95 0 0 1 2.16 2.988c.453-1.406.887-2.824 1.34-4.23.894.464 1.789.937 2.672 1.425 1.27-.304 2.535-.59 3.812-.855.278.957.551 1.91.828 2.863.98.906 1.946 1.82 2.891 2.754l-.562-2.242c.68-.375 1.367-.746 2.054-1.11.266.707.543 1.414.805 2.122.465-.637.926-1.286 1.379-1.938a41.52 41.52 0 0 1 4.64 1.516c-.199-1.801-.406-3.59-.601-5.371-.992.453-1.996.914-2.988 1.378l.117-3.562a99.59 99.59 0 0 0 .433-1.867c.993.312 1.985.68 2.95 1.101-.13.383-.258.778-.383 1.16.37.7.746 1.407 1.11 2.114-.208.168-.415.336-.618.504.273 1.18.57 2.37.852 3.55.472-.03.945-.05 1.406-.07.031.797.05 1.594.058 2.39a23.61 23.61 0 0 0-1.64-.44c-.047.824-.106 1.652-.168 2.476.219.394.426.789.64 1.184.364.105.72.214 1.082.332.383.914.766 1.828 1.141 2.746a55.804 55.804 0 0 0-1.121-1.036 49.362 49.362 0 0 1-1.336 1.555c.863 1.2 1.7 2.422 2.535 3.64l1.012-.355a94.62 94.62 0 0 1-2.152 1.782c.07-.602.128-1.18.195-1.782-.352-.214-.707-.441-1.07-.648.007 1.043.03 2.086.03 3.129 1.317.047 2.641.156 3.962.344-.051-.7-.102-1.387-.149-2.086.274-.188.54-.375.817-.563.863.613 1.699 1.27 2.484 1.988-.332.364-.687.707-1.05 1.055.187.402.363.817.542 1.219-.11.598-.218 1.21-.336 1.808-.136-.421-.285-.843-.422-1.27-.57.188-1.12.388-1.69.583.206.758.413 1.516.616 2.273a37.192 37.192 0 0 0-4.105-1.714 41.49 41.49 0 0 1 4.57 2.59c.027.804.059 1.593.086 2.398-.266.336-.527.668-.805.992.336.719.66 1.45.985 2.164a157.986 157.986 0 0 1-4.11 3.66l.118-2.172a78.353 78.353 0 0 0 1.503-2.039 944.674 944.674 0 0 0-2.703-6.047c-1.004.372-2.004.766-3.007 1.16.175.649.343 1.278.519 1.926-.5.336-.992.672-1.492 1.004-.324-.351-.66-.687-.992-1.031.078 1.27.144 2.54.226 3.816-.59-.226-1.191-.46-1.781-.668.059 1.043.11 2.094.168 3.137.512.02 1.012.04 1.523.07-.52 1.68-1.043 3.372-1.562 5.055.285.235.57.48.863.727-.344 1.84-.676 3.687-1 5.539a55.16 55.16 0 0 0-1.89-.57c-1.61.656-3.211 1.347-4.805 2.054-.442.48-.863.953-1.297 1.426-.707-.02-1.406-.02-2.113-.02a174.65 174.65 0 0 1 5.484-3.207c-1.73.364-3.469.77-5.18 1.211-.296-.097-.57-.195-.855-.297-.137-.675-.277-1.355-.402-2.035 1.277-.699 2.574-1.375 3.87-2.035.286.356.571.7.856 1.05.895-1.062 1.809-2.1 2.715-3.155-1.074.011-2.145.05-3.215.09-.168.578-.336 1.16-.492 1.738 1.16-2.555 2.36-5.102 3.559-7.64-.758-.032-1.516-.032-2.282-.04.266-.363.54-.719.805-1.074a60.835 60.835 0 0 0-1.926-1.277c-.433.316-.855.648-1.285.964-.367-.324-.73-.64-1.094-.953.219-.957.434-1.91.649-2.863a521.648 521.648 0 0 0-1.926 3.148 204.953 204.953 0 0 1 4.258 3.766c-.406-.156-.817-.324-1.23-.492.195.394.382.797.581 1.2a299.578 299.578 0 0 0-2.882-2.99c-1.325.028-2.653.098-3.97.177-.238.48-.472.972-.71 1.457a83.15 83.15 0 0 1 2.398.992c-2.761.039-5.511.187-8.265.422.336.582.66 1.14.992 1.722a164.71 164.71 0 0 0-9.434 7.094c.942.54 1.895 1.102 2.828 1.66-.707.582-1.62 1.29-2.257 1.918-.102.098-.2.188-.286.278.137.02.41.078.54.078.156.007.382-.032.538-.04l-.421.215c-.02 0-1.102.473-1.227.524-.101-.531-.434-2.746-.562-3.07 0 0 0-.157.011-.168-.011 0-.09.05-.09.05-.343-.03-6.941 2.594-7.753 2.942-.63-.79-1.258-1.574-1.88-2.363.317-.247.641-.5.954-.747.61.375 1.219.747 1.82 1.122.184-.422.371-.829.559-1.25a253.839 253.839 0 0 0-3.203-1.743c-.512.555-1.012 1.114-1.516 1.676.906 1.387 1.808 2.774 2.715 4.16-.504.41-1.012.824-1.516 1.246-.539-.402-1.09-.816-1.64-1.218.167.718.355 1.437.53 2.144a126.46 126.46 0 0 0-2.78 3.383 46.922 46.922 0 0 1-1.102-.805c-.688.336-1.375.668-2.066 1.012-.254-.371-.52-.738-.766-1.11.187-1.406.394-2.812.629-4.21a105.16 105.16 0 0 0-3.883 1.91c.2.558.395 1.129.61 1.691-.532.688-1.051 1.375-1.57 2.074-.958.04-1.919.079-2.872.137.332-1.012.687-2.015 1.043-3.02a146.673 146.673 0 0 1-1.938-4.21c-.68.218-1.355.445-2.027.672-1.18-1.16-2.348-2.313-3.527-3.465-.953.148-1.906.316-2.86.492 1.375 1.3 2.75 2.605 4.137 3.906-.066.844-.117 1.7-.148 2.547 1.152.05 2.293.117 3.441.207.078.688.176 1.387.266 2.074.718 1.035 1.433 2.067 2.172 3.098-.391.906-.766 1.82-1.13 2.734.676.246 1.356.485 2.036.739-.434.304-.856.609-1.278.914.489.64.98 1.261 1.485 1.898.039-.933.086-1.855.144-2.793 1.29-.273 2.579-.539 3.875-.765a90.96 90.96 0 0 0-.66 5.164 78.272 78.272 0 0 1 3.324-.758c.391.234.797.48 1.18.726-.492.996-.965 2-1.418 3.012a89.278 89.278 0 0 0-1.906 5.606c.621.816 1.25 1.632 1.887 2.43a82.032 82.032 0 0 1 4.504-1.485c-.375-.403-.758-.809-1.133-1.211.797-1.16 1.613-2.3 2.46-3.434.669.426 1.344.848 2.024 1.27 2.586-2.844 5.477-4.84 8.797-6.7.441.512.875 1.005 1.309 1.516a97.31 97.31 0 0 1-.57-3.894c.273-.098.558-.188.843-.285-.188-.993-.371-1.997-.531-3 .629.785 1.258 1.582 1.886 2.37.75-.187 1.497-.363 2.243-.53 1.277.53 2.558 1.09 3.816 1.66-.816-.747-1.633-1.504-2.46-2.25.874-.532 1.769-1.055 2.655-1.567.356.719.7 1.45 1.051 2.156.422 1.18.867 2.352 1.317 3.532 0 .668.011 1.328.03 2.007a89.023 89.023 0 0 0-3.241 2.122 161.406 161.406 0 0 0-5.043-2.762c-.13.68-.246 1.367-.356 2.047.434.511.875 1.023 1.317 1.53-.914.032-1.829.071-2.743.13.422.078.848.156 1.278.246a80.743 80.743 0 0 0-2.781 2.992c.257.531.519 1.07.785 1.602a82.646 82.646 0 0 0-7.852 4.082c.149.363.293.726.461 1.093a79.251 79.251 0 0 0-1.77 1.672c-.5-.07-.992-.14-1.484-.199.05.672.117 1.32.2 1.988-.446-.304-.887-.62-1.321-.925.305-.254.602-.5.906-.746-.707.039-1.418.09-2.125.148.383.41.758.824 1.14 1.238-.128.254-.44 1.031-.577 1.219-.2.285-.828 1.996-.992 2.43-.563.11-1.114.226-1.672.343.55.141 1.11.278 1.672.414-.692.09-1.38.188-2.067.297.434.364.856.727 1.278 1.09-.079.149-.168.297-.235.442a63.14 63.14 0 0 0-2.3 2.273 47.336 47.336 0 0 0-1.11 2.547 34 34 0 0 0-1.664.789c-.813-.375-1.629-.758-2.438-1.133-.628.383-1.246.797-1.855 1.219.922.71 1.855 1.398 2.809 2.078-.047.473-.086.934-.125 1.406.52.168 1.05.313 1.57.473a43.203 43.203 0 0 0-3.637 2.055c.04-.61.09-1.211.16-1.82-.867-.176-1.742-.337-2.605-.512.344-.04.687-.07 1.031-.11-.473-.37-.926-.765-1.387-1.148a184.83 184.83 0 0 0-4.886-.836c-.164-.68-.325-1.36-.47-2.04.864.22 1.731.427 2.595.641.55-.312 1.109-.617 1.68-.902.199.402.402.817.609 1.219.886.156 1.77.324 2.644.492a70.237 70.237 0 0 1-2.515-2.855c.011-.668.039-1.348.07-2.024.324.676.668 1.356 1.031 2.016a51.059 51.059 0 0 1 1.918-2.196c-.445.22-.887.426-1.32.653-.293-.465-.578-.926-.863-1.387-1.09-.523-2.172-1.055-3.254-1.574-.059-.18-.118-.348-.176-.512 1.61.188 3.215.402 4.816.649a51.46 51.46 0 0 1 1.375-2.196c.64.465 1.29.918 1.938 1.38a90.19 90.19 0 0 1 1.836-1.446c.363.265.73.531 1.093.797.215-.602.442-1.223.668-1.82-.914-.856-1.808-1.743-2.703-2.626.235-.246 2.035-2.039 2.075-2.105.007-.012.039-.04.039-.04-.051-.019-.22-.081-.247-.1-.53-.333-2.734-1.122-3.46-1.407-.235-.293-1.258-1.672-1.434-1.809-.012-.011-.078-.117-.098-.128a64.528 64.528 0 0 1 3.547-1.012c.117-.363.235-.738.363-1.102-.53-.207-1.062-.402-1.582-.601.254-.551.512-1.102.778-1.653-.582-.332-1.16-.668-1.742-1.011-.067-1.012-.106-2.036-.145-3.051a91.806 91.806 0 0 1 2.113-1.555 323.935 323.935 0 0 1-2.441-2.703 125.57 125.57 0 0 0-4.184-.629 95.53 95.53 0 0 0-6.047 7.238c-.148.137-.64.848-.796 1.063a765.59 765.59 0 0 0-1.79-.887c.137.367.278.738.422 1.102a80.611 80.611 0 0 0-2.976 2.57c.246.863.512 1.719.785 2.574-.777-.41-1.55-.824-2.328-1.246-.324.106-.64.227-.953.332.558.383 1.12.758 1.68 1.133-.403.777-.797 1.563-1.18 2.352.5-.032 1.004-.07 1.504-.09a83.301 83.301 0 0 0-.274 2.183c-.445-.109-.894-.226-1.34-.336a84.69 84.69 0 0 0-2.257 5.52c.242-.012.48-.02.726-.02.125-.363.266-.718.402-1.082.188 1.672.434 3.325.727 4.977.098-.293.188-.578.285-.887-.414-.136-.824-.273-1.226-.41a69.136 69.136 0 0 0-2.567 2.457c-.68-.027-1.355-.058-2.035-.078.137.395.274.79.414 1.18a80.22 80.22 0 0 0-3.48 1.484c.402.2.816.387 1.226.574a67.909 67.909 0 0 0-2.152 2.223c.277.246.55.492.828.726a64.861 64.861 0 0 1 2.043-1.71c1.809 1.535 3.656 3 5.562 4.406-.382.187-.753.375-1.128.558.058 1.016.148 2.028.234 3.043.394.371.789.746 1.18 1.121.55-.996 1.132-1.98 1.73-2.94.04.42.078.823.129 1.245a69.969 69.969 0 0 1 6.508-2.547c.558.543 1.14 1.082 1.719 1.606.402-.492.828-.965 1.25-1.438-.317-.058-.63-.129-.946-.195a51.249 51.249 0 0 1 2.547-3.672c.129 1.23.285 2.461.48 3.68a67.923 67.923 0 0 1 2.626-.965c.07.672.136 1.328.226 1.988.7.383 1.406.758 2.113 1.133-1.05.227-2.093.48-3.125.746.856.207 1.72.402 2.575.61a54.196 54.196 0 0 0-1.621 4.761c.343.09.675.188 1.011.266-.824.324-1.633.66-2.437 1.023a54.89 54.89 0 0 0-1.07 2.664c.058.032.207.09.246.13.324.234.726.472 1.078.687l.61-.66c0-.02.335-.286.366-.313l-.129.313c-.03.011-1.132 3.511-1.238 3.859.785.176 1.57.344 2.367.512-.117.597-.226 1.207-.344 1.808.442.168.875.344 1.317.512-.078 1.11-.145 2.23-.215 3.344-.766.539-1.543 1.09-2.32 1.64.62 1.95 1.27 3.88 1.957 5.797a201.06 201.06 0 0 0 1.66 8.625c-.422.117-.856.235-1.29.363a246.1 246.1 0 0 0-1.116 7.555c.812.13 1.629.246 2.437.363-.484.551-.972 1.114-1.457 1.672.68.059 1.36.118 2.027.18-.62.332-1.238.668-1.847 1.012.332 1.386.676 2.781 1.05 4.172.657-.121 1.317-.239 1.985-.368-.09.809-.168 1.614-.246 2.41-.492-.144-.961-.304-1.445-.453.168.918.355 1.82.543 2.727.43-.09.875-.176 1.304-.277a109.565 109.565 0 0 0-.37 3.148c.636.246 1.276.485 1.913.719.465 1.996.965 3.992 1.504 5.98-.254.364-.508.727-.765 1.102.503.156 1.003.316 1.503.48.04 3.918 2.567 7.98 2.555 11.903.543-.137 1.094-.285 1.633-.43.2.5.383.992.582 1.484a111.738 111.738 0 0 0 2.113 5.832c.649 2.145 1.336 4.27 2.113 6.375-.296.164-.601.325-.906.493.649.265 1.297.52 1.946.777.082.203.386.953.414 1.11.011.07.238.57.277.679-.168.59-.324 1.188-.484 1.79a60.22 60.22 0 0 0 2.8 1.917c-.37.246-.746.492-1.109.738a71 71 0 0 0 2.309 2.145c-.383.441-.766.894-1.157 1.328a64.952 64.952 0 0 0 1.707 2.723c.407 0 .817 0 1.23-.008 3.43 3.906 6.516 8.469 10.813 11.469-.48.726-.964 1.464-1.433 2.203.344-.012 2.445-.215 2.562-.196.102.02 1.328-.148 1.524-.18 0 .512.011 1.036.02 1.555a49.899 49.899 0 0 0 4.206 1.997c.051.914.14 1.82.227 2.726l-1.207.875-.09.64a99.055 99.055 0 0 0 2.23-2.202 55.3 55.3 0 0 0 1.93-.957 50.28 50.28 0 0 0 4.04 1.851c1.07.098 2.132.176 3.202.207 0 .695.012 1.395.032 2.082.253-.273.511-.55.765-.836a50.089 50.089 0 0 0 5.336 1.645c-.058-.582-.117-1.16-.164-1.73.707-.06 3.863-.544 4.207-.512.274.027 2.652-.524 3.074-.622.356.543.719 1.082 1.082 1.614 2.555-2.664 5.801-.051 8.63-1.938.023.324.03.66.05.973.5-.637.984-1.297 1.457-1.977a48.524 48.524 0 0 0 6.95-1.898c.37.324.745.648 1.128.953a52.598 52.598 0 0 0 4.13-2.242c.089.058.608.375.647.414.06.058.805.5.934.582.59-.926 1.16-1.871 1.7-2.836.73-.441 1.437-.895 2.144-1.355.234.363.48.726.719 1.082.55-.512 1.097-1.012 1.628-1.543.739.164 1.477.312 2.215.449-.148-.715-.297-1.426-.453-2.145a73.567 73.567 0 0 0 1.711 1.575 77.588 77.588 0 0 0 1.719-4.907 64.25 64.25 0 0 0 3.273.617c.344-1.218.649-2.449.934-3.675.394-.09.785-.18 1.168-.266.433.5.855 1.004 1.289 1.516a88.964 88.964 0 0 0-1.219-2.54c.785-.019 1.574-.058 2.36-.109a85.554 85.554 0 0 0 1.808-2.597c-.078-.422-.156-.844-.246-1.266a601.92 601.92 0 0 0 2.98-2.137c.157-.039 3.087-2.332 3.438-2.617.219.484.426.957.629 1.438a104.031 104.031 0 0 0-1.129-4.239c.66.04 1.316.059 1.977.078a102.609 102.609 0 0 0 2.89-6.238c.656-.058 1.317-.117 1.985-.183-.414-.387-.836-.77-1.27-1.145a94.847 94.847 0 0 0 4.367-5.93c.461-2.418.844-4.84 1.16-7.277 2.622-3.918 4.579-8.883 5.387-13.527.527.128 1.07.246 1.61.375.304-.336.609-.66.906-.993-.531-.582-1.074-1.16-1.613-1.73a53.892 53.892 0 0 0 1.73-.328c.156-1.836.246-3.676.312-5.528.512-1.14 1.004-2.3 1.477-3.46.55.07 1.102.136 1.652.207a83.452 83.452 0 0 0-2.37-2.598c.038-1.29.05-2.586.038-3.895.66-.109 1.32-.226 1.977-.343-.5-.641-1.012-1.282-1.543-1.918a110.99 110.99 0 0 0 1.336-11.293c-.027-.051-.254-.493-.254-.512-.02-.156-1.113-2.418-1.27-2.754.422-1.86.829-3.719 1.22-5.586.316-.2.628-.406.952-.601.485.226.953.453 1.438.68a182.92 182.92 0 0 0-1.988-2.747c.304-.383.609-.765.914-1.16a227.22 227.22 0 0 0-4.43-1.05c-.2-.65-.406-1.302-.61-1.95 1.09-.227 2.18-.441 3.27-.668.305-1.16.602-2.32.875-3.492 1.016.039 2.016.07 3.027.11a214.822 214.822 0 0 0-7.41-2.528c-.254.45-.511.894-.777 1.348a62.12 62.12 0 0 0-.973-1.801c.09-3.551.09-7.102-.008-10.653 1.188.313 2.368.618 3.547.954a177.25 177.25 0 0 0-1.777-7.536c.125-1.75.227-3.511.293-5.273-.363-.805-.746-1.602-1.121-2.41-.461-.422-.934-.824-1.406-1.227l1.18-1.586c-1.06-.383-2.114-.765-3.184-1.12.343-1.388.668-2.782.972-4.188a84.332 84.332 0 0 0-3.87-2.48c.519-.157 1.05-.305 1.57-.454-.579-.226-1.16-.46-1.739-.68.383-.558.766-1.12 1.14-1.68a123.767 123.767 0 0 0-1.956-7.71c-.442-.16-.883-.297-1.336-.446-.117-.421-.246-.824-.363-1.238.047-1.289.066-2.586.058-3.887-.5.22-1.011.434-1.515.66-.246-.413-1.7-2.577-1.77-2.78-.144-.426-2.652-3.778-3.094-4.368.078-1.004.137-2.008.176-3a76.96 76.96 0 0 0-5.418-6.504c-4.164-3.59-7.617-7.86-11.832-11.586-.336-.453-2.762-2.254-3.351-2.656 1.039.156 2.082.344 3.113.55.168.11.965.688 1.055.72.242.097 2.062 1.492 2.406 1.75-.293-.582-1.543-2.625-1.66-3.02-.246-.797-2.516-4.2-3.118-5.066a75.418 75.418 0 0 0-2.91-2.067 77 77 0 0 1 2.98.305 64.18 64.18 0 0 0-4.257-5.488 79.387 79.387 0 0 0-11.492-2.762c.62-.324 1.242-.629 1.87-.938-4.148-2.566-8.866-.5-13.292-.855a114.783 114.783 0 0 1 6.527-2.84 127.53 127.53 0 0 0-.836-2.137 105.99 105.99 0 0 1 3.532-.086c-.317-1.054-.63-2.117-.965-3.167a96.04 96.04 0 0 0-7.715-1.368c4-1.77 8.09-3.304 12.277-4.586a90.855 90.855 0 0 0-3.777-2.695c-1.09.73-2.16 1.469-3.223 2.227-1.148.136-9.969 1.691-10.066 1.68-.164-.028-1.012.07-1.227.09-1.133-.06-2.25.019-3.37.195 1.581-.766 2.917-1.083 4.667-1.29.313-.402 9.063-3.902 10.184-4.316-.157-.582-.305-1.172-.461-1.75 4.941-.246 11.793-2.805 15.46 1.7.61-.532 1.231-1.052 1.848-1.575.953.277 1.918.57 2.871.875a107.33 107.33 0 0 0-11.265-3.215c.64-.336 1.277-.648 1.918-.965-2.98-.984-6.008-1.84-9.055-2.566.266-.316.55-.621.828-.934 4.676.332 9.348.946 13.946 1.848a104.829 104.829 0 0 1 11.68 4.21 103.202 103.202 0 0 1 9.6 4.79c.259-.492.524-.992.778-1.484a88.216 88.216 0 0 1 1.938 4.074c.273.086 1.433.52 1.613.527.48.051 4.039 1.528 4.734 1.82-.488-.59-.992-1.18-1.504-1.75.512.325 1.024.649 1.536.985.984-.012 1.976 0 2.968.02-.148.433-.297.867-.441 1.296a103.689 103.689 0 0 1 5.691 4.23 103.712 103.712 0 0 0-7.422-7.406c.227-.363.461-.718.688-1.07-.758-.375-3.59-1.566-4.04-1.89-.116-.09-1.03-.442-1.237-.532.37-.66.707-1.23 1.039-1.808Zm64.523 142.21c.461.65.914 1.298 1.367 1.958-.011-.785-.02-1.563-.039-2.352-.445.129-.887.266-1.328.395Zm.984 6.532Zm-50.21-132.07a110.847 110.847 0 0 0-2.872-4.16 94.483 94.483 0 0 1 2.872 4.16Zm.058.511a110.011 110.011 0 0 1 4.512 3.332 139.865 139.865 0 0 0-4.512-3.332Zm6.223 6.028a116.383 116.383 0 0 1 2.75 3.996c.336-.297.672-.582 1.004-.887a115.645 115.645 0 0 0-3.754-3.11Zm5.699 225.535c-.273.66-.54 1.32-.824 1.976.273-.656.55-1.316.824-1.976Zm10.059-203.719a144.123 144.123 0 0 0-1.93-3.086c-.285.559-.57 1.121-.863 1.68a120.754 120.754 0 0 1 4.316 3.285c-.168-.727-.336-1.445-.512-2.164.04-.125.086-.266.13-.39-.388.214-.77.44-1.141.675Zm-9.91-12.02c1.09.297 2.171.622 3.253.946a145.754 145.754 0 0 0-3.254-.945ZM355.25 544.696a96.09 96.09 0 0 1-2.445-1.27 94.516 94.516 0 0 1-1.153-2.144c-.394.68-.777 1.375-1.168 2.055 1.582.492 3.172.945 4.766 1.36Zm105.934-10.78c-.551.382-1.09.765-1.641 1.14.355.293.707.59 1.05.886.22-.671.407-1.347.59-2.027Zm-124.797-4.892a109.547 109.547 0 0 0 4.05 3.266 95.692 95.692 0 0 1-1.18-4.719 102.506 102.506 0 0 1-3.98-.808l.293 1.18c-.234-.067-.46-.137-.687-.208a31.352 31.352 0 0 1-.57-1.285c-.422.785-.825 1.563-1.227 2.348.332.297.656.582.992.879.766-.207 1.543-.426 2.309-.653Zm37.617 20.774c.168-.184.336-.363.492-.55a91.766 91.766 0 0 1-3.703-4.2c.047.957.105 1.898.176 2.851-1.004.16-2.016.29-3.02.414a93.697 93.697 0 0 0 6.055 1.485Zm114.82-47.242c.531.02 1.055.039 1.594.05a191.832 191.832 0 0 0-1.926-2.402c-.972.633-1.957 1.242-2.949 1.84a85.71 85.71 0 0 0 2.21.855v2.235c.63.078 1.25.156 1.88.226-.258-.933-.531-1.87-.809-2.804ZM377.77 549.07c-.04.563-.067 1.121-.098 1.672.031-.55.058-1.11.098-1.672Zm-57.73-47.254c-.49-.312-.981-.628-1.466-.953-1.285.078-2.574.137-3.863.176-.54.758-1.078 1.508-1.61 2.266.41.648.837 1.277 1.266 1.918 1.899-1.133 3.785-2.266 5.672-3.407Zm-26.63-44.882c-.066-.59-.117-1.18-.183-1.77a33.93 33.93 0 0 0-.934.258c.371.512.754 1.012 1.117 1.512Zm200.902 38.492c-.55.48-1.101.953-1.652 1.426.727.117 1.445.226 2.172.332-.168-.579-.355-1.168-.52-1.758ZM317.29 507.219c.125-.207.266-.414.39-.621-.706-.047-1.402-.09-2.113-.137.57.266 1.153.512 1.723.758Zm45.598 36.293Zm-1.75.691c.031-.336.062-.672.101-1.004-.648.067-1.3.117-1.949.176.621.285 1.23.563 1.848.828Zm-5.602-2.98Zm-65.379-166.664c-.097-1.832-.156-3.66-.164-5.5a91.295 91.295 0 0 0-4.472 5.636c1.543-.058 3.093-.11 4.636-.136Zm22.926 125.625c.45-.286.902-.57 1.367-.856a109.623 109.623 0 0 1-3.187-2.695c-.168.355-.332.71-.492 1.074.77.824 1.523 1.66 2.312 2.477Zm142.98 30.886a103.37 103.37 0 0 1-.843 4.543c.285-.183.57-.363.855-.55.02-1.329.008-2.653-.012-3.993Zm52.747-71.843c-.559.668-1.13 1.347-1.711 2.007.394.227.789.461 1.18.688.179-.895.355-1.79.53-2.695Zm-7.657 20.066c-.09.719-.175 1.445-.273 2.172.098-.727.183-1.453.273-2.172Zm-210.875-98.902c-.011-1.38.008-2.754.047-4.133a101.111 101.111 0 0 0-2.969 3.61c.973.167 1.95.355 2.922.523Zm5.614 60.109a376.34 376.34 0 0 1-2.746-1.852c.207-.117.406-.234.609-.363-.442.078-.883.168-1.324.246.086 1.594.187 3.168.293 4.762a172.501 172.501 0 0 1 3.168-2.793Zm-2.684-82.516c.176-.601.352-1.203.527-1.793-.714.434-1.433.868-2.152 1.32.543.15 1.074.313 1.625.473Zm3.152-12.68c-.46 1.298-.882 2.598-1.296 3.915.414-1.317.847-2.617 1.296-3.914Zm116.485 202.262a78.798 78.798 0 0 1-4.356-.601c1.446.226 2.899.433 4.356.601Zm48.195-19.261c-.59-.098-1.191-.196-1.789-.293.598.097 1.2.195 1.79.293Zm-35.555 17.52c-.609-.188-1.218-.384-1.828-.579.422.344.844.688 1.278 1.031.195-.148.37-.304.55-.453ZM293.066 432.452c-.273.422-.539.844-.816 1.258.277-.414.543-.836.816-1.258Zm-3.035-44.351c.235-.52.461-1.032.696-1.555-.547.078-1.098.168-1.649.258.313.441.637.863.953 1.297Zm1.73 26.105c-.296-.668-.57-1.34-.855-2.016-.18.512-.355 1.024-.523 1.543.465.157.914.317 1.379.473Zm78.176 127.406c.383-.797.766-1.582 1.137-2.386-.824-.426-1.648-.86-2.465-1.309 0 .844.008 1.691.02 2.535-.356-.254-.707-.52-1.063-.785-.492.422-.98.836-1.484 1.238a61.87 61.87 0 0 0 3.856.707Zm-14.324-9.894c-.875.926-1.77 1.832-2.652 2.734.266.16.531.317.797.465l1.855-3.2Zm21.723 10.781a65.053 65.053 0 0 1-2.102-.926c.7.317 1.407.621 2.102.926Zm-75.61-84.148c.641-.188 1.278-.383 1.919-.582-1.543-.5-3.079-1.02-4.61-1.57.883.734 1.79 1.445 2.692 2.152Zm.169-110.008c-.325.176-.649.363-.973.539-.985-.195-1.957-.383-2.95-.57a147.8 147.8 0 0 0 2.536 2.648c-.41.7-.817 1.414-1.219 2.133.55.097 1.102.199 1.652.297.454.675.914 1.355 1.375 2.015a70.13 70.13 0 0 1 2.961-2.242 72.047 72.047 0 0 1 4.176-2.203c.246-1.172.531-2.324.828-3.484-.199-.598-.375-1.207-.55-1.829.863-.265 1.738-.52 2.613-.765.129.668.265 1.347.402 2.004a87.02 87.02 0 0 1 4.121-.785c-.445-.325-.875-.66-1.32-.985.187-.117.363-.226.543-.344.246.247.492.493.746.727a87.676 87.676 0 0 1 3.43-2.676 80.37 80.37 0 0 1-1.043-2.094c.238-.156 2.242-1.418 2.273-1.445.078-.09 1.57-1.023 1.797-1.172-1.395-.863-2.809-1.722-4.215-2.586-.207.336-.75 1.317-.945 1.543-.531.602-2.16 3.817-2.633 4.723a124.857 124.857 0 0 0-4.324-.363c.344-.414.687-.828 1.039-1.23-.805-.583-1.621-1.153-2.426-1.723.285.59.559 1.18.856 1.773a99.106 99.106 0 0 0-2.606 5.82c-.512.051-1.031.098-1.555.149-.086.699-.175 1.406-.246 2.113-1.078.238-2.152.504-3.222.77 1.289.027 2.586.066 3.87.136.376.258.75.512 1.122.766-.598.55-1.18 1.105-1.75 1.676a56.674 56.674 0 0 1-1.14-.73c-.196.73-.372 1.445-.54 2.175-.922-.04-1.848-.07-2.781-.098.453-.879.902-1.754 1.375-2.609a45.202 45.202 0 0 1-1.277-2.074Zm1.976 120.68c.129.343.254.687.383 1.03-.129-.343-.254-.687-.383-1.03Zm-2.734-122.294c-.5-.226-1-.44-1.504-.66.504.22 1.004.434 1.504.66Zm4.367-10.722c.578-.57 1.168-1.13 1.75-1.68-.453.52-.895 1.063-1.34 1.594-.039-.387-.086-.758-.117-1.133-.098.402-.207.809-.293 1.219Zm2.258 138.484Zm-11.203-47.676c-.2.926-.383 1.848-.563 2.774.563.098 1.121.2 1.684.285a232 232 0 0 1 3.164-3.344c.96.422 1.926.836 2.898 1.25-.648-.57-1.277-1.14-1.918-1.71.14-1.27.305-2.54.465-3.81.895.856 1.79 1.692 2.711 2.528 0-1.523.012-3.047.05-4.582.532-.168 1.071-.336 1.614-.512a210.348 210.348 0 0 1-4.426-11.949 376.694 376.694 0 0 0-1.258 4.809c.965.972 1.938 1.945 2.918 2.902.22 1.11.446 2.223.672 3.332-.582.75-1.16 1.508-1.73 2.266a195.732 195.732 0 0 1-3.047-6.946 168.81 168.81 0 0 0-2.48 2.27 199.45 199.45 0 0 1-.915-2.84c-.539.047-1.078.098-1.62.145a274.579 274.579 0 0 0-.137 5.37c-.297-.558-.579-1.128-.875-1.699.836 3.168 1.77 6.325 2.793 9.461ZM332.82 304.86c.371-.472.754-.925 1.13-1.386-.384.449-.759.914-1.13 1.386Zm89.864-33.886c.449.324.902.66 1.355.992-.453-.344-.906-.668-1.355-.992Zm60.636 227.37c-.343.09-.687.188-1.039.278.5.246 1 .492 1.504.738-.148-.343-.305-.68-.465-1.015Zm-18.578 22.223c-.656-.445-1.316-.886-1.976-1.328-.364.313-.735.63-1.11.946.64.617 1.27 1.226 1.906 1.836.395-.48.79-.961 1.18-1.454Zm-11.144 7.395a106.231 106.231 0 0 1-5.172 2.48c.117.196.234.395.355.59a119.422 119.422 0 0 0 4.817-3.07Zm-116.102-9.973c-.46.04-.922.07-1.383.098.285.434.578.867.875 1.289.164-.473.344-.926.508-1.387Zm-33.164-70.101a192.725 192.725 0 0 1-.441-3.317c.738-.738 1.484-1.476 2.23-2.203-.453-.46-.914-.933-1.355-1.406-.758.738-1.504 1.465-2.243 2.215.079.363.157.726.247 1.101-.493.293-.973.598-1.446.895-.656-.422-1.316-.856-1.965-1.29.352.59.707 1.173 1.063 1.75-.453.985-.906 1.977-1.348 2.962 1.09-1.051 2.192-2.086 3.301-3.117.246.52.492 1.05.738 1.562-.777.563-1.531 1.14-2.308 1.711 1.18-.273 2.347-.57 3.527-.863Zm204.191-58.438c-.156.531-.324 1.051-.5 1.582.176-.531.336-1.05.5-1.582Zm1.2 27.13c.078.5.16.991.238 1.495-.078-.504-.16-.996-.238-1.496ZM316.05 487.507c-.543.39-1.074.797-1.613 1.187.53-.39 1.07-.785 1.613-1.187Zm-.836-1.586Zm65.219 54.621a83.604 83.604 0 0 0 1.996-1.91 64.31 64.31 0 0 1-.766-2.223c-1.789.278-3.59.504-5.398.66-.059 1.239-.11 2.489-.137 3.739a79.043 79.043 0 0 0 4.305-.266ZM305.809 340.18c.332.07.656.136.972.215-.09-.727-.18-1.434-.246-2.165-.246.653-.492 1.29-.726 1.95Zm-10.254 60.472c-.551-.382-1.11-.765-1.672-1.152l.058 1.508c.532-.121 1.075-.246 1.614-.356Zm15.984-66.324c.207-.316.402-.64.61-.957-.688-.332-1.38-.668-2.067-.992.297.305.602.61.914.914.207-.086.402-.188.61-.266-.02.426-.047.868-.067 1.301Zm-13.312 98.98-.235 2.399.235-2.398Zm43.398 86.274a70.45 70.45 0 0 1-1.297-1.602c-.234.372-.46.747-.695 1.122.668.164 1.324.324 1.992.48Zm156-51.383c-.719.63-1.457 1.246-2.184 1.856.512.207 1.012.425 1.524.632.226-.828.441-1.664.66-2.488ZM358.07 530.5c.446-.785.875-1.563 1.309-2.352-.274-.511-.54-1.03-.805-1.543a88.453 88.453 0 0 0 3.871 2.45c.551-.461 1.09-.934 1.633-1.399.578.778 1.16 1.535 1.77 2.282.726-.254 1.445-.52 2.16-.805.187-.64.375-1.29.562-1.938a62.983 62.983 0 0 1-1.722-1.496c-.235.492-.47.985-.688 1.465-.46-.922-.902-1.86-1.316-2.8a88.8 88.8 0 0 1-3.793.167c-.828.54-1.66 1.082-2.508 1.602-.719-.531-4.324-3.52-4.648-3.668a3.836 3.836 0 0 1-.247-.219 61.121 61.121 0 0 1-.539-1.562c-.957.687-1.918 1.367-2.882 2.027-.028 1.492-.008 2.98.03 4.465.06.027.294.136.325.156.746.61 6.262 2.715 7.488 3.168Zm-36.425-41.176c-.18-.941-.356-1.887-.512-2.84-.426.61-.836 1.227-1.25 1.84-1.031.196-2.063.371-3.106.54.914.284 1.828.562 2.743.827-.415.618-.825 1.239-1.23 1.868 1.12-.747 2.233-1.485 3.355-2.235Zm-7.907-157.762c.375-.726.758-1.464 1.153-2.183.648-.906 1.316-1.8 1.996-2.676a122.75 122.75 0 0 0-3.149 4.86Zm133.176 196.34c.371-.105.746-.215 1.117-.324-.754-.7-1.504-1.394-2.25-2.105a79.215 79.215 0 0 1-2.93 4.722 86.642 86.642 0 0 0 5.32-.738 68.306 68.306 0 0 1-1.257-1.555Zm-59.637 13.27c.293-.5.578-.992.871-1.504a93.956 93.956 0 0 1-2.722-.441c-.028.668-.047 1.336-.067 1.996.649 0 1.278-.02 1.918-.051Zm95.407-46.004c-.551-.375-1.094-.746-1.645-1.11-.734.481-1.484.942-2.23 1.407.75.863 1.496 1.738 2.222 2.613a85.606 85.606 0 0 0 1.653-2.91Zm-54.957 38.617c.52 1.328 1.039 2.664 1.57 3.985-.531-1.32-1.05-2.657-1.57-3.985Zm-13.508 5.235c-.344-.297-.688-.602-1.024-.895-.797.105-1.601.215-2.406.293-.09.914-.18 1.82-.266 2.727.637.144 1.286.293 1.938.43a71.767 71.767 0 0 0 1.758-2.555Zm-77.477-28.899a89.18 89.18 0 0 1-1.172-1.715c-.757.16-1.511.297-2.27.446a108.498 108.498 0 0 1-3.214-6.07 114.807 114.807 0 0 0 2.45 7.171c1.405.078 2.8.137 4.206.168Zm-35.426-78.504c-.796-.039-1.593-.078-2.39-.129-.137-.195-.274-.383-.414-.578.933.235 1.879.469 2.804.707Zm46.63-134.156Zm130.902 201.387c-.04.195-.207.984-.196 1.109.012.09-.214.984-.254 1.164.086-.387.164-.777.254-1.164.078-.324.137-.766.196-1.11ZM339.18 514.555a93.912 93.912 0 0 1-2.313-1.801c.09.719.188 1.437.297 2.156a45.379 45.379 0 0 0 2.016-.355ZM299.102 410.93c-.914-.442-1.829-.875-2.73-1.317.901.442 1.808.875 2.73 1.317ZM358.8 292.562l-.856-1.445c.293.48.57.965.856 1.445Zm114.594 213.672a150.73 150.73 0 0 1-2.961-.207c.738.512 1.476 1.024 2.222 1.536.246-.434.492-.887.739-1.329Zm-125.95 16.887Zm-6.25-5.23Zm-31.035-50.047c-.203.726-.41 1.465-.61 2.203 1.368-.434 2.735-.875 4.102-1.317a182.231 182.231 0 0 1-1.722-2.656c-.41.156-.836.305-1.246.461l.351 1.82a39.297 39.297 0 0 0-.875-.511Zm-4.215-13.86a218.762 218.762 0 0 1-1.437-4.171 99.04 99.04 0 0 0-1.078 1.19c.824 1.005 1.66 1.997 2.515 2.981Zm-8.226-57.914c-.246-.808-.492-1.625-.73-2.43.238.817.484 1.622.73 2.43Zm46.62-95.273c.306.59.61 1.187.915 1.777.629-.234 2.3-.758 2.781-1.023.363-.203.906-.422 1.29-.598.628 1.172 1.245 2.332 1.866 3.5.512-.48 1.024-.96 1.532-1.433-.715-.582-1.446-1.16-2.172-1.743.117-1.011.258-2.027.394-3.039-.382.157-4.039 1.711-4.039 1.711-.078 0-2.293.758-2.566.848Zm119.302 213.652c-1.012.344-2.012.668-3.036.98.067.66.13 1.321.188 1.977.52.012 1.039.012 1.562.012.434-.984.864-1.969 1.286-2.969Zm-22.313 15.383c-1.18 0-2.36-.02-3.547-.07.371 1.054.746 2.097 1.11 3.136.847-1 1.652-2.023 2.437-3.066ZM376 535.93c-.98-.176-1.965-.375-2.938-.57a69.26 69.26 0 0 0 1.868 2.007c.355-.484.718-.965 1.07-1.437Zm-11.531-5.153c-.774-.367-1.543-.75-2.309-1.132-.273.746-.55 1.484-.836 2.222.707.363 1.418.707 2.133 1.051.344-.715.68-1.434 1.012-2.14Zm-46.59-49.093c-.356.273-.7.558-1.055.836.957.933 1.918 1.859 2.89 2.761.278-.914.563-1.808.856-2.715a76.728 76.728 0 0 0 2.43 1.774c-.441-1.516-.867-3.04-1.258-4.574-.414.129-.836.234-1.25.363-.09.582-.187 1.16-.265 1.75-.414-.332-.844-.668-1.258-.992-.09.312-.188.64-.266.965.012-.75.02-1.508.04-2.262a145.153 145.153 0 0 1-3.016-3.356c-.926.414-1.84.817-2.762 1.23 1.355.884 2.723 1.75 4.105 2.587-.636.707-1.265 1.414-1.906 2.133.914-.157 1.809-.325 2.715-.5Zm-12.297-46.82c-.375.452-.738.906-1.102 1.355a124 124 0 0 1-3.687-1.621c.402 1.554.836 3.097 1.277 4.632.305-.726.621-1.445.926-2.175 1.277.797 2.555 1.574 3.852 2.332.828-.266 1.652-.532 2.476-.785a178.78 178.78 0 0 1-2.633-5.079c.7.168 1.395.317 2.106.473a124.38 124.38 0 0 1-.926-3.187c-.441.632-.883 1.27-1.328 1.898a142.948 142.948 0 0 1-4.352-1.789c1.11 1.348 2.23 2.656 3.391 3.945Zm-.64-43.97c-.434.973-.864 1.958-1.286 2.942-.336-.797-.672-1.594-.996-2.399.531-1.289 1.082-2.578 1.633-3.855.344-.148 3.61-1.535 3.637-1.566.011-.008.343-.137.382-.168 0 .02 0 .16-.007.168-.059.207-.032 3.207-.032 3.68.325.292.649.577.965.863.117-.579.246-1.168.364-1.758.648.304 1.277.597 1.937.902-.238 1.25-.465 2.512-.668 3.758.883-.207 1.77-.41 2.66-.61-.086 1.34-.156 2.688-.215 4.024-.558.297-1.109.582-1.66.887-.05 1.789-.09 3.597-.097 5.398.796.61 1.59 1.219 2.398 1.82.637-.582 1.266-1.16 1.895-1.73-.184-1.77-.352-3.563-.5-5.332.539-.02 1.082-.04 1.613-.05-.246 2.155-.485 4.32-.68 6.484.195 1.632.414 3.253.649 4.878.453.067.906.137 1.355.207-.52.403-1.039.817-1.55 1.227a145.717 145.717 0 0 0 2.968 3.238c.293-1.367.598-2.746.914-4.101-.316-2.606-.59-5.235-.816-7.852a257.9 257.9 0 0 1-.473-3.844c1.004.52 2.008 1.032 3.02 1.536.027.629.058 1.257.078 1.886.539-.117 1.07-.246 1.613-.363.707.887 1.414 1.762 2.133 2.637.195-.473.402-.934.61-1.406.784.148 1.57.285 2.359.433-.063-1.062-.102-2.125-.149-3.187-1.355-.563-2.703-1.121-4.039-1.711-.465-.434-.914-.868-1.367-1.301.39-1.84.805-3.68 1.246-5.508 1.219-.187 2.418-.375 3.629-.562-.895-.54-1.781-1.09-2.664-1.653-.531-.816-1.07-1.64-1.582-2.469-.461.07-.914.141-1.367.22-.04-.079-.137-.344-.176-.395-.117-.157-.344-.68-.453-.887.765.023 1.535.043 2.3.063.493.195 1.938.667 2.29.882.09.051.257.118.355.157.008-.02.156-.145.156-.145.031-.07 1.965-1.477 2.184-1.633-.64-.258-1.278-.523-1.918-.789.008-.363.039-.726.058-1.09.196-1.32.422-2.617.688-3.914-1.012.164-2.035.344-3.047.531-.187-.246-.383-.484-.57-.73.492-.46.992-.922 1.504-1.367-.746-.395-1.485-.817-2.211-1.23a55.78 55.78 0 0 0-3.196 1.437c.829.492 1.66.973 2.497 1.445-.481.266-.942.543-1.415.817a73.85 73.85 0 0 0 .985 5.117c-.672.137-1.34.273-1.996.43-.64-.766-1.27-1.532-1.887-2.31.352-.491.707-.976 1.078-1.456-1.707.531-3.39 1.101-5.07 1.71-.078-.51-.149-1.03-.227-1.554-.765.031-1.543.07-2.308.098a83.118 83.118 0 0 0-.887 4.094c-.856-.403-1.719-.797-2.566-1.22-.274.118-2.84 1.298-2.848 1.298-.02 0-1.399.66-1.535.718-.117-.168-.403-.629-.52-.746-.285-.297-1.082-1.625-1.355-2.058-.797.386-1.594.789-2.38 1.18a87.247 87.247 0 0 1 2.18-4.2c-1.187-.293-2.378-.59-3.558-.894a134.523 134.523 0 0 0-.207 3.77c-.668-.032-1.344-.052-2.012-.071-.12.207-.246.414-.375.629.332.492.766 1.043 1.07 1.543.356.582 1.082 1.437 1.524 2.008l-.293 2.714c.215.504.43.993.656 1.485.563 1.605 1.133 3.199 1.723 4.793a296.296 296.296 0 0 1 4.863-6.887c.344 0 .68 0 1.016.008l-.68-1.77a326.73 326.73 0 0 0-2.281 2.371c.285.079.61.176.933.286Zm33.667-83.539c.696-.453 1.407-.882 2.114-1.316-.48-.316-.965-.621-1.446-.926a87.099 87.099 0 0 0-.668 2.242Zm36.106-22.828c.98-.226 1.973-.453 2.969-.66-.227-.5-.446-.992-.672-1.484-.774.719-1.543 1.426-2.297 2.144Zm50.957 251.61a68.631 68.631 0 0 1-1.367-1.703c-.414.355-.817.699-1.239 1.054.598.305 1.188.598 1.79.895-.57.168-1.141.324-1.711.472.843-.238 1.69-.472 2.527-.718Zm-127.465-159.07.738-.856a78.47 78.47 0 0 1 2.696-2.39 93.437 93.437 0 0 1-.649-2.548 80.647 80.647 0 0 1 1.985-3.238c-.649-.64-1.29-1.277-1.926-1.926a74.382 74.382 0 0 1 1.699-1.457 63.67 63.67 0 0 0 1.672 1.575 79.443 79.443 0 0 1 2.445-1.672c.188.992.375 1.996.59 3 .14-1.586.305-3.168.523-4.743.188-.214.364-.421.551-.648-.886-.453-1.77-.914-2.656-1.379a79.334 79.334 0 0 1 6.566-2.113 81.54 81.54 0 0 1 2.262-3.246 165.23 165.23 0 0 0-3.105-.156 75.437 75.437 0 0 0-6.047 4.226c.097-.648.187-1.305.285-1.957a90.108 90.108 0 0 0-2.063 4.399c-1.16.492-2.312.992-3.46 1.523a95.496 95.496 0 0 0-1.122 5.008c.61.312 1.22.64 1.84.953-.265.77-.531 1.535-.777 2.3a76.457 76.457 0 0 0-2.047 5.344Zm107.027 162.816Zm47.645-249.149c.5-.05 1.004-.09 1.504-.14-.176-.266-.356-.531-.531-.797-.332.316-.649.621-.973.937Zm-34.867 245.914a81.954 81.954 0 0 1-2.446 1.504c.797-.039 1.59-.078 2.387-.136.012-.453.04-.907.059-1.368ZM311.3 464.293c-.106-.316-.215-.621-.324-.934-.493.254-.973.512-1.454.766.59.07 1.18.117 1.778.168Zm146.75-168.898c.59.199 1.18.382 1.77.59a53.84 53.84 0 0 0-1.141-1.79c-.207.395-.426.797-.63 1.2Zm-126.735 20.203c1 .097 1.993.207 2.989.336a183.714 183.714 0 0 1-.77-3.297 142.49 142.49 0 0 0-2.219 2.96Zm42.11-28.996c.512.234 1.023.492 1.531.738.938-.543 1.86-1.082 2.793-1.613a91.09 91.09 0 0 0-4.324.875Zm37.746 249.464a96.29 96.29 0 0 1-4.383.07c-.75.481-1.496.954-2.262 1.407.215.441.442.875.657 1.309a75.628 75.628 0 0 0 5.988-2.786Zm-95.328-68.183Zm-12.899-38.832a150.814 150.814 0 0 1 0 0Zm-3.41-21.453c.442-.032.887-.059 1.328-.09-.453-2.047-.886-4.09-1.289-6.149-.039 2.086-.058 4.16-.039 6.239Zm17.3-72.86c-.089-.883-.167-1.77-.226-2.664-.402.563-.785 1.14-1.18 1.711.473.317.946.63 1.407.953Zm-7.862 121.176a187.099 187.099 0 0 0 0 0Zm63.656-165.555c.5-.246 1.012-.5 1.516-.746-.622-.816-1.25-1.644-1.88-2.46-.128.562-.253 1.12-.394 1.683-.648-.04-1.305-.07-1.953-.102.902.543 1.809 1.075 2.71 1.625Zm91.937 218.079Zm-94.406-216.82c-.5-.74-1.012-1.473-1.523-2.212.504.739 1.015 1.473 1.523 2.211Zm94.465 10.566Zm-127.078 9.55c.57.383 1.14.758 1.71 1.141.61-.668 1.22-1.34 1.837-2.008a81.135 81.135 0 0 1-1-2.125c-.867.985-1.711 1.977-2.547 2.992ZM449.32 521.63c-.129.48-.265.953-.402 1.426.137-.485.273-.953.402-1.426Zm-74.566 10.426c-.406.324-.828.64-1.238.953.273.097.546.187.832.277.129-.406.265-.816.406-1.23Zm-48.402-41.844c-.551-.48-1.102-.965-1.641-1.457.027 1.121.066 2.242.125 3.355.512-.629 1.016-1.27 1.516-1.898ZM455.828 515.5c.422.227.856.441 1.29.66a107.52 107.52 0 0 0 3.19-2.754 106.31 106.31 0 0 1-4.48 2.094Zm-15.402 10.71c-.012 0-.02.013-.02.013-.445.312-3.676 1.492-4.414 1.77.676.312 1.356.628 2.024.925.336-.356 2.242-2.59 2.39-2.688l.02-.02Zm-8.758 4.368c-.543-.375-1.082-.765-1.613-1.148-.414.265-.817.53-1.239.785.098.797.188 1.594.266 2.398a78.744 78.744 0 0 0 2.586-2.035Zm60.617-174.062c.582.406 1.16.808 1.742 1.222-.582-.414-1.16-.816-1.742-1.222Zm-69.05 176.16c-.465.125-.938.254-1.407.37.48.337.961.669 1.453.997a50.932 50.932 0 0 0-.047-1.367Zm-8.9 1.62c-.42.298-.843.583-1.265.876.422.265.852.531 1.285.789-.007-.563-.02-1.113-.02-1.664Zm-37.272-4.948Zm-61.82-62.055a159.846 159.846 0 0 1-2.684-4.484 140.113 140.113 0 0 0 2.683 4.484Zm-3.774-15.75a256.53 256.53 0 0 1-.336-2.574c-.313-.77-.637-1.528-.953-2.281-.559-.043-1.14-.083-1.707-.13-.16.325-.305.66-.465.985.445.422.887.844 1.34 1.266a195.936 195.936 0 0 0-.739 3.53c.961-.265 1.907-.519 2.86-.796Zm82.894 84.465a60.893 60.893 0 0 1-2.988-2.281c.02.55.027 1.109.047 1.671.984.215 1.957.422 2.941.61Zm-36.203-238.43a229.43 229.43 0 0 0-1.023 9.238 205.79 205.79 0 0 1 6.144-7.3c1.051-.864 2.125-1.73 3.196-2.586l-.63-.414c1.15-.649 2.31-1.27 3.47-1.887a150.24 150.24 0 0 0-8.66 3.363 93 93 0 0 1-1.012-1.703c-.5.426-1.004.856-1.485 1.29Zm34.875-15.965c.137.407.285.809.434 1.203-.188-.75-.375-1.488-.563-2.246-.441.278-.883.563-1.324.836.48.07.973.14 1.453.207ZM347.23 305.27c.836-.06 1.66-.106 2.497-.157-.836.051-1.672.098-2.497.157Zm40.223 229.195c-.207.086-.414.187-.621.273.207-.086.414-.176.621-.273Zm-42.66-20.98c-.316-.868-.61-1.731-.895-2.598-.187.59-.355 1.18-.53 1.781.472.273.952.55 1.425.816Zm-6.766-8.333a82.724 82.724 0 0 1-1.816-.64c.61.218 1.207.425 1.816.64Zm134.707-10.828c-.058.078-.558.735-.558.754-.04.11-1.91 2.461-2.145 2.758.512.402 1.031.824 1.543 1.238.414-.512 1.86-2.527 2.184-2.804.265-.227 1.504-2.047 1.808-2.457-.945.175-1.886.343-2.832.511ZM310.18 440.902c-.766-.382-1.524-.777-2.27-1.172-.168.79-.332 1.567-.48 2.352 1.03.7 2.074 1.387 3.136 2.055-.14-1.082-.265-2.153-.386-3.235Zm1.199-91.152c-.106-.54-.223-1.082-.324-1.621.11.539.218 1.082.324 1.621Zm17.223-21.727c-.727-1.003-1.454-2.007-2.172-3.03a170.095 170.095 0 0 0 2.172 3.03Zm17.859 186.09c.414.375.848.739 1.27 1.102-.422-.363-.856-.727-1.27-1.102Zm30.789-224.176c.805-.03 1.602-.039 2.406-.05-.312-.7-.636-1.399-.953-2.094-.492.719-.973 1.434-1.453 2.144Zm100.36 196.684c.542.344 1.093.688 1.64 1.031.188-.293.375-.578.55-.875-.726-.047-1.452-.097-2.19-.156ZM343.808 310.395c-.414.18-.825.363-1.239.543.414-.18.817-.375 1.239-.543Zm.816 1.035c-1.172.078-2.34.175-3.5.293.363.847.727 1.691 1.09 2.527 1.515.59 3.02 1.203 4.504 1.832.48-.219.941-.434 1.426-.64-.149-.739-.286-1.477-.422-2.204a102 102 0 0 1 2.023-1.543c.461.61.922 1.227 1.375 1.836a169.85 169.85 0 0 1 1.867-4.652 204.36 204.36 0 0 0-1.59 1.605c-2.28.235-4.53.551-6.773.946Zm44.262-23.332c.816-.434 1.62-.856 2.437-1.29.11-.855.219-1.703.317-2.558-.973-.02-1.946 0-2.91.031.05 1.27.097 2.535.156 3.817Zm-84.543 108.109c-.09.293-.188.598-.278.914-.226.09-.46.176-.687.277.316-.406.64-.796.965-1.191Zm6.172-41.016-1.032 1 1.032-1Zm13.21-20.52a86.028 86.028 0 0 1 2.223-2.401 97.781 97.781 0 0 0-3.324-.52c.355.984.727 1.957 1.102 2.922Zm20.622-17.874c-.832-.176-1.668-.344-2.496-.5a113.419 113.419 0 0 0-4.008-.895 155.22 155.22 0 0 0-2.086 3.7 117.63 117.63 0 0 1 5.101-1.536c.52.579 1.043 1.172 1.555 1.762.637-.848 1.285-1.691 1.934-2.531Zm30.836-23.672c.296-.879.582-1.754.875-2.629-.293.875-.579 1.75-.875 2.629Zm6.32-2.953c.543-.953 1.094-1.918 1.633-2.883-1.11.719-2.211 1.438-3.313 2.176.563.234 1.121.46 1.68.707Zm-42.797 211.183c-.61.137-1.21.274-1.809.403.149.344.313.691.473 1.043.442-.473.883-.965 1.336-1.446Zm157.953-70.218a114.903 114.903 0 0 0-.414-5.293c.129-1.367.238-2.746.324-4.114-.539-.039-1.09-.066-1.64-.097-.63.953-1.266 1.898-1.918 2.844.12.086.226.187.347.273.223.012.45.04.676.059.258-.422.5-.836.758-1.258a150.887 150.887 0 0 1 1.7 6.156c-.067.55-.138 1.102-.216 1.652-.984.68-1.976 1.348-2.98 2 .148 1.286.277 2.594.394 3.895a88.796 88.796 0 0 0 1.582-1.379c-.293.422-.578.836-.875 1.25a117.642 117.642 0 0 0 2.262-5.988Zm-54.918 90.195ZM336.97 500.293c-.367-.648-.719-1.297-1.082-1.957.351.648.715 1.309 1.082 1.957Zm-22.531-150.816c.187-.395.382-.797.578-1.192h-1.836c.414.402.836.797 1.257 1.192Zm181.664 38.859c-.75.277-1.497.55-2.243.828.079.649.157 1.29.227 1.945.676-.921 1.344-1.847 2.016-2.773Zm-1.29 27.031c.356-.707.708-1.426 1.043-2.152a108.422 108.422 0 0 0 2.633-3.305 129.307 129.307 0 0 1-3.675 5.457Zm-188.16-39.422c.375-.246.746-.504 1.121-.738a55.092 55.092 0 0 1-.804-1.496c-.531.492-1.055.992-1.567 1.496.426.246.836.5 1.25.738Zm69.082 149.086c.168.305.336.602.512.895.258-.492.52-.985.785-1.477a69.575 69.575 0 0 1-4.39-2.015c-.141.789-.266 1.586-.407 2.37-.332-.136-.668-.265-1.011-.413 1.496.257 3 .472 4.511.64Zm31.809-10.535c-.156-.09-.305-.187-.45-.273a52.166 52.166 0 0 1-2.882 2.183 143.717 143.717 0 0 1-.766 3.953c-.324.008-.648.02-.972.02-.098-.867-.196-1.73-.297-2.606a61.081 61.081 0 0 0 1.969-3.039c-.305-.445-.61-.886-.907-1.34-.648.149-1.297.286-1.957.403.219.55.446 1.094.672 1.633-.445.562-.894 1.133-1.36 1.683.06 1.082.118 2.172.188 3.266-.531-.797-2.773-4.703-3.086-5.016-.11-.097-.687-1.21-.816-1.426.148-.082.836-.464.926-.484.027-.008.203-.105.242-.129-.04-.066-.184-.449-.203-.469-.059-.07-.324-.75-.383-.878-.531.187-1.074.375-1.606.543-.027-.442-.058-.895-.078-1.336a76.079 76.079 0 0 1-3.586 2.632c.188.13.372.266.57.395a112.472 112.472 0 0 1-1.956 4.023c.343-1.16.68-2.332 1.004-3.5.007-1.125.027-2.246.046-3.367-1.14.051-2.289.07-3.43.051.325.887.66 1.75 1.024 2.617-.543.117-1.101.227-1.652.332a49.993 49.993 0 0 1-1.25-1.308 120.133 120.133 0 0 1-1.914 3.257c.254.52.508 1.043.773 1.563.621-.313 1.23-.629 1.84-.953.559.344 1.121.68 1.692.992-.442.71-.907 1.43-1.38 2.137a69.106 69.106 0 0 1-5.835-1.094c.363-.688.726-1.387 1.09-2.074a66.308 66.308 0 0 1-4.52 1.379c.844-.778 1.68-1.567 2.496-2.371a52.793 52.793 0 0 1-3.195-5.688 271.466 271.466 0 0 1 1.594-5.457 62.78 62.78 0 0 0-.16 2.418c-.383.227-.758.453-1.141.668.14-.668.277-1.336.433-2.004a60.12 60.12 0 0 1-4.058 1.79 30.11 30.11 0 0 1-1.278-.65c.04-.363.079-.73.125-1.1.336-.18.66-.376.996-.563.196.464.403.933.618 1.398a85.232 85.232 0 0 1-.07-4.113c-.481.504-.962.984-1.454 1.465-.008-.5-.008-1-.008-1.512a170.39 170.39 0 0 1-2.183 2.594 162.303 162.303 0 0 0-.926 3.296 67.303 67.303 0 0 1-3.086-1.859l.356-.984c.234.16.472.304.695.453.59-1.063 1.18-2.113 1.781-3.176-.805.027-1.613.027-2.41.02-.008-.032-.047-.207-.059-.22-.007-.007-.058-.273-.066-.312.371-.414.746-.816 1.11-1.23a66.012 66.012 0 0 1-1.86-1.77c-.52.598-1.031 1.2-1.563 1.79a94.358 94.358 0 0 1 1.633-5.864c-.293-.234-.59-.48-.875-.726-.402-.207-.804-.403-1.199-.622a164.936 164.936 0 0 1-3.871 3.168c.894.227 1.797.422 2.71.59.04-.668.09-1.336.15-2.004.558.04 1.12.059 1.671.079-.058.675-.11 1.367-.16 2.043a394.647 394.647 0 0 1-3.066 3.511c-1.18-.234-2.36-.52-3.508-.836.687-.875 1.387-1.75 2.082-2.633a91.28 91.28 0 0 1-.578-2.726c-.375.09-.746.176-1.121.258-.442-1.043-.844-2.098-1.25-3.16.504.375 1.004.75 1.527 1.113a92.988 92.988 0 0 1-2.105-3.68c-.7.059-1.395.11-2.102.156-.465.286-.926.582-1.387.868-.097.59-.199 1.18-.285 1.761a70.207 70.207 0 0 1-2.773-1.222c-.727.324-1.465.632-2.203.945a65.861 65.861 0 0 1-2.563-1.633c.352-.797.715-1.582 1.09-2.37a70.022 70.022 0 0 0 3.332 1.573c-.402-.66-.785-1.328-1.18-1.996a90.15 90.15 0 0 0 1.336-.46 93.764 93.764 0 0 1-1.73-4.645c-.598.492-1.188.984-1.77 1.465a91.959 91.959 0 0 1-2.445-3.747c-.422.157-.848.313-1.258.461a86.815 86.815 0 0 0 1.55 3.07c.169.66.356 1.317.544 1.977-.356.246-.7.492-1.051.727-.043.918-.07 1.84-.09 2.746a45.868 45.868 0 0 1-1.957-.441c-.7 1.109-1.387 2.23-2.062 3.363-.454-.445-.895-.875-1.34-1.32-.547.199-1.098.386-1.649.57 1.66 5.039 5.907 3.207 8.883 6.062 1.004-.336 2.008-.68 3.012-1.043-.672.914-1.34 1.836-1.988 2.774-.215-.238-.434-.485-.649-.719-.363.746-.707 1.504-1.062 2.262a73.907 73.907 0 0 0 7.03 2.015c-1.444.602-2.91 1.172-4.386 1.711-.52.887-1.039 1.774-1.543 2.668.473.63.965 1.239 1.446 1.86.867-.57 1.718-1.141 2.574-1.73 1.18.816 2.379 1.609 3.59 2.359a86.349 86.349 0 0 0 2.21-.797c.188.414.383.824.583 1.238-.739.031-1.477.031-2.215.039a236.922 236.922 0 0 1-3.5 3.07 88.097 88.097 0 0 0 3.285 3.825c.254-.512.512-1.012.777-1.524.512.117 2.809.504 3.067.629.375.168 3.441.55 4.058.64-.96 1.083-1.945 2.145-2.93 3.208a79.748 79.748 0 0 0 4.434 1.847 74.358 74.358 0 0 1-1.465-3.156c1.504.274 3.02.5 4.532.68.128 1.945.335 3.875.609 5.8.648-.785 1.289-1.574 1.918-2.378a82.495 82.495 0 0 1-.985-2.657c.247-.492.493-.992.731-1.484.973-.137 1.934-.316 2.898-.492-.343.582-.68 1.152-1.023 1.722.363.403.727.805 1.113 1.2a70.783 70.783 0 0 0 3.684-1.367c.031.609.07 1.218.117 1.84a79.71 79.71 0 0 0 2.93.609c.433-.563.855-1.133 1.27-1.692-.481 1.246-.966 2.508-1.446 3.758.55.274 1.101.531 1.66.785.098-.992.219-1.988.344-2.988.797.234 1.594.45 2.39.656.454-.105.883-.226 1.336-.343a64.879 64.879 0 0 0 4.63 2.636 76.177 76.177 0 0 0 4.964-2.707c.305-.41.602-.824.914-1.246-.453-.492-.902-.976-1.347-1.488.503.445 3.628 2.875 3.746 3.023.039.059.836.63.953.707 1.84.403 3.695.739 5.562 1.004.739-.258 1.477-.511 2.203-.797.297-.336.59-.691.887-1.023a78.71 78.71 0 0 0 .54-2.41c.48 1.07.984 2.133 1.495 3.187.364-.57.707-1.152 1.051-1.742-.394.137-.797.277-1.2.414-.07-.66-.136-1.32-.206-1.976a41.456 41.456 0 0 1-1.465-.829c.078-.894.156-1.789.215-2.675-.332-.293-.656-.59-.973-.903.453-.328.856-.699 1.258-1.074Zm88.547-96.887c-.13.727-.274 1.457-.402 2.184.68-.254 1.355-.512 2.035-.766a78.46 78.46 0 0 0-1.633-1.418Zm-190.176-14.773c-.086.59-.168 1.18-.254 1.789.078-.598.168-1.2.254-1.79Zm1.543-2.371c.75-.985 1.484-1.965 2.254-2.93-.68-.18-1.36-.344-2.027-.512-.649.598-1.286 1.211-1.926 1.82.558.54 1.129 1.09 1.699 1.622Zm182.344 52.957a150.5 150.5 0 0 0-1.016-3.61c-.61-.253-1.226-.519-1.836-.777.176.582.332 1.152.5 1.735-.648.273-1.285.539-1.937.796-.52-.16-1.032-.316-1.543-.464.058.906.101 1.812.14 2.726.973.942 1.934 1.879 2.88 2.84.921.05 1.859.082 2.78.121-.285-.2-.57-.406-.855-.601.5-.11 1.004-.215 1.504-.325-.195-.816-.402-1.633-.617-2.441Zm-38.77 49.23c.442.633.883 1.262 1.336 1.891a79.456 79.456 0 0 0 5.035-1.055c-.632-.008-1.25-.02-1.87-.047.238-.984.464-1.976.671-2.972.656.426 1.317.836 1.985 1.25.433-.895.843-1.809 1.257-2.715.07.875.118 1.762.168 2.637.98.59 1.965 1.171 2.957 1.75a114.338 114.338 0 0 0 1.957-6.207c-.343-.766-.699-1.532-1.05-2.29.609-.738 1.207-1.488 1.796-2.234a140.579 140.579 0 0 0-1.847-3.05c.078-.048.855-.5.855-.5.012 0 .52-.286.578-.325-.066-.453-.136-.894-.203-1.34-.531-.39-1.062-.785-1.605-1.168.672-1.132 1.32-2.273 1.957-3.433.777.039 1.555.078 2.32.097a205.057 205.057 0 0 0-3.805-4.406 85.282 85.282 0 0 1-.402 3.57c-.52.207-5.535 1.938-5.535 1.95 0 .007-.863.304-.953.332a96.01 96.01 0 0 1 .687 7.023c.285-.52.563-1.05.836-1.574a63.902 63.902 0 0 0 3.352-.441 99.407 99.407 0 0 1-.973 2.753c.344.493.668.985 1.004 1.485a85.346 85.346 0 0 1-3.812-.649c-.266 1.309-.551 2.618-.868 3.926a76.71 76.71 0 0 1-2.91-.355 80.176 80.176 0 0 1-1.445 4.742c-.5.473-.992.914-1.473 1.355ZM481.72 343.23c-.883.715-1.758 1.434-2.653 2.141 1.079.031 2.16.063 3.243.102-.235.351-.473.707-.707 1.07.648.11 1.296.238 1.957.355.293-.484.578-.953.875-1.437a93.568 93.568 0 0 0-2.715-2.23Zm-157.176-6.886c-.137-.563-.285-1.121-.414-1.684.129.57.277 1.133.414 1.684Zm139.402-22.711c.532.125 1.075.265 1.594.41-.047-.41-.117-.824-.176-1.227-.472.274-.953.54-1.418.817Zm27.192 57.207a95.79 95.79 0 0 0-2.114-1.781c-1.101-.383-2.203-.758-3.304-1.133.304-.246.61-.488.914-.746.738.355 1.484.707 2.21 1.074-.292-1.3-.609-2.59-.933-3.879-.176.59-.351 1.191-.527 1.781-.848-.156-1.703-.304-2.559-.441.09-.649.18-1.29.246-1.938-.617.235-1.238.48-1.855.707.117.954.223 1.918.324 2.871.836.602 1.66 1.223 2.477 1.84-.18.668-.356 1.34-.532 1.996.805-.351 1.614-.707 2.418-1.062a191.697 191.697 0 0 1 2.036 3.187c.617-.312 1.226-.636 1.847-.953-.215-.5-.433-1.011-.648-1.523ZM378.203 295.7c.817-.255 1.633-.512 2.445-.747.829.324 1.653.649 2.47.992-.235-1.218-.462-2.449-.688-3.668-1.348.235-2.696.5-4.04.786-.058.878-.117 1.761-.187 2.636Zm112.078 149.62c.04.352.09.707.13 1.063.284.176.577.344.855.52.242-.493.48-.993.714-1.485-.57-.031-1.128-.059-1.699-.098Zm-68.406 80.516Zm54.45-191.293c-.052.383-.11.789-.16 1.172.698-.078 1.405-.16 2.105-.238l.175-1.2c-.718.078-1.414.176-2.12.266Zm7.066 23.234c.757-.136 1.511-.277 2.27-.414.401-.562.816-1.133 1.21-1.691-1.16.7-2.312 1.406-3.48 2.105Zm2.023 1.012.059 1.613c-.754.13-1.512.258-2.27.395-.215.863-.441 1.719-.668 2.586 1.828-.059 3.656-.098 5.496-.13a218.905 218.905 0 0 0-2.617-4.464Zm-13.289 127.094c.61.297 1.23.57 1.84.867-.61-.285-1.23-.57-1.84-.867Zm-58.781 42.238c-.336.047-.68.098-1.012.156.332-.05.676-.109 1.012-.156Zm-80.79-39.789c.333-.539.676-1.07 1.02-1.613.797.039 1.594.058 2.39.078a91.607 91.607 0 0 1-2.28-2.332c-.395.082-3.579.68-3.645.719-.031.02-.387.09-.445.109a.68.68 0 0 1 .09.098c.09.175 2.527 2.605 2.87 2.941Zm-10.745-30.07c.218.265.453.543.668.808-.332.118-.657.227-.993.344.356.66.72 1.309 1.082 1.957.403-.5.805-.992 1.22-1.496.394 1.133.816 2.262 1.237 3.395-.265.195-.539.394-.804.59-1.446-.395-2.89-.798-4.324-1.239a114.2 114.2 0 0 0 5.304 4.7c.356-.048.7-.098 1.055-.145.176.433.363.863.539 1.297.11-.551.215-1.102.336-1.66.883-.208 1.77-.407 2.652-.614a134.197 134.197 0 0 0 2.41 4.653c-.57.336-1.14.68-1.71 1.015.382.824.777 1.64 1.18 2.457.816.68 1.648 1.34 2.495 2 .953.41 1.918.817 2.88 1.2-.552-.778-1.09-1.567-1.622-2.352-.473-1.89-.906-3.79-1.297-5.695-.336.07-.668.128-.992.187a152.99 152.99 0 0 1 1.227-6.324c.109.265.226.539.336.816.53-1.594 1.101-3.18 1.68-4.754-.333.063-.688.121-1.032.188a145.235 145.235 0 0 1-3.047-7.8 287.78 287.78 0 0 1 3.637-3.974 131.79 131.79 0 0 1-2.113-3.68 130.122 130.122 0 0 1-4.59-1.738c-.621.657-1.25 1.317-1.86 1.997-.027-.504-.039-1.012-.058-1.516-.54.07-1.09.137-1.633.207.012-1.29.039-2.578.07-3.867-.078.62-.156 1.242-.226 1.87-.797-.491-1.582-.984-2.368-1.484.235 1.997.5 3.98.805 5.97 1.55-.09 3.117-.196 4.668-.294a152.09 152.09 0 0 0 2.477 7.168c-.371.68-.735 1.36-1.102 2.047a174.95 174.95 0 0 1-1.933-2.863c-1.004.484-2.016.965-3.02 1.457-.086.797-.176 1.594-.246 2.39-.617-.484-1.246-.957-1.856-1.445.164.531.344 1.082.512 1.613.047-.878.117-1.761.176-2.648-.953-.117-1.899-.246-2.852-.383-.355.031-.699.051-1.05.07-.356.708-.7 1.426-1.043 2.145-.414-.148-.825-.297-1.227-.445a113.905 113.905 0 0 0 3.91 3.492c.137.137.285.266.442.383Zm3.007-23.153c-.039-2.39-.027-4.77.02-7.152-.707-.227-1.414-.453-2.121-.687.402-.239.805-.493 1.219-.727.597.254 1.207.512 1.816.766.05-2.508.14-5.016.266-7.536.402.707.808 1.426 1.23 2.137.195-1.918.402-3.848.649-5.758-.473-.097-.946-.203-1.415-.304-.406.297-.816.601-1.218.898-.168-.582-.336-1.183-.504-1.762-.656.067-1.317.137-1.985.215.079 1.832.176 3.649.293 5.48a211.7 211.7 0 0 1-.953-5.41c-1.738.364-3.488.72-5.226 1.083a171.508 171.508 0 0 1-2.418-4.16l-.446 2.269c-.558 1.152-1.109 2.305-1.66 3.453.739 2.41 1.516 4.8 2.34 7.172.344.129.688.246 1.031.375-.757.914-1.504 1.836-2.25 2.762-.785-.61-1.554-1.22-2.328-1.84.078 1.18.184 2.363.274 3.531.62-.363 1.23-.738 1.84-1.101.273.503.546.996.832 1.496.64-.297 1.27-.57 1.898-.856.148.156.297.305.434.453.168.953.332 1.899.511 2.84.805-.5 1.621-1 2.438-1.492.168.922.344 1.848.52 2.773.777.54 1.554 1.082 2.34 1.614.362-.414.737-.829 1.109-1.239.07.325.128.649.199.973.441-.098.855-.18 1.265-.266Zm158.633 29.153c.375.246.758.492 1.13.73.237-.55.464-1.12.679-1.683-.59.336-1.2.648-1.809.953Zm-2.418 7.14c-.906.13-1.8.239-2.703.348-.129-.523-.254-1.035-.394-1.555.57-.382 1.132-.777 1.691-1.172-.54-.421-1.07-.855-1.613-1.277-.528.402-1.07.777-1.61 1.16-.816-.648-1.62-1.297-2.437-1.937.45-.422.894-.856 1.344-1.29-.372-.245-.754-.491-1.13-.745a153.413 153.413 0 0 1-2.1 3.753c.804.575 1.608 1.165 2.417 1.743a129.374 129.374 0 0 1 2.18 3.058c1.27-.02 2.535-.039 3.797-.086.422-.375.843-.75 1.277-1.132a33.706 33.706 0 0 0-.719-.868Zm-1.219 3.946c-.906.789-1.808 1.547-2.734 2.3.387.22.77.426 1.16.641a96.092 96.092 0 0 0 1.575-2.941Zm-44.804 43.28c.156-.07 1.062-.483 1.133-.491.195-.032 2.171-1.004 2.515-1.16-.422-.395-.847-.809-1.277-1.211-.207.558-.973 2.293-1.055 2.714-.097.493-1.297 2.961-1.59 3.57.106-1.14.207-2.28.274-3.421Zm-58.23-222.237c-.7-.16-1.407-.297-2.114-.446a63.35 63.35 0 0 1 2.113.446Zm17.202 231.62c-.402-.57-.808-1.16-1.199-1.741-.75.238-1.496.472-2.242.69 1.14.384 2.29.727 3.441 1.052Zm-78.52-82.12c.61-.692 1.22-1.38 1.837-2.067.7-.336 1.406-.687 2.113-1.023.402.168.797.344 1.2.512a223.65 223.65 0 0 1-.372-4.625 220.683 220.683 0 0 0-5.789 5.843c.332.453.676.906 1.012 1.36Zm7.313-105.829c.7.333 1.387.676 2.082 1.012.239-.363.485-.726.73-1.082-.757-.414-1.515-.824-2.272-1.238-.188.441-.364.875-.54 1.308Zm5.88-7.398Zm62.585-43.367c-.058.746-.12 1.496-.187 2.242.777-.64 1.55-1.277 2.328-1.937a55.323 55.323 0 0 0-2.14-.305Zm99.653 89.098c-.176.855-.344 1.71-.532 2.574.188-.864.364-1.719.532-2.574Zm-.825 5.082c.02 1.586.02 3.18.008 4.773-.539.066-1.09.137-1.633.215-.488-.395-.98-.797-1.484-1.192-.098.926-.215 1.852-.332 2.786.746.543 1.484 1.093 2.21 1.652 1.052.434 2.103.875 3.145 1.32.06-2.422.079-4.84.06-7.27-.65-.769-1.306-1.527-1.974-2.284Zm-50.328 118.175a83.227 83.227 0 0 1-.258 5.852c-.066.305-.136.598-.195.902a78.64 78.64 0 0 1-3.293-1.789c-.246.156-.504.305-.746.465.813.785 1.649 1.55 2.484 2.32.04.5.07 1.004.098 1.516-.648.39-1.305.785-1.973 1.16.489.863.98 1.719 1.485 2.586.078-.816.156-1.644.203-2.46.227-.384.445-.766.66-1.15.746.473 1.492.934 2.25 1.387.219.766.414 1.543.621 2.32a99.195 99.195 0 0 0 4.305-2.085c.726.16 1.453.297 2.191.433.157-.66.305-1.328.442-1.988-.461-.332-.922-.668-1.375-1-.403.156-.805.305-1.207.45-.317-.844-.64-1.692-.965-2.528.383-.293.777-.578 1.16-.883a141.211 141.211 0 0 0-1.781-4.91c.601.363 1.191.719 1.789 1.082-.156-.441-.324-.883-.488-1.316 1 .609 2.003 1.207 3.027 1.789.156 1.199.293 2.39.402 3.582.649-.524 1.278-1.055 1.918-1.594-.64-.492-1.27-.984-1.91-1.496.121-.227.238-.442.356-.668.414.226.824.46 1.238.687.207-.648.414-1.289.61-1.937-.688-.277-1.368-.55-2.044-.836.746-.953 1.485-1.918 2.192-2.89a92.835 92.835 0 0 0 1.847-5.157c-.207-.098-.414-.207-.62-.316a73.944 73.944 0 0 1-2.99 1.664c-.39-.403-.784-.797-1.179-1.2a81.54 81.54 0 0 1-.125 5.172c-.914-.656-1.82-1.328-2.715-1.996.395-1.23.746-2.468 1.082-3.718a106.48 106.48 0 0 1-1.859-1.012c-.254 1.18-.54 2.36-.855 3.531.168.738.316 1.484.464 2.223.41.363.825.726 1.239 1.082a74.493 74.493 0 0 1-3.934-.57 60.51 60.51 0 0 1-1.898.667 93.6 93.6 0 0 1 .53 2.48c.856.06 1.724.106 2.579.13-.926.039-1.84.039-2.762.02Zm-115.816-35.617c-.41.067-.836.137-1.258.203.156.985.316 1.98.484 2.961.254-1.05.508-2.113.774-3.164Zm160.137-24.594c.55-.402 1.09-.816 1.632-1.226-.277-.828-.562-1.664-.855-2.48a119.167 119.167 0 0 1-3.695 6.07c.668.511 1.316 1.023 1.972 1.535.465-.926.914-1.86 1.36-2.785 1.75.746 3.488 1.523 5.226 2.312a83.587 83.587 0 0 0-.117-2.43c-.766-.09-1.531-.18-2.289-.257.55-.41 1.102-.836 1.652-1.258-.265-.402-.53-.817-.797-1.219-.218.047-.441.098-.66.137a126.77 126.77 0 0 1-2.418 3.148c-.343-.523-.675-1.035-1.011-1.547Zm-1.524 18.868c.48.64.953 1.289 1.426 1.937.266-.078.52-.176.785-.254-.344-.601-.687-1.203-1.031-1.8-.277.09-.55.175-.824.253-.121-.047-.239-.086-.356-.136Zm-67.008 51.445c.52 2.152 1.04 4.305 1.563 6.45-.344.198-.688.386-1.031.562 2.082 5.824 2.945-2.036 4.668-2.618.5.317 1.003.622 1.503.914-.875.77-1.789 1.508-2.703 2.215.48.914.973 1.82 1.473 2.723-.54.73-1.11 1.457-1.68 2.164a82.202 82.202 0 0 1-2.652-1.426c-.09.7-.188 1.407-.285 2.106.941.363 1.875.699 2.84 1.011a69.16 69.16 0 0 0 4.46-4.367 69.92 69.92 0 0 0 3.59.563 79.285 79.285 0 0 0 5.868-1.438c-.512-.5-1.004-1.011-1.504-1.523-1.465.316-2.95.59-4.434.828a77.34 77.34 0 0 1-1.621 1.258c-.11-.305-.215-.61-.324-.914.312-.356.617-.711.933-1.074.532.05 1.063.09 1.594.117.352-.383.695-.766 1.031-1.16a75.298 75.298 0 0 0 1.043-4.082c-.03.503-.062 1.003-.09 1.515.481-.09.954-.176 1.434-.265a244.626 244.626 0 0 0-1.078-4.278c.215-.719.41-1.445.61-2.176a55.692 55.692 0 0 1-3 2.204 59.258 59.258 0 0 1-4.61-1.7c.156.785.305 1.575.46 2.36-.472.53-.96 1.062-1.452 1.574-.64-.953-1.27-1.93-1.887-2.902-.406.265-.808.53-1.219.789-.375-.711-.73-1.418-1.082-2.137-.218.195-.445.383-.66.57-.156-.539-.305-1.082-.46-1.613-.286.207-.571.402-.868.601.356 1.051.711 2.106 1.063 3.157-.293-.274-.579-.551-.875-.836-.207.285-.403.55-.618.828Zm56.028-184.48c-.047-.512-.098-1.024-.149-1.536.051.512.102 1.035.149 1.535Zm17.574 107.038c.777.747 1.547 1.516 2.3 2.282-.753-.766-1.53-1.524-2.3-2.281Zm-13.375 43.172c-.426-.425-.836-.847-1.27-1.261.442-.332.864-.676 1.297-1.012-.863-.461-1.738-.934-2.605-1.399-.184.563-.371 1.133-.559 1.696-.582.137-1.16.262-1.738.383.273-1.141.527-2.282.773-3.434-.39-.207-.785-.422-1.18-.621-.804.57-1.609 1.121-2.425 1.672-.297.984-.602 1.969-.926 2.941.719.524 1.426 1.055 2.145 1.586-.246.402-.493.817-.746 1.227l-1.77-.293c.215 1.14.402 2.293.59 3.441 1.148.856 2.289 1.723 3.43 2.586.304-1.09.59-2.183.875-3.285a120.598 120.598 0 0 0-2.293-5.84 215.5 215.5 0 0 1 1.703 2.371c.48.285.96.578 1.445.856.098.922.188 1.847.254 2.773.68-.078 1.355-.16 2.035-.246.356-1.379.668-2.754.965-4.14Zm-7.738 9.746c-.352-.05-.707-.109-1.063-.168-.242.915-.508 1.82-.785 2.727.719.137 1.445.254 2.172.383-.098-.985-.207-1.957-.324-2.942Zm-53.325 37.95Zm73.704-118.664c.449.148.902.293 1.355.441.04-.09.363-.887.375-.894.008-.012.176-.461.195-.512-.187.097-.984.472-1.09.562-.058.059-.718.344-.835.403Zm.746-4.547c.984-.067 1.957-.137 2.937-.203-.144-.653-.273-1.29-.422-1.942-.52.621-1.05 1.23-1.582 1.84-.312.02-.617.05-.945.07a258.222 258.222 0 0 0-1.363-4.043c-.485.766-.965 1.536-1.457 2.293.472.332.945.668 1.418 1.004-.395.578-.797 1.16-1.211 1.739a187.716 187.716 0 0 1 2.222 3.218c.137-1.32.274-2.648.403-3.976Zm-.758 22.87c-.156-.784-.324-1.573-.492-2.37-1.532-.274-3.067-.551-4.598-.824-.031.402-.059.804-.09 1.199.649.226 1.29.453 1.938.68a95.87 95.87 0 0 1 .98 3.675c.16 1.457.305 2.914.406 4.38a55.848 55.848 0 0 0-.406-1.821 114.29 114.29 0 0 0 2.254-2.094c1.102.117 2.21.246 3.313.371a141.965 141.965 0 0 0-3.305-3.195Zm1.722-1.132c.176.543.352 1.082.52 1.625-.168-.55-.344-1.082-.52-1.625Zm-176.043-12.836c.278-.578.551-1.168.829-1.75-.13-.453-.258-.914-.383-1.375l-3.008.766a281.48 281.48 0 0 0 2.563 2.36Zm175.61 19.82c-.363.305-.727.602-1.102.907.66.097 1.317.187 1.977.285-.297-.395-.582-.797-.875-1.192Zm-171.461 8.204a189.723 189.723 0 0 1-.274-4.73c-.226.66-.44 1.315-.667 1.976a40.014 40.014 0 0 1-1.457-.493c.789 1.102 1.582 2.176 2.398 3.247Zm16.426 41.94c-.371-.206-.746-.401-1.11-.616.364.207.739.41 1.11.617Zm-1.492 2.716c1-.274 1.996-.57 2.988-.863-.09-.297-.168-.61-.266-.895a2.504 2.504 0 0 1-.078-.336c-.738.254-1.476.512-2.215.766-.164-.067-.332-.145-.488-.215.156-.363.332-.727.488-1.102-.144.797-.242 1.692-.41 2.457-.02.043-.02.14-.02.188Zm-4.485-11.547c-.402.187-.805.363-1.207.55.402-.187.805-.374 1.207-.55Zm158.692-78.473c-.157.68-.317 1.348-.48 2.016.913.176 1.815.355 2.73.543-.747-.856-1.493-1.715-2.25-2.559Zm-52.454 121.711-.234.07c-.11.07-.973.297-1.16.344l.148 1.407c.149-.208 1.024-1.512 1.09-1.583.012-.011.13-.207.156-.238Zm-96.859-27.539a260.187 260.187 0 0 1 2.793-3.07c-.652-.39-1.3-.797-1.937-1.2a123.15 123.15 0 0 0-.856 4.27Zm9.887-167.422.504-1.297c-.168.442-.344.875-.504 1.297Zm141.273 91.645c-.441-.078-.883-.16-1.336-.238-.422.777-.855 1.535-1.289 2.292 1.004-.253 2.016-.511 3.02-.777-.13-.422-.266-.844-.395-1.277Zm-75.836 107.398c-.511.219-1.004.434-1.511.633.304.5.609.992.921 1.484.207-.699.403-1.406.59-2.117Zm72.504-108.875c.137.336.254.66.383.985.324-.247.64-.504.953-.75-.45-.086-.894-.164-1.336-.235Zm-6.93 37.613a115.47 115.47 0 0 1 1.543 4.075c.383-.828.758-1.664 1.122-2.5-.887-.532-1.77-1.051-2.664-1.575Zm-151.289 2.254a161.41 161.41 0 0 1-.757-3.777c-1.04-.05-2.094-.11-3.133-.18a128.056 128.056 0 0 0 3.89 3.957Zm126.766 44.352c.254.363.52.727.785 1.102.227-.247.453-.493.676-.73-.48-.118-.973-.247-1.46-.372Zm-115.168-13.832c-.086-.274-.164-.578-.254-.856-.05-.156-.09-.382-.129-.55-.383.226-.765.445-1.16.668.059.03.629.265.629.265.012.012.828.426.914.473Zm143.867-89.254c-.539-.039-1.09-.066-1.629-.105.098.804.188 1.613.274 2.41.894.086 1.789.183 2.676.273-.446-.867-.875-1.723-1.32-2.578Zm-4.324-18.402c.453-.52.906-1.043 1.348-1.563-.453.52-.907 1.043-1.348 1.563Zm2.106 21.875c.175.71.351 1.406.52 2.117.46-.867.933-1.723 1.374-2.598-.629.168-1.266.324-1.894.48Zm-46.38 111.68c-.402-.266-.804-.54-1.206-.817-.149.473-.297.945-.454 1.418.157.285.325.57.493.855.402-.48.785-.964 1.168-1.457Zm-89.183-30.579 1.063-1.527c.824-.313 1.64-.629 2.457-.953-.286-.285-.57-.559-.844-.856-1.055.582-2.106 1.18-3.156 1.77-1.075.16-2.145.297-3.227.445.148-.473.285-.945.434-1.406-.856.078-1.711.144-2.575.195.383 1.211.778 2.41 1.2 3.602 1.562-.414 3.105-.828 4.648-1.27Zm132.84-84.289c.61.387 1.226.758 1.828 1.153-.602-.395-1.219-.766-1.828-1.153Zm-.227 45.012c-.582.61-1.18 1.219-1.77 1.82.403.246.817.5 1.227.746-.097.465-.203.926-.312 1.387.473-.117.953-.246 1.433-.383-.175-1.199-.363-2.39-.578-3.57Zm-4.648 11.715c.008 1.074 0 2.144-.02 3.215a71.82 71.82 0 0 0 2.485-1.18c-.817-.676-1.64-1.356-2.465-2.035ZM338.215 470.46c.176-.649.355-1.3.543-1.957l-1.387.176c.274.601.559 1.191.844 1.78Zm122.96 2.988c-.48.383-.972.758-1.464 1.133.148.176.305.352.453.531 1.285.04 2.574.059 3.871.059-.953-.57-1.906-1.152-2.86-1.723Zm-47.495 37.367a34.467 34.467 0 0 1-2.035-.953c.066.668.117 1.34.175 1.996.856.532 1.73 1.055 2.614 1.536-.254-.844-.512-1.711-.754-2.579Zm55.722-55.011c.364.55.727 1.11 1.082 1.672a126.785 126.785 0 0 0 1.875-3.04 96.77 96.77 0 0 1-2.957 1.368Zm-4.886 11.644c.367.524.73 1.043 1.093 1.574.254-.273.52-.55.778-.836-.621-.246-1.242-.492-1.871-.738Zm-6.243 10.586a97.816 97.816 0 0 1-1.68 3.55c.622-.077 1.231-.179 1.84-.276-.038-1.09-.09-2.192-.16-3.274Zm-127.558-53.344c-.098-.648-.195-1.277-.285-1.925.09.648.187 1.277.285 1.925Zm-2.309.364c-.117-.746-.226-1.485-.344-2.223a211.695 211.695 0 0 0-.421 9.465c.164 1.387.343 2.762.539 4.148.441 1.567.902 3.118 1.386 4.672.442.387.895.77 1.356 1.14.578.09 1.18.18 1.758.259-.39-.621-.793-1.25-1.18-1.88.652-.156 1.3-.316 1.95-.48.39-.672.796-1.34 1.198-2a109.573 109.573 0 0 1-2.515-3.785c.117-.512.234-1.023.363-1.535.785-.578 1.57-1.149 2.36-1.723.488.239.992.465 1.484.692.027-.965.066-1.93.105-2.895a80.088 80.088 0 0 1-1.894-1.12c-1.055.995-2.106 2-3.149 3.01l-.41 1.329c-.492-.809-.976-1.613-1.445-2.43.805.168 1.621.332 2.426.492-.856-1.574-1.68-3.16-2.477-4.761l.176-.797c-.422.137-.844.277-1.266.422Zm-1.562-12.39c-.465.823-.926 1.64-1.38 2.468.454-.828.915-1.645 1.38-2.469Zm.746-3.208a126.22 126.22 0 0 1-1.75-.375c-.04.785-.059 1.563-.078 2.352a79.31 79.31 0 0 1 1.828-1.977Zm10.45 49.8c-.544-.491-1.083-.976-1.614-1.476.543.5 1.082.985 1.613 1.477Zm-11.935-51.808c.305-.363.598-.726.903-1.082-.363-.512-.727-1.031-1.078-1.543.047.875.117 1.75.175 2.625Zm1.387-13.633c-.789.442-1.562.895-2.34 1.356.778-.45 1.563-.902 2.34-1.356Zm26.067 94.348c.336-.648.668-1.289 1.011-1.937-.304-.215-.61-.422-.914-.637-.039.855-.066 1.71-.097 2.574Zm-12.266-27.902a95.8 95.8 0 0 1 1.207-3.2 189.479 189.479 0 0 0-4.402 4.97c1.062-.59 2.132-1.18 3.195-1.77Zm130.055-81.969c.73-.383 1.445-.773 2.164-1.16-.719.394-1.434.777-2.164 1.16Zm-33.684 117.848c.54.71 1.09 1.406 1.64 2.105-.55-.707-1.09-1.406-1.64-2.105Zm-94.191-26.211a75.996 75.996 0 0 1-1.641-.317c.543.11 1.094.207 1.64.317Zm-4.551-17.934c-.086.102-.176.207-.254.317-1.102.136-2.203.273-3.305.402.219.336.446.66.66.984.11-.039.227-.07.336-.11.461-.007.914-.026 1.375-.046.395-.512.797-1.035 1.188-1.547Zm12.887 32.805a32.672 32.672 0 0 1-.118-1.258c.032.414.079.836.118 1.258Zm-11.383-21.434c.562-.086 1.133-.195 1.71-.293a65.768 65.768 0 0 1-2.199-1.8c.118.855.243 1.722.383 2.585.028-.168.067-.324.106-.492Zm130.46-83.972c.02 1.164.02 2.332.012 3.503.786.028 1.563.079 2.348.118a150.92 150.92 0 0 0-2.36-3.621ZM441.438 490.8c-.875.648-1.769 1.27-2.683 1.879.176.718.344 1.445.5 2.175.523-.425 1.043-.878 1.555-1.308.39.246.796.48 1.199.715.187-.313.37-.649.57-.973-.363-.824-.758-1.66-1.14-2.488Zm-82.472-3.906a59.916 59.916 0 0 1-1.895-1.829c-.562.532-1.12 1.075-1.683 1.614 1.18.097 2.379.175 3.578.215Zm-17.82-136.77Zm-10.891 55.457c.07-.523.148-1.055.215-1.574-.512.472-1.031.941-1.543 1.426.441.046.894.097 1.328.148Zm117.7 77.883c-.02.55-.028 1.101-.06 1.652.032-.55.04-1.101.06-1.652Zm-115.165-58.113c.582.09 1.16.175 1.742.265a150.43 150.43 0 0 1-1.379-4.75c.485-.492.965-.984 1.457-1.476-.406-.524-.808-1.055-1.199-1.575a210.562 210.562 0 0 0-.62 7.536Zm-.039-44.293c-.07-.551-.129-1.102-.176-1.653-.097-.078-.199-.148-.297-.226a6.271 6.271 0 0 0-.312-.215c-.621.46-1.23.933-1.828 1.414.875.238 1.738.465 2.613.68Zm52.777-66.09c.54.226 1.09.46 1.63.687-.118-.441-.247-.875-.364-1.316-.422.215-.844.422-1.266.629Zm-52.836 63.445a54.702 54.702 0 0 0 0 0Zm91.387 121.938a41.066 41.066 0 0 1-.265 1.593c.226-.097.453-.207.68-.316a81.99 81.99 0 0 1-.415-1.277Zm-90.562-84.286c-.41-.796-.825-1.586-1.227-2.382.39.796.805 1.586 1.227 2.382Zm2.761 21.7c.207.421.426.843.63 1.27-.204-.427-.41-.849-.63-1.27Zm-1.855-34.243c-.031-.41-.05-.824-.07-1.238-.739.453-1.473.914-2.22 1.38.766-.052 1.524-.09 2.29-.142Zm7.508 44.766-.637 1.348c.207-.453.422-.895.637-1.348Zm2.437-94.004h-.097c-.266-.07-1.09-.09-1.415-.117.149.008 1.395.117 1.415.117h.097Zm11.485-9.441c-.414-.672-.817-1.36-1.23-2.04-.196.2-.384.395-.571.59.61.485 1.21.965 1.8 1.45Zm6.851-8.02c.774.504 1.543 1.016 2.309 1.535-.512-.726-1.012-1.457-1.524-2.183-.297-.051-.601-.098-.894-.149.039.266.078.532.11.797Zm-34.867 198.367c.066.836.156 1.664.254 2.5a106.943 106.943 0 0 1-2.73-2.421c.324-.176.636-.352.952-.532.5.149 1.012.297 1.524.453Zm.797-244.93c-.317-.73-.63-1.456-.934-2.183.137 1.012.285 2.035.442 3.047-.934.324-1.86.66-2.782 1.004-.445-.207-.894-.414-1.34-.617a198.57 198.57 0 0 1 2.684-4.715c1.309.633 2.606 1.27 3.895 1.93-.649.511-1.309 1.023-1.965 1.535Zm26.805-20.136c-.266.64-.52 1.29-.778 1.93-.453-.512-.902-1.016-1.355-1.516a180.396 180.396 0 0 1 11.57-4.418c-1.29.867-2.578 1.723-3.855 2.598-.5.492-.993.984-1.485 1.484.324.336.649.66.973.996a242.047 242.047 0 0 0-3.93 2.82c-.383-1.285-.758-2.585-1.14-3.894Zm-30.622 260.059c-.027-.5-.058-.993-.078-1.504.59.894 1.2 1.77 1.809 2.656-.57-.375-1.149-.758-1.73-1.152Zm52.149-267.977c-.137.777-.285 1.555-.422 2.344a89.629 89.629 0 0 0-5.703-.043 195.08 195.08 0 0 1 6.125-2.301Zm82.305 8.242c-.247.633-.493 1.27-.75 1.899-.098-.164-.61-.953-.637-1.051-.051-.168-.64-1.082-.766-1.297.242.047 1.207.273 1.363.273.09-.007.668.149.79.176Zm-171.973 81.887c-.52 2.016-.992 4.043-1.395 6.09.758.07 1.524.137 2.282.215-1.22.265-2.418.562-3.63.867a95.08 95.08 0 0 1 5.645-8.332c-.02.707-.012 1.406-.012 2.117a228.02 228.02 0 0 1-2.89-.957Zm81.547-74.54c-.364.052-.735.102-1.09.15-.395.316-.785.64-1.168.964.754-.375 1.512-.746 2.258-1.113Zm-28.418 53.009a113.02 113.02 0 0 1-.461-4.739c.824.61 1.64 1.207 2.457 1.817-.676.965-1.348 1.937-1.996 2.922Zm19.847 176.68c-.718.44-1.445.874-2.171 1.296.02-1.808.097-3.61.246-5.41.836.285 1.672.55 2.515.809-.57.953-1.129 1.918-1.691 2.879l1.101.425Zm7.903-195.477c1.847-.492 3.695-.945 5.562-1.336-.597.973-1.187 1.965-1.77 2.941.532.473 1.063.934 1.587 1.407-.04.382-.082.757-.11 1.14a204.817 204.817 0 0 0-1.976 3.176c-.531-.195-1.051-.395-1.582-.578-.442-.512-.883-1.035-1.317-1.535a75.333 75.333 0 0 1 1.551-1.387c-.648-.64-1.297-1.27-1.953-1.91-.012-.637 0-1.278.008-1.918Zm24.023 6.012c-.148.312-.285.628-.422.94.54.368 1.082.74 1.621 1.114.344-.531.68-1.062 1.024-1.601-.434-.149-.887-.297-1.328-.446.363-2.91 3.312-7.011 4.68-.992.206-.09.413-.176.62-.265-.167.796-.347 1.593-.523 2.39.324.344.64.688.953 1.043.934-.61 1.867-1.23 2.801-1.84a120.433 120.433 0 0 0-2.23-2.707c.128-.293.265-.597.394-.894a64.875 64.875 0 0 0-1.562-.817c-.118-.894-.247-1.789-.375-2.683.55-.219 1.101-.442 1.66-.649.246 1.207.492 2.43.75 3.637.578 1.074 1.14 2.156 1.71 3.227.325-.836.65-1.672.954-2.508.422-.156.844-.313 1.265-.473.317.363.622.738.934 1.102.18 2.527.336 5.066.504 7.593.441-.39.875-.796 1.305-1.199a297.304 297.304 0 0 0-7.332 3.64c-1.317.188-2.633.391-3.942.638-.09.414-.168.828-.246 1.242-1.297.472-2.594.941-3.871 1.453-.492-.363-.973-.727-1.465-1.082.117.426.246.867.371 1.3a162.515 162.515 0 0 0-5.101 2.31 122.341 122.341 0 0 0-6.036 2.429c-.332-.195-.648-.39-.98-.59.184.297.363.57.54.867a104.226 104.226 0 0 0-5.173-.601c-.066.425-.117.855-.183 1.289a143.934 143.934 0 0 0-3.54-2.301c1.051-.344 2.102-.68 3.153-.992-.746-.57-1.504-1.153-2.25-1.711 1.789.383 3.578.816 5.348 1.297.492-.727.992-1.446 1.503-2.164a33.622 33.622 0 0 0-.902-.926c.656-.285 1.305-.578 1.973-.863.082-1.075.18-2.145.277-3.22.067.977.156 1.95.246 2.915 1.278.39 2.535.805 3.793 1.238.336-.441.66-.887.992-1.32-.875-.766-1.75-1.531-2.632-2.281a125.076 125.076 0 0 1 8.562-2.95c.727-1.18 1.445-2.39 2.16-3.59Zm-4.129 7.168c.7-.489 1.407-.981 2.114-1.465-.707.484-1.414.984-2.114 1.464Zm-23.746 15.464c.934.512 1.856 1.012 2.781 1.543-.925-.52-1.847-1.03-2.78-1.543Zm170.66 82.102c.121 3.621.13 7.25.032 10.879-.559.078-1.121.148-1.692.226.551.973 1.114 1.957 1.64 2.95a158.593 158.593 0 0 1-1.01 4.488c-.188 1.148-.384 2.3-.59 3.453a190.427 190.427 0 0 1-2.75 5.418c.343 1.594.667 3.187.96 4.789-.816.996-1.648 1.977-2.496 2.953a190.317 190.317 0 0 1-1.719 8.399c-.816.472-1.64.933-2.457 1.386-.324 1.32-.66 2.649-1.015 3.953a157.666 157.666 0 0 0-.196-5.761c.344-3.297.61-6.59.766-9.895.426-.246.836-.492 1.262-.75.125-1.918.215-3.824.273-5.742.246-.059.492-.117.738-.18a181.28 181.28 0 0 0 2.645-4.632c-.434-.778-.855-1.532-1.3-2.29.71-.238 1.417-.472 2.136-.71.344-3.403.578-6.805.726-10.22a165.869 165.869 0 0 0 2.122-10.238c.16-5.34.078-10.69-.266-16.015.324-.117.64-.246.953-.363-.047-.137-.402-1.082-.402-1.149-1.63-5.844-.403-11.363-1.465-17.55.316-.04.629-.079.953-.118a262.489 262.489 0 0 0-1.02-17.793c-.582-.148-1.18-.277-1.761-.422-.41-1.015-.824-2.027-1.246-3.03.136-5.833-2.637-11.192-2.832-17.134.578.422 1.16.844 1.73 1.278a200.56 200.56 0 0 0-1.289-5.45 220.05 220.05 0 0 1 4.59 15.829c-.266.382-.52.777-.785 1.16.472.57.953 1.148 1.414 1.718.855 11 5.996 23.875 2.93 34.555.148.957.777 6.426.953 6.836.199.453.629 5.973.71 6.887-.562-.473-1.113-.934-1.671-1.387-.078 1.18-.18 2.36-.278 3.531.77-.48 1.543-.965 2.313-1.457a197.525 197.525 0 0 1-1.606 11.598ZM418.375 566.883c.277-.707.55-1.414.816-2.133-1.199-.156-2.386-.344-3.578-.531a90.465 90.465 0 0 1-1.828 1.543 109.234 109.234 0 0 1-3.656-1.27c.355-.695.7-1.394 1.043-2.094 1.031.13 2.082.239 3.125.336a116.313 116.313 0 0 0 4.258-1.937 89.716 89.716 0 0 0 2.398 2.32c.266-.629.531-1.258.785-1.89.54-.54 1.07-1.09 1.602-1.641 2.086.246 4.168.434 6.262.55a95.847 95.847 0 0 1-2.075 2.567 92.396 92.396 0 0 1-4.109-.738c.336.387.68.75 1.023 1.133a115.98 115.98 0 0 1-6.066 3.785Zm-91.367-210.7a68.84 68.84 0 0 1 1.898-1.663c.797.16 1.594.324 2.39.492l-1.769-.914c.086-.422.176-.848.266-1.27.812-.351 1.648-.7 2.484-1.023.364.453.739.906 1.121 1.347a65.658 65.658 0 0 0-3.359 5.145 48.02 48.02 0 0 1-1.043-1.633 81.327 81.327 0 0 0-1.988-.48Zm118.176-108.738c.875 1.121 1.73 2.25 2.562 3.39-6.808-1.956-17.172-6.694-23.984-6.655.336-.387.672-.778 1.015-1.164 4.973 1.41 15.649 1.242 19.067 4.644.445-.07.894-.148 1.34-.215Zm0 0"/>
    </g>
</svg>
