<svg xmlns="http://www.w3.org/2000/svg" viewBox="0 0 810 810" version="1.0">
    <defs>
        <clipPath id="a">
            <path d="M275.695 243h258.75v324h-258.75Zm0 0"/>
        </clipPath>
    </defs>
    <g clip-path="url(#a)">
        <path d="M381.023 438.328c-.242-.195-.488-.39-.73-.582l-2.625 3.242c.273.211.539.426.805.637.851-1.098 1.703-2.2 2.55-3.297Zm84.27-77.2-.797-.737-2.496 2.683c.27.25.54.504.816.754.825-.898 1.653-1.8 2.477-2.7Zm-8.113 9.938c-.297-.246-.59-.5-.883-.746-.863 1.02-1.723 2.04-2.586 3.059.305.258.613.516.918.77.851-1.028 1.703-2.055 2.55-3.083Zm-6.692 8.079c-.375-.372-.754-.743-1.136-1.122-1.11 1.395-2.215 2.786-3.329 4.172.313.266.618.528.934.79 1.176-1.278 2.356-2.56 3.531-3.84Zm-104.281-77.32 1.297-.305c-.258-1.122-.52-2.247-.777-3.368l-1.243.293c.239 1.125.48 2.254.723 3.38Zm18.05 157.609c3.598-1.407 5.833-3.52 5.427-8.961-2.414 3.98-3.922 6.468-5.426 8.96ZM466.88 311.43l1.133.968c2.113-2.863 4.218-5.726 6.328-8.593-.594-.39-1.195-.79-1.793-1.18-1.89 2.938-3.781 5.871-5.668 8.805ZM366.566 442.098c-.507-.29-1.02-.575-1.53-.868-3.579 3.817-6.614 7.985-7.552 13.512 3.032-4.215 6.055-8.43 9.082-12.644Zm17.23-116.524c3.095 15.04 7.333 29.52 16.985 41.809-5.66-13.938-11.324-27.871-16.984-41.809Zm39.571 143.887c.613-.29 1.219-.582 1.828-.875l-13.98-33.313c-4.672 2.145-3.598 5.387-2.418 7.672 4.633 8.953 9.68 17.696 14.57 26.516Zm-46.57-66.734c.363-7.657-4.68-12.82-7.059-18.88-2.488-6.327-5.64-12.398-8.504-18.585-2.972-6.43-5.972-12.852-8.91-19.301-2.66-5.844-5.246-11.719-7.867-17.582 2.457 18.012 25.18 68.91 32.34 74.348Zm63.383 67.171c-.207-1.363-.09-2.89-.68-4.062-6.344-12.652-12.79-25.258-19.258-37.856-.363-.71-1.101-1.23-1.66-1.84-.5.29-.996.587-1.496.876 1.266 2.71 2.476 5.457 3.824 8.132a207.187 207.187 0 0 0 4.766 8.91c4.883 8.567 9.816 17.102 14.73 25.649 4.219 12.148 11.098 22.86 18.184 33.473-3.473-8.211-7.574-16.098-11.945-23.836-1.868-3.309-4.29-6.305-6.465-9.446Zm59.707-159.109c1.824-1.398 3.652-2.789 5.476-4.18l-1.625-1.421c-1.226 1.925-2.449 3.851-3.672 5.78l-9.742 9.684c4.371-2.242 8.723-4.57 9.563-9.863ZM428.3 377.258c2.863-2.574 6.008-4.895 8.554-7.75 21.551-24.207 42.856-48.633 64.547-72.715 7.02-7.797 14.891-14.844 22.536-22.059 1.906-1.796 4.46-2.91 6.62-4.28 3.653 3.687 1.637 5.956-.367 7.972-3.613 3.625-7.445 7.031-11.105 10.61-2.129 2.081-4.106 4.323-5.691 6.991 7.312-1.683 10.132-11.21 20.914-10.66-39.371 42.88-73.68 87.531-109.887 131.95 9.781 19.538 19.379 38.808 29.066 58.046 3.828 7.61 8.559 14.852 11.594 22.754 4.14 10.778 7.05 22.02 10.488 33.059-4.14 1.25-4.14 1.25-13.386-10.434-1.36 3.32-2.22 8.149-7.286 3.688.079 7.804 7.516 13.16 5.184 22.93-4.55-4.075-7.812-6.997-11.074-9.91-.39.273-.781.55-1.172.823.824 3.051 1.644 6.098 2.851 10.551-2.492-1.05-4.378-1.242-4.94-2.207-1.419-2.422-2.337-5.164-3.282-7.836-9.738-27.504-24.813-52.293-39.371-77.336l-6.207-10.66c-2.602 3.41-4.758 6.188-6.864 9.008-17.507 23.422-34.921 46.918-52.55 70.254-8.395 11.101-17.141 21.937-25.868 32.789-1.304 1.621-3.359 2.648-5.312 4.14-4.59-5.84 2.402-8.917 2.156-14.449-6.168 3.953-7.449 13.985-17.484 12.293l5.055-10.238c-3.196-.14-6.047-.266-9.356-.414-2.773 1.96-3.476 7.941-10.937 6.906 3.082-4.527 5.386-7.926 7.703-11.316 1.98-2.91 3.375-5.336 3.136-9.656-.261-4.813 2.844-10.278 5.649-14.72 7.422-11.745 15.445-23.116 23.285-34.597a25207.735 25207.735 0 0 1 43.68-63.808c3.379-4.918 6.78-9.84 10.52-14.489 2.706-3.367 2.605-6.293.8-10.093-7.41-15.645-14.98-31.243-21.582-47.235-5.402-13.078-9.578-26.668-14.145-40.078-1.453-4.258-1.32-8.422 2.895-11.262-1.137-4.082-1.723-8.117-3.367-11.66-3.196-6.902-1.594-12.031 4.664-16.113 5.683-.227 3.191 5.75 6.133 8.242 1.57-.387 3.375-.832 5.996-1.476l12.808 37.132c.618-.168 1.23-.336 1.84-.504-.137-1.488-.008-3.058-.46-4.437-2.216-6.738-4.837-13.352-6.798-20.152-.894-3.118-.218-6.664-.949-9.86-1.18-5.172-2.738-10.285-4.515-15.289-1.133-3.2-2.934-6.16.609-10.113 4.36 4.52 4.039 10.531 5.996 15.488 2.078 5.281 3.668 10.75 5.512 16.121 1.824 5.305 3.699 10.59 7.117 15.434-1.305-4.805-2.707-9.578-3.887-14.414-1.101-4.524-4.59-9.211 1.168-14.946 6.29 15.184 10.938 29.899 16.578 44.215 5.614 14.227 11.258 28.442 17.457 44.121 3.29-3.757 5.813-6.32 7.973-9.16 25.715-33.703 52.629-66.41 81.457-97.496 4.977-5.371 11.16-9.64 16.926-14.238 1.125-.903 2.898-.992 5.129-1.692.02 8.329-8.22 11.239-9.555 17.875 3.547 4.157 7.996 5.625 14.059 3.934-.504 2.027-.438 3.285-1.04 3.934-7.68 8.343-15.703 16.379-23.144 24.93-8.57 9.85-16.715 20.074-24.926 30.23-13.574 16.797-27.066 33.66-40.55 50.531-.672.84-.946 1.992-1.403 3.008-1.207 1.285-2.422 2.562-3.633 3.848.438.316.875.632 1.317.949l2.12-5.004"/>
    </g>
</svg>
