<svg xmlns="http://www.w3.org/2000/svg" viewBox="0 0 810 810" version="1.0">
    <defs>
        <clipPath id="a">
            <path d="M81 296.004h679.5V337H81Zm0 0"/>
        </clipPath>
        <clipPath id="b">
            <path d="M81 521.695h679.5v41.25H81Zm0 0"/>
        </clipPath>
        <clipPath id="c">
            <path d="M498 81h56v679h-56Zm0 0"/>
        </clipPath>
        <clipPath id="d">
            <path d="m513.516 761.297-26.57-678.98 41.218-1.614 26.57 678.98Zm0 0"/>
        </clipPath>
        <clipPath id="e">
            <path d="m513.516 761.297-26.57-678.98 41.218-1.614 26.57 678.98Zm0 0"/>
        </clipPath>
        <clipPath id="f">
            <path d="m513.516 761.297-26.57-678.98 41.218-1.614 26.57 678.98Zm0 0"/>
        </clipPath>
        <clipPath id="g">
            <path d="M512 355h1v2h-1Zm0 0"/>
        </clipPath>
        <clipPath id="h">
            <path d="m513.516 761.297-26.57-678.98 41.218-1.614 26.57 678.98Zm0 0"/>
        </clipPath>
        <clipPath id="i">
            <path d="m513.516 761.297-26.57-678.98 41.218-1.614 26.57 678.98Zm0 0"/>
        </clipPath>
        <clipPath id="j">
            <path d="m513.516 761.297-26.57-678.98 41.218-1.614 26.57 678.98Zm0 0"/>
        </clipPath>
        <clipPath id="k">
            <path d="M545 708h2v2h-2Zm0 0"/>
        </clipPath>
        <clipPath id="l">
            <path d="m513.516 761.297-26.57-678.98 41.218-1.614 26.57 678.98Zm0 0"/>
        </clipPath>
        <clipPath id="m">
            <path d="m513.516 761.297-26.57-678.98 41.218-1.614 26.57 678.98Zm0 0"/>
        </clipPath>
        <clipPath id="n">
            <path d="m513.516 761.297-26.57-678.98 41.218-1.614 26.57 678.98Zm0 0"/>
        </clipPath>
        <clipPath id="o">
            <path d="M508 123h2v1h-2Zm0 0"/>
        </clipPath>
        <clipPath id="p">
            <path d="m513.516 761.297-26.57-678.98 41.218-1.614 26.57 678.98Zm0 0"/>
        </clipPath>
        <clipPath id="q">
            <path d="m513.516 761.297-26.57-678.98 41.218-1.614 26.57 678.98Zm0 0"/>
        </clipPath>
        <clipPath id="r">
            <path d="m513.516 761.297-26.57-678.98 41.218-1.614 26.57 678.98Zm0 0"/>
        </clipPath>
        <clipPath id="s">
            <path d="M286 81h56v679h-56Zm0 0"/>
        </clipPath>
        <clipPath id="t">
            <path d="m301.648 761.297-26.574-678.98 41.219-1.614 26.574 678.98Zm0 0"/>
        </clipPath>
        <clipPath id="u">
            <path d="m301.648 761.297-26.574-678.98 41.219-1.614 26.574 678.98Zm0 0"/>
        </clipPath>
        <clipPath id="v">
            <path d="m301.648 761.297-26.574-678.98 41.219-1.614 26.574 678.98Zm0 0"/>
        </clipPath>
        <clipPath id="w">
            <path d="M300 355h1v2h-1Zm0 0"/>
        </clipPath>
        <clipPath id="x">
            <path d="m301.648 761.297-26.574-678.98 41.219-1.614 26.574 678.98Zm0 0"/>
        </clipPath>
        <clipPath id="y">
            <path d="m301.648 761.297-26.574-678.98 41.219-1.614 26.574 678.98Zm0 0"/>
        </clipPath>
        <clipPath id="z">
            <path d="m301.648 761.297-26.574-678.98 41.219-1.614 26.574 678.98Zm0 0"/>
        </clipPath>
        <clipPath id="A">
            <path d="M334 708h1v2h-1Zm0 0"/>
        </clipPath>
        <clipPath id="B">
            <path d="m301.648 761.297-26.574-678.98 41.219-1.614 26.574 678.98Zm0 0"/>
        </clipPath>
        <clipPath id="C">
            <path d="m301.648 761.297-26.574-678.98 41.219-1.614 26.574 678.98Zm0 0"/>
        </clipPath>
        <clipPath id="D">
            <path d="m301.648 761.297-26.574-678.98 41.219-1.614 26.574 678.98Zm0 0"/>
        </clipPath>
        <clipPath id="E">
            <path d="M296 123h2v1h-2Zm0 0"/>
        </clipPath>
        <clipPath id="F">
            <path d="m301.648 761.297-26.574-678.98 41.219-1.614 26.574 678.98Zm0 0"/>
        </clipPath>
        <clipPath id="G">
            <path d="m301.648 761.297-26.574-678.98 41.219-1.614 26.574 678.98Zm0 0"/>
        </clipPath>
        <clipPath id="H">
            <path d="m301.648 761.297-26.574-678.98 41.219-1.614 26.574 678.98Zm0 0"/>
        </clipPath>
    </defs>
    <g clip-path="url(#a)">
        <path d="M399.25 296.332c-19.922.227-36.758.645-49.402 1.258l-13.973.644c-10.695.485-50.152 3-65.652 4.192-2.309.164-8.746.613-14.301.969-5.527.355-10.727.707-11.54.804-.812.098-9.945.809-20.312 1.613a7923.199 7923.199 0 0 0-31.363 2.418c-6.89.516-19.664 1.48-28.437 2.094-27.66 1.969-39.688 3.063-49.891 4.547-3.543.516-5.883 1-6.242 1.32-.325.293-1.98.645-4.223.938-9.07 1.094-12.871 1.867-17.617 3.61-3.055 1.128-3.281 1.288-4.031 2.613-.618 1.125-.715 1.546-.454 1.996.262.422.262.644-.097.937-.617.516-.617 2.063 0 2.578.422.356.422.45 0 .774-.715.547-.422 1.258.91 2.449.684.582 1.172 1.258 1.074 1.484-.261.707.13 1.418 1.07 1.871 2.438 1.254 15.829 1.774 26.196 1.032 3.933-.293 10.953-.711 15.601-1 4.649-.258 9.262-.547 10.239-.614.976-.097 3.605-.257 5.851-.355 2.242-.098 5.004-.258 6.172-.32 2.18-.13 7.055-.356 13.817-.645 2.144-.066 5.945-.226 8.449-.355 4.453-.196 5.914.03 2.406.386-6.86.645-6.504.743 2.629.578 20.77-.32 59.152-2.253 82.719-4.156 5.359-.422 12.836-1 16.574-1.289 3.77-.258 11.082-.871 16.25-1.289 5.2-.453 13.586-1.098 18.687-1.453 5.102-.356 14.692-1.094 21.29-1.613 11.636-.903 24.667-1.805 40.43-2.739 4.16-.226 7.671-.515 7.769-.613.164-.191-8.809-.355-10.887-.226-.586.066-1.074-.063-1.074-.223 0-.164.261-.258.586-.258.52.031 6.793-.293 11.765-.613 1.168-.067 4.614-.227 7.637-.324 3.055-.098 6.988-.227 8.777-.32 1.786-.067 6.692-.227 10.887-.325 4.191-.098 8.516-.258 9.586-.32 1.074-.067 6.566-.227 12.188-.325 5.625-.097 12.058-.226 14.3-.32 2.242-.097 10.953-.226 19.34-.324 8.418-.098 17.094-.258 19.336-.324 20.414-.676 165.465-.867 185.906-.258 7.25.226 17.715.55 23.239.742 12.191.356 27.171.613 26.488.422-.29-.066-2.86-.324-5.688-.55l-5.199-.419 4.875-.066c2.7-.063 5.168-.223 5.528-.387.519-.223.453-.289-.391-.191-.586.062-1.074 0-1.074-.16 0-.13.91-.258 2.047-.258 1.27 0 1.855.129 1.562.289-.262.191.098.226.973.129 2.21-.258 25.742 1.836 34.777 3.093 1.3.16 2.016.13 2.406-.16.324-.226 1.008-.324 1.657-.226.714.129 1.105.066 1.105-.192 0-.195-.324-.355-.746-.355-.426 0-1.043-.227-1.399-.485-.617-.449-.617-.484.13-.675.976-.293.91-.68-.16-.903-11.313-2.386-58.86-6.707-111.743-10.187a1409.52 1409.52 0 0 1-18.035-1.29c-4.39-.355-11.117-.87-14.953-1.128-3.832-.293-9.555-.711-12.676-.969-3.117-.258-9.324-.71-13.813-.969a3497.21 3497.21 0 0 1-18.035-1.125c-25.351-1.644-35.656-2.066-66.304-2.773-5.266-.129-9.977-.258-10.465-.29-.52-.034-3.703-.065-7.117-.097-3.739-.031-6.11-.195-5.98-.355.097-.196-.099-.324-.392-.29-2.566.032-6.5-.163-8.382-.421-2.828-.418-43.715-.547-71.18-.258Zm-37.797 13.219c-.133.129-2.34.324-4.941.422-2.602.129-5.297.289-6.012.351-.715.067-3.348.227-5.852.324-2.503.098-5.265.258-6.175.32-.875.098-3.086.227-4.875.325-1.786.098-3.77.227-4.387.32-.617.067-2.73.227-4.711.325-1.953.128-4 .257-4.55.324-.52.062-2.376.191-4.063.32-2.992.195-4.715.324-9.102.645-1.172.066-3.414.226-5.039.324-4.094.258-7.539.48-9.262.644-1.691.16-8.351.676-12.351.965-1.528.098-3.41.258-4.223.324-.812.063-2.7.227-4.226.32-1.528.098-3.575.227-4.551.325-.973.062-2.957.226-4.387.32-3.61.258-5.883.422-13 .969-8.062.613-19.207 1.355-23.726 1.613-1.95.094-4.747.258-6.176.32-1.43.098-3.606.227-4.875.325-6.043.355-11.344.547-11.211.387.195-.196 2.633-.454 6.824-.711 1.527-.098 3.281-.227 3.898-.32.618-.067 2.375-.227 3.903-.325 5.199-.355 6.988-.484 8.773-.644.977-.098 8.094-.579 15.766-1.13a3091.53 3091.53 0 0 0 20.312-1.449 6345.032 6345.032 0 0 1 59.637-4.191c1.27-.066 3.805-.227 5.692-.324 1.882-.094 5.914-.29 8.937-.48 7.05-.387 10.855-.583 16.738-.84 2.598-.098 4.742-.227 4.778-.258.195-.16 2.632 0 2.437.16Zm163.738.937c19.86.352 26.391.48 50.215 1.125 27.758.778 37.93 1.164 41.926 1.68 1.367.16 1.496.223.813.45-.454.128-.618.226-.391.257.195.031.39.195.39.355 0 .387.653.387-109.203.485-45.144.031-84.535.16-87.59.289-4.484.16-31.105.324-33.445.226-1.199-.066-.195-.484 1.367-.546 5.848-.293 9.817-.454 15.34-.649 3.477-.094 6.793-.223 7.313-.289.55-.062 2.18-.129 3.64-.129 2.243-.031 2.633-.097 2.504-.515-.132-.32 0-.485.356-.485.36 0 .488.164.36.485-.134.386.16.484 1.558.484 1.527 0 1.789-.098 1.984-.742l.227-.707.453 1.61.195-.743c.164-.61.39-.738 1.465-.676 1.332.031 12.187-.258 17.32-.515 1.692-.067 8.063-.227 14.14-.356 6.079-.129 11.634-.258 12.349-.289.714-.031 4.714-.098 8.875-.129 4.355 0 7.539-.16 7.539-.324 0-.192-6.825-.32-16.965-.352-9.328 0-17.031-.097-17.13-.164-.257-.289 56.977-.16 74.395.164Zm-104.328 2.383c0 .098-.129.258-.324.356-.164.097-.324.03-.324-.13 0-.19.16-.355.324-.355.195 0 .324.067.324.13Zm-79.531 1.067c-.227.062-.68.062-.973 0-.324-.098-.129-.165.391-.165.55 0 .777.067.582.164Zm-6.367.289c-.098.097-.39.128-.617.03-.262-.097-.164-.19.191-.19.36-.036.555.062.426.16Zm284.48.128c0 .16-.129.32-.293.32-.195 0-.422-.16-.52-.32-.097-.195.032-.324.294-.324.293 0 .52.13.52.324Zm-288.023.227c-.324.063-.848.063-1.137 0-.328-.098-.066-.164.55-.164.618 0 .88.066.587.164Zm-4.715.32c-.422.067-1.137.067-1.625 0-.52-.062-.16-.129.715-.129.91 0 1.3.067.91.13Zm60.063.516c-.422.422-.844.098-.52-.387.098-.191.36-.258.55-.16.196.129.196.324-.03.547Zm-64.938-.191c-.422.062-1.137.062-1.625 0-.52-.067-.16-.13.715-.13.91 0 1.3.063.91.13Zm351.336 0c-.227.062-.617.062-.813 0-.226-.098-.062-.16.391-.16.457 0 .617.062.422.16Zm30.879 0c-.23.062-.617.062-.813 0-.23-.098-.066-.16.391-.16.453 0 .617.062.422.16Zm-387.25.32c-.524.066-1.3.066-1.79 0-.519-.063-.097-.129.88-.129.972 0 1.394.066.91.129Zm364.172 0c-.582.066-1.559.066-2.114 0-.582-.063-.128-.129 1.043-.129 1.168 0 1.625.066 1.07.129Zm28.601 0c-.422.066-1.136.066-1.625 0-.52-.063-.16-.129.715-.129.91 0 1.3.066.91.129Zm-398.46.324c-.231.063-.622.063-.813 0-.23-.098-.067-.16.387-.16.457 0 .617.062.425.16Zm1.43-.031c-.099.094-.392.129-.618.031-.262-.098-.164-.195.191-.195.36-.031.555.066.426.164Zm374.444.031c-.488.063-1.367.063-1.953 0-.582-.066-.195-.129.88-.129 1.073 0 1.558.063 1.073.13Zm27.137 0c-.422.063-1.137.063-1.625 0-.52-.066-.164-.129.715-.129.91 0 1.3.063.91.13Zm-21.125.32c-.422.067-1.137.067-1.625 0-.52-.062-.164-.128.715-.128.91 0 1.3.066.91.128Zm5.2.325a5.713 5.713 0 0 1-1.462 0c-.425-.067-.097-.13.715-.13.813 0 1.137.063.746.13Zm5.85.32c-.421.066-1.14.066-1.624 0-.52-.063-.164-.129.715-.129.91 0 1.3.066.91.129Zm-501.589 3.324c0 .192-.746.29-1.691.258l-1.723-.035 1.465-.223c.812-.129 1.558-.258 1.722-.258.13-.035.227.063.227.258Zm.973-.195c0 .098-.13.258-.325.355-.16.098-.324.032-.324-.129 0-.195.164-.355.324-.355.196 0 .325.066.325.129Zm-4.547.324c0 .094-.133.258-.328.352-.16.097-.325.035-.325-.13 0-.19.165-.35.325-.35.195 0 .328.062.328.128Zm168.289.418a3.468 3.468 0 0 1-1.137 0c-.324-.098-.066-.16.55-.16.618 0 .88.062.587.16Zm-208.04 5.45c-.097.093-.39.128-.616.03-.262-.097-.164-.195.195-.195.355-.031.55.067.422.164Zm1.302 0c-.098.093-.391.128-.618.03-.261-.097-.164-.195.196-.195.355-.031.55.067.422.164Zm-4.875.35c-.653.067-1.692.067-2.278 0-.55-.062 0-.128 1.235-.128 1.27 0 1.722.066 1.043.129Zm-9.329.614c-13.78 1.067-29.09 2.742-29.542 3.227-.098.129 1.558.129 3.703 0 2.144-.098 5.296-.293 6.988-.356 1.691-.097 3.933-.258 4.973-.355 1.496-.13 1.851-.067 1.851.324a.803.803 0 0 1-.39.644c-.422.16 2.699.032 7.703-.324 1.43-.129 2.535-.129 2.437-.031-.195.191-15.113 1.45-18.363 1.547-.875.031-2.207.16-2.922.32-.715.133-2.7.356-4.39.453-3.606.258-3.868.29-7.473.743-1.528.19-4.52.449-6.664.546-2.145.098-6.305.325-9.262.516-4.777.355-5.625.324-7.899-.191-1.918-.422-2.664-.743-3.023-1.325-1.008-1.515 0-1.773 7.508-1.902 3.055-.062 8.68-.418 12.512-.773 5.918-.547 26.359-2.192 39.652-3.192 2.047-.16 4.68-.289 5.851-.289 1.168 0-.292.192-3.25.418Zm-58.503 1.453c0 .223-1.98.61-3.086.61-.618-.032-.618-.032-.032-.48.582-.454 3.118-.552 3.118-.13Zm48.43 1.32c0 .16-.231.258-.489.258-.262 0-.586 0-.715.032-.133 0-.293-.13-.36-.29-.066-.19.262-.289.75-.257.454 0 .813.129.813.258Zm9 .454c-.098.093-.391.129-.618.03-.258-.097-.16-.194.195-.194.36-.032.555.066.422.164Zm0 0"/>
    </g>
    <path d="M485.215 310.875c0 .129.195.258.457.258.258 0 .55-.13.648-.258.067-.129-.129-.258-.488-.258-.324 0-.617.13-.617.258ZM131.766 330.797c-.258.418.164.418.812 0 .422-.258.422-.32-.062-.32-.293 0-.653.128-.75.32ZM718.25 316.645c0 .16.16.226.324.128.196-.097.324-.257.324-.355 0-.063-.128-.129-.324-.129-.164 0-.324.16-.324.356Zm0 0"/>
    <g clip-path="url(#b)">
        <path d="M399.25 522.027c-19.922.227-36.758.645-49.402 1.258-3.575.16-9.848.45-13.973.645-10.695.484-50.152 2.996-65.652 4.191-2.309.16-8.746.613-14.301.965-5.527.355-10.727.71-11.54.809-.812.093-9.945.804-20.312 1.609a7923.199 7923.199 0 0 0-31.363 2.418c-6.89.515-19.664 1.484-28.437 2.098-27.66 1.964-39.688 3.062-49.891 4.546-3.543.516-5.883.996-6.242 1.32-.325.29-1.98.645-4.223.934-9.07 1.098-12.871 1.871-17.617 3.614-3.055 1.129-3.281 1.289-4.031 2.609-.618 1.129-.715 1.547-.454 2 .262.418.262.644-.097.934-.617.515-.617 2.062 0 2.578.422.355.422.453 0 .777-.715.547-.422 1.254.91 2.45.684.577 1.172 1.257 1.074 1.48-.261.71.13 1.422 1.07 1.87 2.438 1.259 15.829 1.774 26.196 1.032 3.933-.289 10.953-.707 15.601-1 4.649-.258 9.262-.547 10.239-.61.976-.097 3.605-.257 5.851-.355 2.242-.097 5.004-.258 6.172-.324 2.18-.129 7.055-.355 13.817-.645 2.144-.062 5.945-.226 8.449-.355 4.453-.191 5.914.035 2.406.387-6.86.648-6.504.742 2.629.582 20.77-.324 59.152-2.258 82.719-4.16l16.574-1.29c3.77-.257 11.082-.87 16.25-1.289 5.2-.449 13.586-1.097 18.687-1.449 5.102-.355 14.692-1.097 21.29-1.613 11.636-.902 24.667-1.805 40.43-2.742 4.16-.223 7.671-.516 7.769-.61.164-.195-8.809-.355-10.887-.226-.586.062-1.074-.067-1.074-.227s.261-.258.586-.258c.52.032 6.793-.289 11.765-.613 1.168-.062 4.614-.222 7.637-.32 3.055-.098 6.988-.227 8.777-.324 1.786-.063 6.692-.227 10.887-.32 4.191-.098 8.516-.258 9.586-.325 1.074-.062 6.566-.226 12.188-.32 5.625-.098 12.058-.227 14.3-.324 2.242-.098 10.953-.227 19.34-.32 8.418-.098 17.094-.259 19.336-.325 20.414-.676 165.465-.871 185.906-.258 7.25.227 17.715.547 23.239.742 12.191.356 27.171.614 26.488.418-.29-.062-2.86-.32-5.688-.546l-5.199-.418 4.875-.067c2.7-.062 5.168-.226 5.528-.387.519-.226.453-.289-.391-.195-.586.067-1.074 0-1.074-.16 0-.129.91-.258 2.047-.258 1.27 0 1.855.13 1.562.29-.262.195.098.226.973.128 2.21-.258 25.742 1.84 34.777 3.098 1.3.16 2.016.129 2.406-.16.324-.227 1.008-.325 1.657-.227.714.129 1.105.063 1.105-.195 0-.192-.324-.356-.746-.356-.426 0-1.043-.222-1.399-.48-.617-.453-.617-.485.13-.68.976-.289.91-.676-.16-.902-11.313-2.387-58.86-6.703-111.743-10.188-5.523-.355-13.648-.933-18.035-1.289a1346.59 1346.59 0 0 0-14.953-1.129c-3.832-.289-9.555-.707-12.676-.965-3.117-.257-9.324-.71-13.813-.968-4.453-.258-12.578-.774-18.035-1.13-25.351-1.644-35.656-2.062-66.304-2.773-5.266-.129-9.977-.257-10.465-.289-.52-.03-3.703-.062-7.117-.097-3.739-.032-6.11-.192-5.98-.352.097-.195-.099-.324-.392-.293-2.566.035-6.5-.16-8.382-.418-2.828-.418-43.715-.547-71.18-.258Zm-37.797 13.22c-.133.128-2.34.32-4.941.417-2.602.129-5.297.29-6.012.356-.715.062-3.348.226-5.852.32-2.503.097-5.265.258-6.175.324-.875.098-3.086.227-4.875.32-1.786.098-3.77.227-4.387.325-.617.062-2.73.226-4.711.324-1.953.129-4 .258-4.55.32-.52.067-2.376.195-4.063.324-2.992.192-4.715.32-9.102.645-1.172.062-3.414.223-5.039.32-4.094.258-7.539.485-9.262.645-1.691.164-8.351.68-12.351.968-1.528.098-3.41.258-4.223.32-.812.067-2.7.227-4.226.325-1.528.098-3.575.227-4.551.32-.973.067-2.957.227-4.387.325-3.61.257-5.883.418-13 .968-8.062.61-19.207 1.352-23.726 1.61-1.95.097-4.747.257-6.176.324-1.43.098-3.606.226-4.875.32-6.043.356-11.344.551-11.211.387.195-.192 2.633-.45 6.824-.707 1.527-.098 3.281-.227 3.898-.324.618-.063 2.375-.227 3.903-.32 5.199-.356 6.988-.485 8.773-.645.977-.098 8.094-.582 15.766-1.13 7.703-.515 16.836-1.194 20.312-1.452a6479.574 6479.574 0 0 1 59.637-4.192c1.27-.062 3.805-.222 5.692-.32 1.882-.098 5.914-.289 8.937-.484 7.05-.387 10.855-.578 16.738-.836 2.598-.098 4.742-.227 4.778-.258.195-.164 2.632 0 2.437.16Zm163.738.933c19.86.355 26.391.484 50.215 1.129 27.758.773 37.93 1.16 41.926 1.675 1.367.16 1.496.227.813.453-.454.13-.618.223-.391.258.195.032.39.192.39.356 0 .386.653.386-109.203.48-45.144.035-84.535.164-87.59.293-4.484.16-31.105.32-33.445.223-1.199-.063-.195-.48 1.367-.547 5.848-.29 9.817-.45 15.34-.645 3.477-.097 6.793-.226 7.313-.289.55-.066 2.18-.129 3.64-.129 2.243-.035 2.633-.097 2.504-.515-.132-.324 0-.485.356-.485.36 0 .488.16.36.485-.134.387.16.48 1.558.48 1.527 0 1.789-.093 1.984-.738l.227-.71.226.804.227.808.195-.742c.164-.613.39-.742 1.465-.676 1.332.032 12.187-.257 17.32-.515 1.692-.067 8.063-.227 14.14-.356 6.079-.129 11.634-.257 12.349-.293.714-.03 4.714-.093 8.875-.129 4.355 0 7.539-.16 7.539-.32 0-.195-6.825-.324-16.965-.355-9.328 0-17.031-.098-17.13-.16-.257-.29 56.977-.16 74.395.16Zm-104.328 2.386c0 .098-.129.258-.324.356-.164.094-.324.031-.324-.129 0-.195.16-.356.324-.356.195 0 .324.063.324.13Zm-79.531 1.063c-.227.066-.68.066-.973 0-.324-.098-.129-.16.391-.16.55 0 .777.062.582.16Zm-6.367.289c-.098.098-.39.133-.617.035-.262-.098-.164-.195.191-.195.36-.031.555.066.426.16Zm284.48.133c0 .16-.129.32-.293.32-.195 0-.422-.16-.52-.32-.097-.196.032-.324.294-.324.293 0 .52.128.52.324Zm-288.023.222c-.324.067-.848.067-1.137 0-.328-.093-.066-.16.55-.16.618 0 .88.067.587.16Zm-4.715.325c-.422.062-1.137.062-1.625 0-.52-.067-.16-.13.715-.13.91 0 1.3.063.91.13Zm60.063.515c-.422.418-.844.098-.52-.386.098-.196.36-.258.55-.16.196.128.196.32-.03.546Zm-64.938-.195c-.422.066-1.137.066-1.625 0-.52-.063-.16-.129.715-.129.91 0 1.3.066.91.129Zm351.336 0c-.227.066-.617.066-.813 0-.226-.094-.062-.16.391-.16.457 0 .617.066.422.16Zm30.879 0c-.23.066-.617.066-.813 0-.23-.094-.066-.16.391-.16.453 0 .617.066.422.16Zm-387.25.324c-.524.063-1.3.063-1.79 0-.519-.066-.097-.129.88-.129.972 0 1.394.063.91.13Zm364.172 0c-.582.063-1.559.063-2.114 0-.582-.066-.128-.129 1.043-.129 1.168 0 1.625.063 1.07.13Zm28.601 0c-.422.063-1.136.063-1.625 0-.52-.066-.16-.129.715-.129.91 0 1.3.063.91.13Zm-398.46.32c-.231.067-.622.067-.813 0-.23-.093-.067-.16.387-.16.457 0 .617.067.425.16Zm1.43-.03c-.099.097-.392.128-.618.03-.262-.093-.164-.19.191-.19.36-.032.555.062.426.16Zm374.444.03c-.488.067-1.367.067-1.953 0-.582-.062-.195-.128.88-.128 1.073 0 1.558.066 1.073.129Zm27.137 0c-.422.067-1.137.067-1.625 0-.52-.062-.164-.128.715-.128.91 0 1.3.066.91.129Zm-21.125.325c-.422.062-1.137.062-1.625 0-.52-.067-.164-.13.715-.13.91 0 1.3.063.91.13Zm5.2.32a5.38 5.38 0 0 1-1.462 0c-.425-.062-.097-.129.715-.129.813 0 1.137.067.746.129Zm5.85.324c-.421.067-1.14.067-1.624 0-.52-.066-.164-.129.715-.129.91 0 1.3.063.91.13Zm-501.589 3.32c0 .196-.746.29-1.691.258l-1.723-.03 1.465-.227c.812-.13 1.558-.258 1.722-.258.13-.032.227.066.227.258Zm.973-.19c0 .093-.13.257-.325.35-.16.098-.324.036-.324-.128 0-.192.164-.352.324-.352.196 0 .325.063.325.13Zm-4.547.32c0 .097-.133.257-.328.355-.16.098-.325.031-.325-.129 0-.195.165-.355.325-.355.195 0 .328.066.328.128Zm168.289.417c-.324.067-.844.067-1.137 0-.324-.093-.066-.16.55-.16.618 0 .88.067.587.16Zm-208.04 5.45c-.097.097-.39.129-.616.03-.262-.093-.164-.19.195-.19.355-.032.55.062.422.16Zm1.302 0c-.098.097-.391.129-.618.03-.261-.093-.164-.19.196-.19.355-.032.55.062.422.16Zm-4.875.355c-.653.063-1.692.063-2.278 0-.55-.066 0-.129 1.235-.129 1.27 0 1.722.063 1.043.13Zm-9.329.613c-13.78 1.063-29.09 2.739-29.542 3.223-.098.129 1.558.129 3.703 0 2.144-.098 5.296-.289 6.988-.355a178.34 178.34 0 0 0 4.973-.352c1.496-.129 1.851-.066 1.851.32a.803.803 0 0 1-.39.645c-.422.16 2.699.031 7.703-.32 1.43-.13 2.535-.13 2.437-.036-.195.196-15.113 1.454-18.363 1.551-.875.031-2.207.16-2.922.32-.715.13-2.7.356-4.39.454-3.606.257-3.868.289-7.473.738-1.528.195-4.52.453-6.664.55-2.145.094-6.305.321-9.262.516-4.777.356-5.625.32-7.899-.195-1.918-.418-2.664-.742-3.023-1.32-1.008-1.516 0-1.774 7.508-1.903 3.055-.066 8.68-.418 12.512-.773 5.918-.547 26.359-2.192 39.652-3.192 2.047-.16 4.68-.292 5.851-.292 1.168 0-.292.195-3.25.421Zm-58.503 1.45c0 .226-1.98.613-3.086.613-.618-.031-.618-.031-.032-.484.582-.45 3.118-.547 3.118-.13Zm48.43 1.324c0 .16-.231.258-.489.258-.262 0-.586 0-.715.03-.133 0-.293-.128-.36-.288-.066-.195.262-.293.75-.258.454 0 .813.129.813.258Zm9 .45c-.098.097-.391.128-.618.03-.258-.093-.16-.191.195-.191.36-.031.555.062.422.16Zm0 0"/>
    </g>
    <path d="M485.215 536.566c0 .13.195.258.457.258.258 0 .55-.129.648-.258.067-.129-.129-.257-.488-.257-.324 0-.617.129-.617.257ZM131.766 556.492c-.258.418.164.418.812 0 .422-.258.422-.324-.062-.324-.293 0-.653.129-.75.324ZM718.25 542.336c0 .164.16.226.324.129.196-.094.324-.258.324-.352 0-.066-.128-.129-.324-.129-.164 0-.324.16-.324.352Zm0 0"/>
    <g clip-path="url(#c)">
        <g clip-path="url(#d)">
            <g clip-path="url(#e)">
                <g clip-path="url(#f)">
                    <path d="M501.402 443.277c1.004 19.899 2.082 36.707 3.188 49.317.3 3.562.836 9.82 1.191 13.937.903 10.668 4.957 49.992 6.754 65.438.25 2.3.953 8.715 1.528 14.254.57 5.504 1.128 10.687 1.253 11.496.13.808 1.196 9.906 2.407 20.234a7367.988 7367.988 0 0 0 3.644 31.246c.785 6.864 2.25 19.59 3.203 28.332 3.047 27.563 4.614 39.535 6.496 49.676.653 3.52 1.227 5.84 1.563 6.184.305.312.723 1.957 1.101 4.183 1.45 9.02 2.372 12.79 4.297 17.461 1.246 3.012 1.414 3.23 2.766 3.926 1.152.574 1.574.656 2.016.375.406-.274.632-.281.937.062.54.598 2.086.536 2.578-.101.336-.434.434-.438.774-.031.574.695 1.273.375 2.41-1.004.554-.703 1.21-1.219 1.441-1.13.719.231 1.414-.183 1.828-1.144 1.16-2.484 1.153-15.886.004-26.215-.441-3.921-1.136-10.918-1.61-15.55a1217.4 1217.4 0 0 0-1.01-10.207c-.134-.97-.4-3.594-.583-5.832-.183-2.239-.453-4.993-.562-6.157-.215-2.172-.633-7.035-1.188-13.777a484.72 484.72 0 0 0-.683-8.43c-.368-4.441-.2-5.914.293-2.418.914 6.825.996 6.465.476-2.656-1.133-20.738-4.566-59.016-7.39-82.488-.63-5.34-1.5-12.79-1.938-16.512-.402-3.758-1.3-11.039-1.922-16.187-.656-5.18-1.629-13.532-2.18-18.618-.554-5.086-1.672-14.636-2.445-21.21-1.355-11.59-2.77-24.579-4.32-40.293-.387-4.149-.813-7.645-.914-7.739-.2-.152-.012 8.817.199 10.89.09.583-.024 1.075-.184 1.083-.16.004-.265-.25-.28-.578.01-.52-.556-6.774-1.071-11.73-.11-1.169-.407-4.602-.621-7.622-.215-3.047-.5-6.972-.664-8.754a951.49 951.49 0 0 1-.75-10.867c-.262-4.187-.59-8.5-.696-9.566-.11-1.07-.484-6.555-.8-12.168-.317-5.614-.696-12.04-.88-14.278-.187-2.238-.656-10.933-1.078-19.308-.425-8.41-.93-17.074-1.082-19.313-1.472-20.367-7.34-165.3-7.527-185.754-.055-7.25-.144-17.718-.168-23.25-.121-12.191-.45-27.172-.617-26.484-.05.297-.207 2.871-.324 5.707l-.215 5.211-.254-4.867c-.172-2.696-.43-5.156-.606-5.508-.242-.512-.304-.441-.175.398.086.582.043 1.07-.121 1.079-.13.003-.293-.899-.336-2.036-.051-1.27.054-1.859.23-1.57.203.25.219-.11.09-.98-.344-2.2.828-25.793 1.73-34.871.114-1.305.051-2.02-.253-2.399-.239-.312-.364-.992-.29-1.644.102-.723.02-1.11-.238-1.098-.191.008-.34.34-.324.762.016.421-.184 1.046-.43 1.414-.425.636-.457.636-.68-.102-.327-.965-.714-.883-.898.195-1.941 11.395-4.398 59.079-5.808 112.051-.137 5.535-.399 13.68-.582 18.078-.184 4.395-.438 11.14-.543 14.98-.141 3.845-.336 9.579-.473 12.704a658.95 658.95 0 0 0-.426 13.84c-.082 4.46-.281 12.601-.422 18.07-.652 25.395-.668 35.707-.175 66.36.074 5.265.128 9.98.117 10.468-.012.52.082 3.703.183 7.117.114 3.735.043 6.114-.12 5.989-.2-.09-.321.109-.278.402.133 2.563.094 6.5-.09 8.395-.309 2.84 1.164 43.703 2.527 71.132Zm14.684 37.254c.137.125.414 2.324.613 4.918.23 2.594.496 5.285.59 5.996.094.711.356 3.336.55 5.832.196 2.496.466 5.25.563 6.157.133.875.348 3.078.516 4.859.164 1.785.371 3.758.492 4.371.09.617.332 2.723.508 4.7.203 1.94.414 3.984.5 4.53.082.52.285 2.364.48 4.047.309 2.98.504 4.7 1 9.07.11 1.169.36 3.403.52 5.02.418 4.082.777 7.516 1.004 9.23.23 1.684 1.004 8.321 1.45 12.305.155 1.524.394 3.399.487 4.211.098.809.332 2.684.489 4.207.156 1.524.367 3.563.5 4.536.101.972.34 2.945.492 4.37.398 3.594.652 5.864 1.476 12.954.926 8.031 2.106 19.14 2.54 23.644.171 1.946.44 4.73.562 6.157.152 1.425.367 3.597.512 4.859.593 6.027.992 11.312.828 11.191-.203-.187-.555-2.613-.977-6.793-.156-1.523-.355-3.273-.476-3.886-.086-.614-.317-2.36-.473-3.883-.559-5.184-.758-6.965-.988-8.742-.133-.973-.895-8.067-1.742-15.707-.817-7.68-1.852-16.778-2.247-20.243a6286.451 6286.451 0 0 1-6.52-59.43c-.112-1.265-.374-3.792-.542-5.671-.172-1.88-.523-5.899-.836-8.91-.66-7.035-1.004-10.825-1.492-16.696-.195-2.593-.41-4.73-.442-4.761-.171-.188-.105-2.633.063-2.442Zm-5.469-163.652c-.422-19.856-.547-26.39-.836-50.219-.312-27.765-.32-37.945.035-41.96.11-1.372.168-1.505.422-.829.145.45.25.606.274.379.023-.2.175-.398.336-.406.386-.016.363-.664 4.754 109.101 1.8 45.11 3.468 84.465 3.714 87.512.34 4.477 1.54 31.07 1.536 33.41-.016 1.203-.477.215-.602-1.344-.52-5.832-.836-9.789-1.242-15.3-.235-3.473-.492-6.782-.578-7.297-.086-.551-.215-2.172-.27-3.633-.12-2.238-.2-2.625-.613-2.48-.317.144-.485.019-.5-.34-.012-.356.144-.493.473-.375.39.117.476-.18.421-1.578-.062-1.524-.168-1.782-.82-1.95l-.719-.203 1.594-.515-.746-.168c-.621-.137-.758-.36-.734-1.434-.02-1.332-.735-12.168-1.196-17.29-.129-1.687-.539-8.046-.906-14.112-.367-6.067-.71-11.618-.773-12.328-.059-.715-.282-4.707-.477-8.864-.168-4.351-.453-7.527-.613-7.52-.196.009-.059 6.833.308 16.966.364 9.32.567 17.02.508 17.12-.281.27-2.39-56.925-2.75-74.343Zm6.465 104.156c.098-.004.262.117.367.309.102.16.047.324-.117.332-.191.008-.36-.149-.367-.313-.008-.195.055-.328.117-.328Zm4.172 79.426c.074.226.094.68.039.976-.082.329-.156.133-.176-.386-.023-.551.035-.781.137-.59Zm.539 6.355c.102.094.144.383.059.614-.086.265-.188.172-.204-.188-.043-.355.043-.555.145-.426Zm-10.996-284.27c.164-.007.328.118.336.278.008.196-.145.43-.301.535-.191.106-.324-.02-.336-.28-.012-.294.11-.524.3-.532Zm11.492 287.794c.074.324.098.844.043 1.137-.086.332-.16.074-.184-.543-.023-.618.032-.88.141-.594Zm.504 4.7c.082.417.11 1.132.062 1.62-.043.524-.12.168-.156-.707-.035-.91.016-1.3.094-.914ZM520.961 455c.434.406.129.844-.367.535-.196-.09-.27-.348-.184-.543.121-.203.317-.207.55.008Zm2.344 64.898c.082.418.11 1.133.066 1.622-.047.523-.125.168-.156-.707-.035-.91.012-1.305.09-.915Zm-13.739-351.07c.075.227.09.617.032.813-.086.23-.157.07-.176-.383-.016-.453.043-.621.144-.43Zm-1.207-30.851c.075.226.09.613.032.812-.086.23-.157.07-.176-.383-.016-.457.039-.62.144-.43Zm15.465 386.941c.086.516.117 1.297.07 1.785-.042.524-.124.106-.16-.871-.039-.973.008-1.398.09-.914Zm-14.238-363.895c.086.582.125 1.555.082 2.11-.043.586-.125.137-.172-1.035-.043-1.168.004-1.625.09-1.075Zm-1.121-28.582c.082.422.11 1.137.066 1.625-.047.524-.125.168-.16-.71-.035-.907.016-1.301.094-.915ZM524.37 530.59c.074.222.086.613.031.812-.09.23-.16.07-.175-.386-.02-.453.039-.618.144-.426Zm-.09-1.43c.102.094.145.387.059.617-.086.262-.188.168-.203-.187-.047-.356.043-.555.144-.43ZM509.671 155c.083.484.118 1.363.075 1.95-.039.585-.121.198-.16-.872-.043-1.07.004-1.562.086-1.078Zm-1.062-27.117c.082.422.11 1.137.067 1.625-.047.523-.125.168-.16-.711-.036-.906.015-1.3.093-.914Zm1.149 21.097c.082.418.11 1.133.062 1.625-.043.52-.12.168-.156-.71-.035-.91.016-1.301.094-.915Zm.12-5.207c.079.418.106 1.067.056 1.461-.047.422-.125.102-.157-.71-.03-.813.02-1.141.102-.75Zm.095-5.859c.078.418.105 1.133.062 1.625-.047.52-.125.164-.156-.71-.035-.911.012-1.302.094-.915Zm22.93 501.074c.195-.008.32.739.324 1.68l.035 1.723-.282-1.453c-.16-.81-.32-1.547-.324-1.711-.039-.13.055-.23.246-.239Zm-.231-.965c.098-.003.262.118.367.309.102.16.047.324-.117.332-.192.008-.36-.148-.367-.312-.008-.196.054-.329.117-.329Zm.5 4.532c.098-.004.262.12.367.312.102.16.047.324-.117.328-.192.008-.36-.148-.367-.308-.008-.196.054-.328.117-.332Zm-6.16-168.176c.074.32.097.84.043 1.137-.086.328-.16.07-.184-.547-.023-.617.031-.88.14-.59Zm13.578 207.668c.101.094.144.383.055.613-.086.266-.184.172-.2-.187-.047-.356.043-.555.145-.426Zm-.05-1.3c.1.093.144.386.054.616-.086.262-.184.168-.2-.187-.046-.356.043-.555.145-.43Zm.546 4.858c.09.645.129 1.684.086 2.274-.043.555-.129.004-.176-1.23-.05-1.266-.004-1.723.09-1.044Zm.976 9.297c1.602 13.727 3.875 28.957 4.375 29.395.133.09.067-1.567-.144-3.703-.18-2.14-.496-5.282-.629-6.969-.16-1.684-.41-3.918-.547-4.957-.187-1.488-.137-1.848.25-1.863.258-.008.555.175.66.367.176.414-.074-2.7-.625-7.688-.183-1.422-.226-2.527-.129-2.433.204.187 2.043 15.047 2.266 18.289.066.875.246 2.203.438 2.91.156.71.457 2.684.62 4.367.4 3.594.442 3.852 1.036 7.442.25 1.52.625 4.496.808 6.636.18 2.137.567 6.285.875 9.235.543 4.761.543 5.605.118 7.898-.344 1.934-.637 2.692-1.204 3.074-1.476 1.063-1.773.067-2.195-7.43-.183-3.05-.758-8.656-1.262-12.472-.777-5.89-3.222-26.254-4.738-39.496-.242-2.04-.472-4.664-.52-5.836-.046-1.168.204.285.548 3.234Zm3.735 58.399c.226-.008.691 1.957.734 3.062-.008.617-.008.617-.48.051-.477-.566-.672-3.098-.254-3.113Zm-.57-48.442c.16-.004.265.22.277.477.008.262.02.586.058.715.004.129-.117.297-.277.367-.191.074-.3-.246-.285-.734-.02-.457.098-.82.227-.825Zm.097-9.011c.102.093.145.382.055.613-.086.266-.184.172-.2-.188-.046-.355.044-.554.145-.425Zm0 0"/>
                </g>
            </g>
        </g>
    </g>
    <g clip-path="url(#g)">
        <g clip-path="url(#h)">
            <g clip-path="url(#i)">
                <g clip-path="url(#j)">
                    <path d="M512.57 356.809c.13-.004.25-.204.239-.465-.012-.258-.153-.547-.286-.64-.128-.06-.25.14-.238.5.016.323.156.608.285.605Zm0 0"/>
                </g>
            </g>
        </g>
    </g>
    <g clip-path="url(#k)">
        <g clip-path="url(#l)">
            <g clip-path="url(#m)">
                <g clip-path="url(#n)">
                    <path d="M546.3 709.207c.427.246.41-.176-.034-.809-.274-.414-.336-.41-.317.075.008.293.153.644.352.734Zm0 0"/>
                </g>
            </g>
        </g>
    </g>
    <g clip-path="url(#o)">
        <g clip-path="url(#p)">
            <g clip-path="url(#q)">
                <g clip-path="url(#r)">
                    <path d="M509.223 123.73c.16-.007.218-.171.117-.332-.106-.191-.274-.312-.367-.308-.067 0-.125.133-.118.328.008.164.172.32.368.312Zm0 0"/>
                </g>
            </g>
        </g>
    </g>
    <g clip-path="url(#s)">
        <g clip-path="url(#t)">
            <g clip-path="url(#u)">
                <g clip-path="url(#v)">
                    <path d="M289.531 443.277c1.004 19.899 2.082 36.707 3.188 49.317.3 3.562.836 9.82 1.191 13.937.902 10.668 4.957 49.992 6.758 65.438.25 2.3.953 8.715 1.523 14.254.57 5.504 1.13 10.687 1.258 11.496.13.808 1.196 9.906 2.406 20.234a7439.674 7439.674 0 0 0 3.641 31.246c.785 6.864 2.25 19.59 3.207 28.332 3.047 27.563 4.613 39.535 6.492 49.676.653 3.52 1.23 5.84 1.567 6.184.3.312.718 1.957 1.097 4.183 1.45 9.02 2.371 12.79 4.297 17.461 1.246 3.012 1.418 3.23 2.766 3.926 1.152.574 1.574.656 2.015.375.41-.274.637-.281.938.062.543.598 2.086.536 2.578-.101.34-.434.434-.438.774-.031.578.695 1.273.375 2.414-1.004.55-.703 1.21-1.219 1.437-1.13.719.231 1.414-.183 1.828-1.144 1.16-2.484 1.153-15.886.008-26.215-.445-3.921-1.137-10.918-1.61-15.55-.44-4.633-.91-9.235-1.011-10.207-.137-.97-.398-3.594-.586-5.832-.184-2.239-.453-4.993-.562-6.157-.215-2.172-.63-7.035-1.184-13.777a484.74 484.74 0 0 0-.684-8.43c-.37-4.441-.199-5.914.29-2.418.913 6.825.995 6.465.48-2.656-1.137-20.738-4.57-59.016-7.39-82.488-.63-5.34-1.505-12.79-1.938-16.512-.406-3.758-1.305-11.039-1.926-16.187-.652-5.18-1.625-13.532-2.18-18.618-.554-5.086-1.668-14.636-2.441-21.21-1.36-11.59-2.77-24.579-4.32-40.293-.391-4.149-.817-7.645-.918-7.739-.2-.152-.008 8.817.203 10.89.086.583-.024 1.075-.184 1.083-.164.004-.27-.25-.281-.578.012-.52-.555-6.774-1.074-11.73-.11-1.169-.407-4.602-.621-7.622-.215-3.047-.497-6.972-.664-8.754a972.144 972.144 0 0 1-.747-10.867c-.261-4.187-.593-8.5-.699-9.566-.105-1.07-.48-6.555-.797-12.168-.316-5.614-.699-12.04-.882-14.278-.184-2.238-.653-10.933-1.079-19.308-.425-8.41-.925-17.074-1.078-19.313-1.476-20.367-7.34-165.3-7.527-185.754-.059-7.25-.145-17.718-.168-23.25-.121-12.191-.45-27.172-.617-26.484-.055.297-.211 2.871-.324 5.707l-.215 5.211-.258-4.867c-.168-2.696-.426-5.156-.602-5.508-.246-.512-.308-.441-.18.398.09.582.044 1.07-.117 1.079-.128.003-.293-.899-.34-2.036-.046-1.27.06-1.859.231-1.57.203.25.223-.11.09-.98-.344-2.2.832-25.793 1.734-34.871.11-1.305.051-2.02-.258-2.399-.238-.312-.359-.992-.289-1.644.102-.723.024-1.11-.234-1.098-.195.008-.344.34-.328.762.02.421-.184 1.046-.426 1.414-.43.636-.46.636-.683-.102-.329-.965-.711-.883-.895.195-1.941 11.395-4.398 59.079-5.813 112.051a1304.27 1304.27 0 0 1-.582 18.078 1384.01 1384.01 0 0 0-.543 14.98c-.14 3.845-.335 9.579-.468 12.704a658.944 658.944 0 0 0-.426 13.84c-.086 4.46-.281 12.601-.422 18.07-.652 25.395-.668 35.707-.18 66.36.079 5.265.133 9.98.122 10.468-.012.52.078 3.703.18 7.117.112 3.735.046 6.114-.122 5.989-.195-.09-.316.109-.273.402.132 2.563.093 6.5-.09 8.395-.309 2.84 1.16 43.703 2.523 71.132Zm14.688 37.254c.133.125.414 2.324.613 4.918.23 2.594.496 5.285.586 5.996.094.711.36 3.336.55 5.832.196 2.496.466 5.25.567 6.157.13.875.344 3.078.512 4.859.168 1.785.375 3.758.492 4.371.09.617.336 2.723.508 4.7.207 1.94.414 3.984.5 4.53.086.52.285 2.364.48 4.047.313 2.98.508 4.7 1 9.07.11 1.169.36 3.403.52 5.02.418 4.082.777 7.516 1.008 9.23.226 1.684 1.004 8.321 1.449 12.305.156 1.524.39 3.399.488 4.211.094.809.328 2.684.485 4.207.156 1.524.367 3.563.5 4.536.105.972.343 2.945.496 4.37.398 3.594.648 5.864 1.472 12.954.93 8.031 2.106 19.14 2.54 23.644.175 1.946.445 4.73.566 6.157.152 1.425.363 3.597.512 4.859.59 6.027.992 11.312.824 11.191-.2-.187-.555-2.613-.977-6.793-.156-1.523-.351-3.273-.473-3.886-.09-.614-.32-2.36-.476-3.883-.559-5.184-.754-6.965-.988-8.742-.133-.973-.895-8.067-1.743-15.707-.816-7.68-1.851-16.778-2.242-20.243a6416.199 6416.199 0 0 1-6.523-59.43c-.113-1.265-.371-3.792-.543-5.671-.172-1.88-.52-5.899-.832-8.91a1307.053 1307.053 0 0 1-1.492-16.696c-.2-2.593-.41-4.73-.446-4.761-.168-.188-.101-2.633.067-2.442ZM298.75 316.88c-.422-19.856-.55-26.39-.836-50.219-.312-27.765-.324-37.945.035-41.96.106-1.372.168-1.505.418-.829.149.45.25.606.274.379.023-.2.18-.398.34-.406.386-.016.359-.664 4.753 109.101 1.797 45.11 3.465 84.465 3.715 87.512.336 4.477 1.54 31.07 1.531 33.41-.015 1.203-.472.215-.597-1.344-.52-5.832-.836-9.789-1.246-15.3-.23-3.473-.492-6.782-.575-7.297-.085-.551-.214-2.172-.273-3.633-.117-2.238-.2-2.625-.613-2.48-.317.144-.48.019-.496-.34-.016-.356.14-.493.468-.375.391.117.477-.18.422-1.578-.058-1.524-.164-1.782-.816-1.95l-.719-.203 1.594-.515-.75-.168c-.617-.137-.758-.36-.734-1.434-.02-1.332-.735-12.168-1.192-17.29-.133-1.687-.543-8.046-.906-14.112-.367-6.067-.715-11.618-.774-12.328-.062-.715-.28-4.707-.476-8.864-.172-4.351-.457-7.527-.617-7.52-.192.009-.055 6.833.308 16.966.367 9.32.57 17.02.508 17.12-.277.27-2.387-56.925-2.746-74.343Zm6.465 104.156c.094-.004.262.117.367.309.102.16.043.324-.117.332-.195.008-.363-.149-.367-.313-.008-.195.05-.328.117-.328Zm4.172 79.426c.074.226.09.68.039.976-.086.329-.156.133-.18-.386-.02-.551.035-.781.14-.59Zm.539 6.355c.101.094.144.383.054.614-.085.265-.187.172-.199-.188-.047-.355.043-.555.145-.426Zm-10.996-284.27c.16-.007.328.118.332.278.008.196-.145.43-.301.535-.188.106-.324-.02-.332-.28-.012-.294.105-.524.3-.532Zm11.488 287.794c.078.324.098.844.043 1.137-.082.332-.156.074-.18-.543-.027-.618.028-.88.137-.594Zm.508 4.7c.078.417.11 1.132.062 1.62-.043.524-.12.168-.156-.707-.035-.91.012-1.3.094-.914ZM309.09 455c.437.406.133.844-.363.535-.2-.09-.274-.348-.184-.543.121-.203.312-.207.547.008Zm2.348 64.898c.082.418.109 1.133.062 1.622-.043.523-.121.168-.156-.707-.035-.91.015-1.305.094-.915Zm-13.739-351.07c.07.227.086.617.031.813-.09.23-.16.07-.175-.383-.02-.453.039-.621.144-.43Zm-1.207-30.851c.07.226.086.613.031.812-.09.23-.16.07-.175-.383-.02-.457.039-.62.144-.43Zm15.465 386.941c.086.516.113 1.297.07 1.785-.047.524-.125.106-.164-.871-.039-.973.008-1.398.094-.914Zm-14.242-363.895c.086.582.125 1.555.082 2.11-.04.586-.121.137-.168-1.035-.047-1.168 0-1.625.086-1.075Zm-1.117-28.582c.082.422.109 1.137.062 1.625-.043.524-.12.168-.156-.71-.035-.907.012-1.301.094-.915ZM312.5 530.59c.074.222.09.613.031.812-.086.23-.156.07-.176-.386-.015-.453.043-.618.145-.426Zm-.086-1.43c.098.094.145.387.055.617-.086.262-.188.168-.2-.187-.046-.356.043-.555.145-.43ZM297.801 155c.086.484.12 1.363.078 1.95-.043.585-.121.198-.164-.872-.043-1.07.004-1.562.086-1.078Zm-1.059-27.117c.078.422.11 1.137.063 1.625-.043.523-.121.168-.157-.711-.035-.906.012-1.3.094-.914Zm1.149 21.097c.078.418.109 1.133.062 1.625-.043.52-.121.168-.156-.71-.035-.91.012-1.301.094-.915Zm.117-5.207c.082.418.105 1.067.058 1.461-.05.422-.125.102-.156-.71-.035-.813.02-1.141.098-.75Zm.094-5.859c.082.418.109 1.133.062 1.625-.043.52-.121.164-.156-.71-.035-.911.015-1.302.094-.915Zm22.933 501.074c.192-.008.32.739.324 1.68l.036 1.723-.286-1.453c-.16-.81-.316-1.547-.324-1.711-.035-.13.055-.23.25-.239Zm-.23-.965c.093-.003.261.118.367.309.101.16.043.324-.117.332-.196.008-.364-.148-.368-.312-.007-.196.051-.329.118-.329Zm.5 4.532c.093-.004.261.12.367.312.101.16.043.324-.117.328-.196.008-.364-.148-.368-.308-.007-.196.051-.328.118-.332Zm-6.164-168.176c.078.32.097.84.043 1.137-.082.328-.157.07-.18-.547-.027-.617.027-.88.137-.59Zm13.578 207.668c.101.094.144.383.058.613-.086.266-.187.172-.203-.187-.043-.356.043-.555.145-.426Zm-.051-1.3c.102.093.144.386.059.616-.086.262-.188.168-.204-.187-.043-.356.043-.555.145-.43Zm.547 4.858c.09.645.129 1.684.09 2.274-.043.555-.13.004-.18-1.23-.047-1.266 0-1.723.09-1.044Zm.976 9.297c1.602 13.727 3.875 28.957 4.375 29.395.133.09.07-1.567-.144-3.703-.18-2.14-.496-5.282-.625-6.969a186.699 186.699 0 0 0-.55-4.957c-.188-1.488-.138-1.848.25-1.863.257-.008.554.175.66.367.175.414-.075-2.7-.626-7.688-.183-1.422-.226-2.527-.125-2.433.2.187 2.04 15.047 2.262 18.289.066.875.25 2.203.437 2.91.157.71.461 2.684.625 4.367.399 3.594.442 3.852 1.032 7.442.254 1.52.629 4.496.808 6.636.18 2.137.57 6.285.88 9.235.538 4.761.538 5.605.113 7.898-.344 1.934-.637 2.692-1.204 3.074-1.472 1.063-1.77.067-2.191-7.43-.184-3.05-.758-8.656-1.266-12.472-.777-5.89-3.218-26.254-4.738-39.496-.242-2.04-.473-4.664-.52-5.836-.042-1.168.208.285.547 3.234Zm3.739 58.399c.226-.008.687 1.957.73 3.062-.008.617-.008.617-.48.051-.473-.566-.668-3.098-.25-3.113Zm-.575-48.442c.16-.004.266.22.278.477.012.262.023.586.058.715.008.129-.117.297-.273.367-.191.074-.3-.246-.29-.734-.015-.457.099-.82.227-.825Zm.098-9.011c.102.093.145.382.059.613-.086.266-.188.172-.203-.188-.043-.355.043-.554.144-.425Zm0 0"/>
                </g>
            </g>
        </g>
    </g>
    <g clip-path="url(#w)">
        <g clip-path="url(#x)">
            <g clip-path="url(#y)">
                <g clip-path="url(#z)">
                    <path d="M300.7 356.809c.128-.004.25-.204.238-.465-.008-.258-.149-.547-.282-.64-.133-.06-.254.14-.238.5.012.323.152.608.281.605Zm0 0"/>
                </g>
            </g>
        </g>
    </g>
    <g clip-path="url(#A)">
        <g clip-path="url(#B)">
            <g clip-path="url(#C)">
                <g clip-path="url(#D)">
                    <path d="M334.43 709.207c.43.246.414-.176-.032-.809-.273-.414-.34-.41-.32.075.012.293.156.644.352.734Zm0 0"/>
                </g>
            </g>
        </g>
    </g>
    <g clip-path="url(#E)">
        <g clip-path="url(#F)">
            <g clip-path="url(#G)">
                <g clip-path="url(#H)">
                    <path d="M297.352 123.73c.164-.007.218-.171.117-.332-.106-.191-.27-.312-.367-.308-.063 0-.125.133-.118.328.008.164.176.32.368.312Zm0 0"/>
                </g>
            </g>
        </g>
    </g>
</svg>
